<?xml version="1.0" encoding="utf-8"?>
<!-- Generator: Adobe Illustrator 25.4.1, SVG Export Plug-In . SVG Version: 6.00 Build 0)  -->
<svg version="1.1" id="圖層_1" xmlns="http://www.w3.org/2000/svg" xmlns:xlink="http://www.w3.org/1999/xlink" x="0px" y="0px"
	 viewBox="0 0 293.2 194.2" style="enable-background:new 0 0 293.2 194.2;" xml:space="preserve">
<style type="text/css">
	.st0{fill:#FFFFFF;}
</style>
<g>
	<path class="st0" d="M143.5,124.8c0,12.1,0.1,24.2-0.1,36.2c0,1.8-0.6,3.9-1.6,5.3c-2.7,3.7-8.5,3.1-10.2-1.2
		c-1.2-2.9-3.3-4.7-5.5-6.5c-12.1-9.7-25.9-16.2-40.8-20.5c-7-2-14.2-3.6-21.7-5.5c0,2.4,0,4.2,0,6.3c-4.5,0-8.8,0-13.4,0
		c2.3,17.4,4.5,34.5,6.8,52c-4.3,1.1-8.5,2.1-13.1,3.2c-1-3.3-2-6.5-3-9.7c-4.4-14.5-8.7-28.9-13-43.4c-0.5-1.6-1.2-2.1-2.9-2.2
		c-10,0-15.8-5.9-15.9-15.9c0-1.3,0-2.7,0-4.4c-1.4,0-2.6,0-3.8,0c-3.3-0.1-5.2-1.5-5.3-4.7c-0.2-6-0.2-12,0-18
		c0.1-3.2,2-4.8,5.2-4.9c1.2,0,2.3,0,4,0c0-2.3-0.2-4.4,0-6.5c0.7-8.4,5.6-13.8,14-14c13.4-0.4,26.8-0.1,40.5-0.1c0,1.9,0,3.7,0,5.8
		c2.3-0.4,4.3-0.7,6.3-1.2c18.3-3.9,35.8-9.7,51.3-20.7c3-2.1,5.7-4.6,8.5-7c0.6-0.5,1-1.5,1.3-2.3c1.2-3,3.6-4.7,6.7-4.5
		c2.8,0.2,4.9,2.1,5.6,5.2c0.2,1,0.2,2.1,0.3,3.2c0,11.1,0,22.2,0,33.2c0,1.4,0.3,2.2,1.7,2.9c7.9,3.9,12,10.4,11.9,19.2
		c-0.1,8.8-4,15.5-12.1,19.4C144.7,124.1,144.1,124.4,143.5,124.8z M24.6,85.5c0,12.7,0,25.4,0,38.3c4,0,7.9,0,11.8,0
		c4,0,7.9,0,11.8,0c0-13,0-25.6,0-38.3C40.3,85.5,32.6,85.5,24.6,85.5z"/>
	<path class="st0" d="M177.9,110.4c-5.1-6.1-9.6-12.5-12.5-20c-7.5-19.6-6.5-38.9,4.1-57C183.6,9.3,205.4-2,233,0.3
		c24.1,2,42.3,14.5,53.1,36.5c10.8,22.2,9.2,44.3-3.9,65c-10.2,16.2-25.3,26-44.3,29.3c-14.9,2.6-29,0-42.3-7
		c-1.6-0.9-2.7-0.8-4.2,0.2c-7.6,5.2-16,7.7-25.3,6.3c-1.1-0.2-2.1-1.2-3.1-1.9c0.7-1.1,1.2-2.6,2.2-3.2
		C171.1,122,175,116.7,177.9,110.4z M227,19.2c-25.6,0-46.5,21-46.6,46.7c-0.1,25.6,20.9,46.7,46.5,46.7c25.4,0,46.7-21.3,46.6-46.7
		C273.5,40,252.6,19.2,227,19.2z"/>
	<path class="st0" d="M234.3,58.7c0,5,0,9.8,0,14.7c-5,0-9.8,0-14.9,0c0-4.8,0-9.7,0-14.7C224.3,58.7,229.2,58.7,234.3,58.7z"/>
	<path class="st0" d="M244.4,58.6c4.9,0,9.7,0,14.8,0c0,4.9,0,9.8,0,14.8c-4.8,0-9.7,0-14.8,0C244.4,68.5,244.4,63.6,244.4,58.6z"/>
	<path class="st0" d="M194.5,73.4c0-5,0-9.8,0-14.7c4.9,0,9.8,0,14.8,0c0,4.8,0,9.7,0,14.7C204.5,73.4,199.6,73.4,194.5,73.4z"/>
</g>
</svg>
