<?xml version="1.0" encoding="utf-8"?>
<!-- Generator: Adobe Illustrator 25.4.1, SVG Export Plug-In . SVG Version: 6.00 Build 0)  -->
<svg version="1.1" id="圖層_1" xmlns="http://www.w3.org/2000/svg" xmlns:xlink="http://www.w3.org/1999/xlink" x="0px" y="0px"
	 viewBox="0 0 252.6 282.3" style="enable-background:new 0 0 252.6 282.3;" xml:space="preserve">
<style type="text/css">
	.st0{fill:#FFFFFF;}
</style>
<g>
	<path class="st0" d="M0,113.8C0,80.4,0,47,0,13.6C0,6.5,2.9,2.2,8.9,0.5C10.2,0.1,11.7,0,13.1,0c56.2,0,112.5,0,168.7,0
		c8.2,0,13.1,4.8,13.1,13c0,54.3,0,108.7-0.1,163c0,1.2-0.6,2.6-1.5,3.4c-15.5,15.6-31,31.2-46.6,46.7c-0.8,0.8-2.1,1.3-3.2,1.3
		c-43.4,0.1-86.8,0.1-130.2,0c-8.6,0-13.2-4.8-13.3-13.7C0,180.5,0,147.2,0,113.8z M115.8,187.5c10.9,0,21.8,0,32.7,0
		c4.5,0,7.7-2.8,7.8-6.8c0.1-3.9-3-7-7.5-7c-22.1-0.1-44.3,0-66.4,0c-0.4,0-0.8,0-1.2,0.1c-2.6,0.7-4.7,2-5.5,4.8
		c-0.8,2.7-0.3,5.3,1.8,6.8c1.7,1.2,4.1,1.9,6.2,2C94.3,187.6,105,187.5,115.8,187.5z M115.7,142.8c9.1,0,18.1,0,27.2,0
		c2.5,0,5,0.1,7.5-0.1c4.1-0.4,6.5-3.6,5.9-7.7c-0.5-3.5-3.3-5.8-7.3-5.8c-22.1,0-44.1,0-66.2,0c-0.7,0-1.5,0.1-2.2,0.3
		c-3.4,0.8-5.4,3.5-5.1,7c0.4,4.2,2.9,6.4,7.7,6.4C94.1,142.9,104.9,142.8,115.7,142.8z M115.9,53.7c11.1,0,22.1,0,33.2,0
		c4.5,0,7.3-2.7,7.3-6.8c0-4.1-3-6.8-7.6-6.8c-21.9,0-43.8,0-65.7,0c-0.5,0-1,0-1.5,0c-3.9,0.4-6.5,3.5-6,7.4c0.4,4,2.8,6.1,7.1,6.1
		C93.8,53.7,104.9,53.7,115.9,53.7z M116.3,84.4c-10.6,0-21.2,0-31.7,0c-1,0-2,0-3,0.1c-4,0.5-6.5,3.8-5.9,7.8
		c0.6,3.8,3.2,5.7,7.8,5.7c21.7,0,43.3,0,65,0c1,0,2-0.1,3-0.3c3.4-0.9,5.3-3.5,5-7.1c-0.3-3.8-3.1-6.2-7.6-6.2
		C137.9,84.3,127.1,84.4,116.3,84.4z M47.6,99c0.1-0.2,0.1-0.4,0.2-0.7c0.8,0,1.7,0,2.5,0C54.4,98,57,95.6,57,92
		c0-4.2-2.5-7-6.6-7.2c-1.9-0.1-3.8-0.2-5.7,0.1c-2.7,0.3-4.9,1.6-5.8,4.4c-1,2.8-0.5,5.6,1.8,7.2C42.6,97.8,45.3,98.1,47.6,99z
		 M47.7,142.8c0.7,0,1.5,0,2.2,0c4.4-0.2,7.1-2.7,7-6.5c-0.1-4.3-2.9-7-7.3-7.2c-1.7,0-3.3-0.1-5,0.1c-5.4,0.6-8,6-5.2,10.5
		C41.5,142.9,44.6,142.9,47.7,142.8z M47.9,40.5C47.9,40.5,47.9,40.5,47.9,40.5c-1,0-2,0-3,0c-3.7,0.2-6.4,2.9-6.5,6.5
		c-0.1,3.6,2.8,6.7,6.4,6.9c1.9,0.1,3.8,0.1,5.7,0c3.7-0.2,6.5-3.2,6.4-6.6c-0.1-4.1-2.6-6.7-6.6-6.9C49.5,40.5,48.7,40.5,47.9,40.5
		z M47.8,187.6c0.8,0,1.8,0,2.8,0c3.6-0.2,6.4-3,6.4-6.3c0-4-2.6-7-6.4-7.2c-1.9-0.1-3.8-0.1-5.7,0c-2.8,0.2-4.9,1.5-6,4.2
		c-1,2.6-0.5,5,1.4,7.2C42.3,187.9,44.9,187.7,47.8,187.6z"/>
	<path class="st0" d="M209,184.1c7.6,7.6,15.2,15.2,22.5,22.5c-18.1,18.1-36.3,36.2-54.4,54.3c-7.2-7.2-14.9-14.9-22.5-22.5
		C172.7,220.4,190.8,202.3,209,184.1z"/>
	<path class="st0" d="M146.4,246.8c7.9,7.8,15.6,15.4,23.4,23.1c-2.1,2-4.2,4.2-6.4,6.2c-0.8,0.7-1.8,1.2-2.9,1.4
		c-6.6,1.6-13.3,3.1-19.9,4.5c-4.7,1-7.4-1.8-6.4-6.5c1.4-6.4,2.7-12.8,4.3-19.2c0.4-1.7,1.6-3.4,2.8-4.8
		C142.8,249.7,144.8,248.3,146.4,246.8z"/>
	<path class="st0" d="M240.1,198.8c-7.7-7.7-15.2-15.3-22.7-22.9c3.6-3.8,7.3-7.8,11.3-11.5c1.6-1.5,4.4-1.1,6.2,0.6
		c5.4,5.3,10.9,10.6,16.2,15.9c2.2,2.2,2.2,4.8,0,7.1C247.4,191.6,243.8,195.1,240.1,198.8z"/>
</g>
</svg>
