<?xml version="1.0" encoding="utf-8"?>
<!-- Generator: Adobe Illustrator 25.4.1, SVG Export Plug-In . SVG Version: 6.00 Build 0)  -->
<svg version="1.1" id="圖層_1" xmlns="http://www.w3.org/2000/svg" xmlns:xlink="http://www.w3.org/1999/xlink" x="0px" y="0px"
	 viewBox="0 0 147.9 222.9" style="enable-background:new 0 0 147.9 222.9;" xml:space="preserve">
<style type="text/css">
	.st0{fill:#FFFFFF;}
</style>
<path class="st0" d="M74,128c22.9,0,45.8,0,68.7,0c4.1,0,5.2,1,5.2,5.2c0,5.7,0,11.5,0,17.2c0,4.1-1.1,5.1-5.2,5.1
	c-3.8,0-7.7,0.1-11.5,0c-1.8-0.1-2.6,0.4-2.7,2.3c-1,9.3-2,18.5-3,27.8c-1.2,11.2-2.4,22.3-3.7,33.5c-0.3,2.7-1.8,3.9-4.6,3.9
	c-28.7,0-57.5,0-86.2,0c-3.3,0-4.7-1.4-5-4.6c-1.8-16.2-3.6-32.4-5.4-48.6c-0.4-3.9-0.9-7.8-1.1-11.7c-0.1-1.9-0.9-2.6-2.8-2.5
	c-4.2,0.1-8.3,0.1-12.5,0c-3,0-4.1-1.1-4.1-4.1c0-6.3,0-12.7,0-19c0-3.4,1-4.4,4.5-4.4C27.7,128,50.9,128,74,128z M74.1,171.9
	c-10.5,0-21,0-31.5,0c-0.7,0-1.5-0.1-2.2,0.1c-1.7,0.4-2.9,1.4-2.8,3.3c0,1.8,0.9,3,2.8,3.3c1,0.1,2,0.2,3,0.2c20.5,0,41,0,61.5,0
	c1,0,2,0,3-0.2c2-0.4,3-2.2,2.3-4.2c-0.7-2.2-2.5-2.4-4.4-2.4C95.1,171.9,84.6,171.9,74.1,171.9z"/>
<path class="st0" d="M40,42c0-2.2,1.1-5.4,4.3-7.5c0.6-0.4,0.9-1.6,1.1-2.5c0.7-4.2,1-8.5,2.2-12.5C49.8,12,54.9,7.4,63,6.6
	c1.5-0.1,2.2-0.7,3-2.1c2.2-4.2,6.4-4.7,10.4-4.5c11.4,0.7,21,5.1,27.2,15.2c3,4.9,4.2,10.4,4.8,16.1c0.1,1.1,1,2.3,1.6,3.3
	c0.6,1,1.5,1.8,2,2.8c2.9,5.9,0.5,17-6.4,20c-0.9,0.4-1.6,1.8-1.9,2.9c-2.5,8.2-7.3,14.6-15,18.4c-15.7,7.9-34.2-0.7-39-17.9
	c-0.6-2-1.4-3.5-3.2-4.7C42.3,53.7,40,48.6,40,42z"/>
<path class="st0" d="M13.8,124.1c1.1-7.4,3.7-14,7.9-19.9C30.2,92.4,41.8,85.5,56,82.8c1.2-0.2,3.1,0.4,4,1.2
	c8.9,8.5,23.5,9.3,32.7,0.6c0.9-0.8,2.9-1.1,4.1-0.7c19.2,5.9,32.1,17.9,36.8,37.9c0.1,0.6,0.3,1.3,0.5,2.3
	C93.9,124.1,54.1,124.1,13.8,124.1z"/>
</svg>
