<?xml version="1.0" encoding="utf-8"?>
<!-- Generator: Adobe Illustrator 25.4.1, SVG Export Plug-In . SVG Version: 6.00 Build 0)  -->
<svg version="1.1" id="icons" xmlns="http://www.w3.org/2000/svg" xmlns:xlink="http://www.w3.org/1999/xlink" x="0px" y="0px"
	 viewBox="0 0 37 35" style="enable-background:new 0 0 37 35;" xml:space="preserve">
<style type="text/css">
	.st0{fill:#FFFFFF;}
</style>
<g>
	<g>
		<circle class="st0" cx="13" cy="32" r="3"/>
		<path class="st0" d="M5.6,30.5H2c-0.8,0-1.5,0.7-1.5,1.5c0,0.8,0.7,1.5,1.5,1.5h3.6C6.4,33.5,7,32.8,7,32v0
			C7,31.2,6.4,30.5,5.6,30.5z M34,0H3C1.3,0,0,1.3,0,3v20c0,1.7,1.3,3,3,3h31c1.7,0,3-1.3,3-3V3C37,1.3,35.7,0,34,0z M24.6,13.8
			l-8.7,5.3c-0.6,0.4-1.4-0.1-1.4-0.8V7.7c0-0.7,0.8-1.1,1.4-0.8l8.7,5.3C25.1,12.6,25.1,13.4,24.6,13.8z M35,30.5H20.4
			c-0.8,0-1.4,0.7-1.4,1.5v0c0,0.8,0.6,1.5,1.4,1.5H35c0.8,0,1.5-0.7,1.5-1.5C36.5,31.2,35.8,30.5,35,30.5z"/>
	</g>
</g>
</svg>
