<?xml version="1.0" encoding="utf-8"?>
<!-- Generator: Adobe Illustrator 25.4.1, SVG Export Plug-In . SVG Version: 6.00 Build 0)  -->
<svg version="1.1" id="圖層_1" xmlns="http://www.w3.org/2000/svg" xmlns:xlink="http://www.w3.org/1999/xlink" x="0px" y="0px"
	 viewBox="0 0 204.2 260" style="enable-background:new 0 0 204.2 260;" xml:space="preserve">
<style type="text/css">
	.st0{fill:#FFFFFF;}
</style>
<g>
	<path class="st0" d="M130,259.9c-1.1,0-1.7,0-2.4,0c-32.9,0-65.8,0.1-98.7,0c-12,0-21-5.3-26.2-16.3c-1.5-3.2-1.8-6.9-2.6-10.3
		c-0.2-0.8-0.1-1.7-0.1-2.5C0,163.6,0,96.3,0,29.1c0-9.9,3.7-18,11.7-23.9C16.6,1.6,22.2,0,28.1,0c49.3,0,98.7-0.1,148,0
		c16,0,28,12.1,28,28.1c0.1,51.8,0,103.7,0,155.5c0,0.6-0.1,1.2-0.1,2.1c-1,0-2,0-3,0c-14.1,0-28.2,0.2-42.2,0
		c-14.6-0.2-25.2,9.4-27.9,20.9c-0.7,2.7-0.8,5.6-0.9,8.4c-0.1,14,0,28,0,42C130,257.8,130,258.7,130,259.9z M102,64.9
		c7.8,0,15.7,0,23.5,0c10.7,0,21.5,0.1,32.2,0c6.6,0,10.8-6.2,8.7-12.3c-1.4-4-4.6-6.2-9.3-6.2c-36.7,0-73.5,0-110.2,0
		c-0.6,0-1.2,0-1.7,0.1c-5.2,0.6-9,5.9-7.8,11c1.1,4.8,4.4,7.4,9.6,7.4C65.4,65,83.7,64.9,102,64.9z M102.2,139.2
		c-17.7,0-35.5,0-53.2,0c-1.4,0-2.8,0-4.2,0.3c-5.2,0.9-8.5,6.1-7.2,11.2c1.2,4.8,4.8,7.2,10.6,7.2c36.1,0,72.1,0,108.2,0
		c1.4,0,2.8-0.2,4.2-0.5c6.6-1.8,8.8-10.5,3.9-15.3c-2.3-2.3-5.2-2.8-8.3-2.8C138.1,139.2,120.2,139.2,102.2,139.2z M102.1,92.9
		c-13.6,0-27.2,0-40.7,0c-5.2,0-10.3-0.1-15.5,0.1c-5.6,0.2-9.7,5.7-8.5,11.2c1.1,4.8,4.7,7.3,10.4,7.4c36.2,0,72.3,0,108.5,0
		c0.7,0,1.3,0,2-0.1c6.2-0.7,10-6.1,8.3-12c-1.2-4.1-4.7-6.6-9.5-6.6C138.8,92.9,120.5,92.9,102.1,92.9z M69.8,185.7
		C69.8,185.7,69.8,185.8,69.8,185.7c-8.1,0.1-16.2-0.1-24.2,0.2c-5.9,0.2-9.6,5.9-8,11.5c1.1,4,4.4,6.7,8.9,6.7
		c15.4,0.1,30.8,0,46.2,0c0.4,0,0.8-0.1,1.2-0.1c4.7-0.6,8.3-4.7,8.2-9.5c-0.1-5.1-4.1-8.8-9.8-8.9
		C84.8,185.6,77.3,185.7,69.8,185.7z"/>
	<path class="st0" d="M198.3,204.2c-16.5,16.6-32.9,33.1-49.5,49.8c-0.1-0.8-0.2-1.4-0.2-1.9c0-12.6,0-25.2,0-37.7
		c0-5.9,3.6-10,9.1-10.1C171.2,204.1,184.7,204.2,198.3,204.2z"/>
</g>
</svg>
