<?xml version="1.0" encoding="utf-8"?>
<!-- Generator: Adobe Illustrator 25.4.1, SVG Export Plug-In . SVG Version: 6.00 Build 0)  -->
<svg version="1.1" id="圖層_1" xmlns="http://www.w3.org/2000/svg" xmlns:xlink="http://www.w3.org/1999/xlink" x="0px" y="0px"
	 viewBox="0 0 49.3 54.2" style="enable-background:new 0 0 49.3 54.2;" xml:space="preserve">
<style type="text/css">
	.st0{fill:#FFFFFF;}
</style>
<g>
	<path class="st0" d="M46.8,7.4v44.4h-41c-2,0-3.7-1.7-3.7-3.7c0-2,1.7-3.7,3.7-3.7h38.5V0H6.2C2.8,0,0,2.8,0,6.2V48
		c0,3.4,2.8,6.2,6.2,6.2h43.1V7.4H46.8z M7.4,2.5h34.5v39.4H7.4V2.5z"/>
	<g>
		<rect x="12.3" y="12.3" class="st0" width="24.6" height="2.5"/>
		<rect x="12.3" y="17.2" class="st0" width="14.8" height="2.5"/>
		<rect x="12.3" y="7.4" class="st0" width="24.6" height="2.5"/>
		<path class="st0" d="M4.9,48c0,0.7,0.6,1.2,1.2,1.2h38.2v-2.5H6.2C5.5,46.8,4.9,47.4,4.9,48z"/>
	</g>
</g>
</svg>
