<?xml version="1.0" encoding="utf-8"?>
<!-- Generator: Adobe Illustrator 25.4.1, SVG Export Plug-In . SVG Version: 6.00 Build 0)  -->
<svg version="1.1" id="圖層_1" xmlns="http://www.w3.org/2000/svg" xmlns:xlink="http://www.w3.org/1999/xlink" x="0px" y="0px"
	 viewBox="0 0 78.9 66.8" style="enable-background:new 0 0 78.9 66.8;" xml:space="preserve">
<style type="text/css">
	.st0{fill:#FFFFFF;}
</style>
<path class="st0" d="M76.9,16.9c-1.1,0-2,0.9-2,2v43.8H52.4L70,57.1c0.8-0.3,1.4-1.1,1.4-1.9V10.9c0-1.1-0.9-2-2-2c-1.1,0-2,0.9-2,2
	v42.7L50,59.3l12.6-9.7c0.5-0.4,0.8-1,0.8-1.6V2c0-0.8-0.4-1.5-1.1-1.8c-0.7-0.3-1.5-0.3-2.1,0.2L39.5,15.9L18.9,0.4
	c-0.6-0.5-1.4-0.5-2.1-0.2c-0.7,0.3-1.1,1-1.1,1.8v46c0,0.6,0.3,1.2,0.8,1.6l12.6,9.7l-17.3-5.6V10.9c0-1.1-0.9-2-2-2
	c-1.1,0-2,0.9-2,2v44.2c0,0.9,0.6,1.7,1.4,1.9l17.6,5.7H4.1V18.9c0-1.1-0.9-2-2-2c-1.1,0-2,0.9-2,2v45.9c0,1.1,0.9,2,2,2h37.4
	c0,0,0,0,0,0h0h0c0,0,0,0,0,0h37.4c1.1,0,2-0.9,2-2V18.9C78.9,17.8,78,16.9,76.9,16.9z M19.7,47V6.1l17.8,13.4v41.2L19.7,47z
	 M41.5,19.5L59.2,6.1V47L41.5,60.7V19.5z"/>
</svg>
