<?xml version="1.0" encoding="utf-8"?>
<!-- Generator: Adobe Illustrator 25.4.1, SVG Export Plug-In . SVG Version: 6.00 Build 0)  -->
<svg version="1.1" id="圖層_1" xmlns="http://www.w3.org/2000/svg" xmlns:xlink="http://www.w3.org/1999/xlink" x="0px" y="0px"
	 viewBox="0 0 16 16" style="enable-background:new 0 0 16 16;" xml:space="preserve">
<g>
	<path d="M11,7c0,1.7-1.3,3-3,3l0,0c-1.7,0-3-1.3-3-3V3c0-1.7,1.3-3,3-3l0,0c1.7,0,3,1.3,3,3V7z"/>
	<path d="M13,4.2c-0.4,0-1,0.3-1,0.8v2c0,2.2-1.2,4.3-4,4.3c-2.5,0-4-1.7-4-4.3V5c0-0.4-0.5-0.8-0.9-0.8C2.6,4.2,2,4.6,2,5v2
		c0,2.9,2.2,5.2,5,5.7V14c-0.2,0-0.3,0.1-0.5,0.1l-2.1,0.7C4.2,14.9,4,15.2,4,15.5S4.2,16,4.5,16h7c0.3,0,0.5-0.2,0.5-0.5
		s-0.2-0.6-0.5-0.7l-2.1-0.7c-0.1,0-0.3-0.1-0.5-0.1v-1.4c3-0.5,5-3.1,5-5.7V5C14,4.6,13.4,4.2,13,4.2z"/>
</g>
</svg>
