<?xml version="1.0" encoding="utf-8"?>
<!-- Generator: Adobe Illustrator 25.4.1, SVG Export Plug-In . SVG Version: 6.00 Build 0)  -->
<svg version="1.1" id="Layer_39" xmlns="http://www.w3.org/2000/svg" xmlns:xlink="http://www.w3.org/1999/xlink" x="0px" y="0px"
	 viewBox="0 0 50 50" style="enable-background:new 0 0 50 50;" xml:space="preserve">
<style type="text/css">
	.st0{fill:#FFFFFF;}
</style>
<path class="st0" d="M20.2,38.4C10.1,38.4,2,30.2,2.1,20.1S10.3,2,20.3,2c4.8,0,9.4,1.9,12.8,5.3l0,0c7.1,7.1,7.2,18.6,0.1,25.7
	C29.7,36.5,25.1,38.4,20.2,38.4z M20.2,6C12.4,6,6,12.3,5.9,20.1c0,7.8,6.3,14.2,14.1,14.3c7.8,0,14.2-6.3,14.3-14.1
	c0-3.8-1.5-7.4-4.1-10.1C27.6,7.5,24,6,20.2,6z"/>
<path class="st0" d="M46,48c-0.5,0-1-0.2-1.4-0.6L30.2,33.1c-0.9-0.7-1.1-1.9-0.4-2.8s1.9-1.1,2.8-0.4c0.2,0.1,0.3,0.2,0.4,0.4
	l14.4,14.3c0.8,0.8,0.8,2.1,0,2.8C47,47.8,46.5,48,46,48z"/>
</svg>
