<?xml version="1.0" encoding="utf-8"?>
<!-- Generator: Adobe Illustrator 25.4.1, SVG Export Plug-In . SVG Version: 6.00 Build 0)  -->
<svg version="1.1" id="圖層_1" xmlns="http://www.w3.org/2000/svg" xmlns:xlink="http://www.w3.org/1999/xlink" x="0px" y="0px"
	 viewBox="0 0 16 16" style="enable-background:new 0 0 16 16;" xml:space="preserve">
<g>
	<path d="M9,2H2C0.9,2,0,2.9,0,4v8c0,1.1,0.9,2,2,2h7c1.1,0,2-0.9,2-2V4C11,2.9,10.1,2,9,2z M9,6.5C9,6.8,8.8,7,8.5,7h-2
		C6.2,7,6,6.8,6,6.5v-2C6,4.2,6.2,4,6.5,4h2C8.8,4,9,4.2,9,4.5V6.5z"/>
	<path d="M12.4,5.8C12.2,5.9,12,6.2,12,6.5v3c0,0.3,0.2,0.6,0.4,0.7l3.1,1.6c0.2,0.1,0.4,0,0.4-0.3v-7c0-0.3-0.2-0.4-0.4-0.3
		L12.4,5.8z"/>
</g>
</svg>
