<?xml version="1.0" encoding="utf-8"?>
<!-- Generator: Adobe Illustrator 25.4.1, SVG Export Plug-In . SVG Version: 6.00 Build 0)  -->
<svg version="1.1" id="圖層_1" xmlns="http://www.w3.org/2000/svg" xmlns:xlink="http://www.w3.org/1999/xlink" x="0px" y="0px"
	 viewBox="0 0 492.1 254.7" style="enable-background:new 0 0 492.1 254.7;" xml:space="preserve">
<style type="text/css">
	.st0{fill:#00833E;}
	.st1{fill:#00A7E1;}
	.st2{fill:#61A60E;}
	.st3{fill:#FFFFFF;}
</style>
<g>
	<g>
		<path class="st0" d="M10.4,115.4H0v-5.9h27.9v5.9H17.5v29.3h-7.1V115.4z"/>
		<path class="st0" d="M52,144.6l-3-8H34.9l-2.9,8h-7.6l13.7-35.2h7.5l14.1,35.2H52z M46.7,130.7l-4.9-13.1L37,130.7H46.7z"/>
		<path class="st0" d="M64.7,109.4h7.1v35.2h-7.1V109.4z"/>
		<path class="st0" d="M78.8,109.4H86l5.3,24.2h0.1l6.4-24.2h8.5l6.2,24.6h0.1l5.3-24.6h7.2l-8.6,35.2h-7.6l-6.9-26.3h-0.1
			l-6.9,26.3h-7.7L78.8,109.4z"/>
		<path class="st0" d="M152.4,144.6l-3-8h-14.1l-2.9,8h-7.6l13.7-35.2h7.5l14.1,35.2H152.4z M147,130.7l-4.9-13.1l-4.8,13.1H147z"/>
		<path class="st0" d="M164.1,109.4h6.9l14.3,23.5h0.1v-23.5h6.6v35.2h-7.1l-14.1-23h-0.1v23h-6.6V109.4z"/>
	</g>
	<g>
		<g>
			<path class="st1" d="M486.7,92.5C463.3,25.9,364.1,0,364.1,0s-27.9,37.5-38.8,82.4c19.4,1.9,38.5,7,54.6,17.5
				c62.5,40.6,69,141.5,69,141.5S510.2,159.2,486.7,92.5z"/>
			<path class="st2" d="M326.4,148.9c-7.6-21.6-6.3-44.9-1.1-66.5c-56-5.4-115,16.4-115,16.4s5.9,95.3,68.4,136
				c62.5,40.6,170.3,6.6,170.3,6.6S349.9,215.5,326.4,148.9z"/>
			<path class="st0" d="M380,99.9c-16.1-10.5-35.2-15.6-54.6-17.5c-5.2,21.6-6.5,44.8,1.1,66.5c23.4,66.7,122.6,92.5,122.6,92.5
				S442.5,140.5,380,99.9z"/>
		</g>
		<g>
			<path class="st0" d="M379.7,123.9c-3.6,0-6.4,0.3-8.3,0.7L360.3,182c2.2,0.4,4.9,0.5,8.2,0.5c10.2,0,19.1-3.5,24.9-10.2
				c6-6.8,9.1-16,9.1-27.1C402.5,131.4,394.9,123.9,379.7,123.9z"/>
			<path class="st3" d="M265.2,109.4h-18.7l-13.5,71.3c2.8,5.6,5.9,11.1,9.3,16.4h6.3L265.2,109.4z"/>
			<path class="st3" d="M299.3,130.7c5.3-4.4,12.5-6.8,20-6.8c7.5,0,13.4,1.6,15.9,2.9l5.2-15.2c-2.6-1.4-9.8-3.6-19.3-3.6
				c-12.4,0-23,3-32.1,9.2c-13.3,8.8-22.1,24.2-22.1,44.1c0,23.2,15.5,37.2,38.8,37.2c10.5,0,18.4-1.7,23-3.8l-1.6-15.1
				c-4.3,1.8-10.4,2.9-16.7,2.9c-15.4,0-23.3-9.4-23.3-23.4C287.2,146.9,292,136.9,299.3,130.7z"/>
			<path class="st3" d="M411.1,117.7c-7.2-6.1-18.2-8.9-32.4-8.9c-8.2,0-16.1,0.7-23.7,2l-16.3,85.2c4.4,0.8,13.5,1.7,24.1,1.7
				c19,0,31.9-3.5,42-11.7c10.8-8.7,18-24.2,18-41.4C422.8,132.3,418.5,123.6,411.1,117.7z M393.4,172.4
				c-5.7,6.6-14.7,10.2-24.9,10.2c-3.3,0-6-0.1-8.2-0.5l11.1-57.5c2-0.4,4.7-0.7,8.3-0.7c15.2,0,22.8,7.5,22.8,21.5
				C402.5,156.4,399.3,165.6,393.4,172.4z"/>
			<path class="st3" d="M441,109.4l-16.7,87.7h18.7l6.6-35.4h28.3l3.1-15.7h-28.5l4-20.6h35.3c0-5.4-0.4-10.7-1.2-16H441z"/>
		</g>
	</g>
</g>
</svg>
