<?xml version="1.0" encoding="utf-8"?>
<!-- Generator: Adobe Illustrator 25.4.1, SVG Export Plug-In . SVG Version: 6.00 Build 0)  -->
<svg version="1.1" id="圖層_1" xmlns="http://www.w3.org/2000/svg" xmlns:xlink="http://www.w3.org/1999/xlink" x="0px" y="0px"
	 viewBox="0 0 500 66" style="enable-background:new 0 0 500 66;" xml:space="preserve">
<style type="text/css">
	.st0{fill:#00833E;}
	.st1{fill:#00A7E1;}
	.st2{fill:#61A60E;}
	.st3{fill:#FFFFFF;}
	.st4{fill:#313131;}
	.st5{fill:#1A1A1A;}
</style>
<g>
	<g>
		<path class="st0" d="M3,30H0.4v-1.5h7.1V30H4.8v7.4H3V30z"/>
		<path class="st0" d="M13.6,37.3l-0.8-2H9.2l-0.7,2H6.6l3.5-8.9H12l3.6,8.9H13.6z M12.2,33.8L11,30.5l-1.2,3.3H12.2z"/>
		<path class="st0" d="M16.8,28.5h1.8v8.9h-1.8V28.5z"/>
		<path class="st0" d="M20.4,28.5h1.8l1.3,6.1l0,0l1.6-6.1h2.1l1.6,6.2l0,0l1.3-6.2h1.8l-2.2,8.9h-1.9l-1.6-6.6l0,0l-1.8,6.6h-2
			L20.4,28.5z"/>
		<path class="st0" d="M39,37.3l-0.8-2h-3.6l-0.7,2H32l3.5-8.9h1.9l3.6,8.9H39z M37.7,33.8l-1.3-3.3l-1.2,3.3H37.7z"/>
		<path class="st0" d="M42,28.5h1.7l3.6,6l0,0v-6H49v8.9h-1.8l-3.6-5.8l0,0v5.8h-1.7L42,28.5L42,28.5z"/>
	</g>
	<g>
		<g>
			<path class="st1" d="M123.8,24.1c-5.9-16.8-31-23.4-31-23.4s-7.1,9.5-9.8,20.9c4.9,0.5,9.8,1.8,13.8,4.4
				c15.8,10.3,17.5,35.8,17.5,35.8S129.6,41,123.8,24.1z"/>
			<path class="st2" d="M83.1,38.5c-1.9-5.5-1.6-11.4-0.3-16.8c-14.2-1.4-29.1,4.1-29.1,4.1S55.2,50,71,60.2
				c15.8,10.3,43.1,1.7,43.1,1.7S89,55.3,83.1,38.5z"/>
			<path class="st0" d="M96.8,26c-4.1-2.7-8.9-4-13.8-4.4c-1.3,5.5-1.7,11.4,0.3,16.8c5.9,16.9,31.1,23.4,31.1,23.4
				S112.5,36.3,96.8,26z"/>
		</g>
		<g>
			<path class="st0" d="M96.6,32.2c-0.9,0-1.6,0.1-2.1,0.2L91.7,47C92.3,47,93,47,93.8,47c2.6,0,4.8-0.9,6.3-2.6
				c1.5-1.7,2.3-4.1,2.3-6.9C102.4,34,100.4,32.2,96.6,32.2z"/>
			<path class="st3" d="M67.6,28.5h-4.7l-3.5,18.1c0.7,1.4,1.5,2.8,2.4,4.2h1.6L67.6,28.5z"/>
			<path class="st3" d="M76.2,33.8c1.4-1.1,3.2-1.7,5.1-1.7s3.4,0.4,4,0.7l1.3-3.9C86,28.5,84.2,28,81.8,28c-3.1,0-5.8,0.8-8.1,2.3
				c-3.4,2.2-5.6,6.1-5.6,11.2c0,5.9,3.9,9.4,9.8,9.4c2.7,0,4.6-0.4,5.8-1l-0.4-3.8c-1.1,0.5-2.6,0.7-4.2,0.7
				c-3.9,0-5.9-2.4-5.9-5.9C73.1,38,74.4,35.5,76.2,33.8z"/>
			<path class="st3" d="M104.5,30.5c-1.8-1.5-4.6-2.2-8.2-2.2c-2.1,0-4.1,0.2-6,0.5l-4.1,21.6c1.1,0.2,3.4,0.4,6.1,0.4
				c4.8,0,8.1-0.9,10.6-3c2.7-2.2,4.5-6.1,4.5-10.5C107.5,34.2,106.4,32,104.5,30.5z M100.1,44.5c-1.5,1.7-3.7,2.6-6.3,2.6
				c-0.8,0-1.5,0-2.1-0.1l2.8-14.6c0.5-0.1,1.2-0.2,2.1-0.2c3.9,0,5.8,1.9,5.8,5.4C102.4,40.3,101.6,42.8,100.1,44.5z"/>
			<path class="st3" d="M112.1,28.5l-4.2,22.2h4.7l1.7-9h7.2l0.8-4h-7.2l1-5.2h9c0-1.4-0.1-2.7-0.3-4.1h-12.7V28.5z"/>
		</g>
	</g>
</g>
<g>
	<path class="st4" d="M141.8,33c-0.1,0.1-0.1,0.3-0.2,0.4c-0.6,1.3-1.5,2.5-2.7,3.7l-1.7-1.1l0.6-0.6c0.9-1,1.7-2,2.2-3.2L141.8,33z
		 M146.3,17.6v14h-8.1v-14H146.3z M144.4,19.5h-4.3v2.2h4.3V19.5z M140.1,25.6h4.3v-2.3h-4.3V25.6z M140.1,30h4.3v-2.6h-4.3V30z
		 M145.2,37c-0.6-1.5-1.3-2.8-2.3-4l1.7-0.9c1,1.3,1.8,2.6,2.5,4L145.2,37z M153.6,26.1c-1.3,2.4-3.2,4.6-5.6,6.8l-1.4-1.9
		c1.6-1.3,2.9-2.6,3.9-3.7c1-1.2,2-2.7,2.9-4.4h-6.1v-1.9h6.2V17h2v4.1h1.9V23h-1.9v11.4v0.3c0,0.8-0.2,1.4-0.5,1.7
		c-0.3,0.4-1,0.5-2,0.5h-2.7l-0.5-2l2.9,0.1c0.5,0,0.7-0.2,0.7-0.7v-8.1H153.6z"/>
	<path class="st4" d="M165.6,17.5h19.1v19.7h-1.9v-0.9h-15.3v0.9h-1.9L165.6,17.5L165.6,17.5z M180.3,27.2L181,28l0.9,1.1l-1.4,0.9
		l-0.6-0.8h-0.4v1h2.7v1.4h-2.7v0.6v0.2c0,0.5-0.1,0.9-0.4,1.2c-0.2,0.3-0.8,0.4-1.6,0.4h-2.4l-0.4-1.4l2.2,0.1
		c0.5,0,0.7-0.2,0.7-0.6v-0.4h-9.4v-1.4h9.4v-0.9l-4.1,0.2l-4.9,0.1l-0.3-1.6h2.8h2.8v-0.8h-5.2v-5.2h5.2v-0.7h-5.8v-1.4h5.8v-0.8
		h-6.6v15.6h15.3V19h-7v0.8h6.3v1.4h-6.3v0.7h5.5v5.2h-0.8V27.2z M172.1,34.2l-0.7-0.9c-0.2-0.3-0.4-0.5-0.7-0.7l-0.1-0.1l1.5-0.7
		l0.7,0.7c0.2,0.2,0.4,0.4,0.7,0.8c0,0,0.1,0.1,0.2,0.2L172.1,34.2z M170.6,23.2v0.9h3.5v-0.9H170.6z M170.6,25.1V26h3.5v-0.9H170.6
		z M175.8,23.2v0.9h3.8v-0.9H175.8z M175.8,25.1V26h3.8v-0.9H175.8z M175.8,27.2V28h1.8h1.4l-0.6-0.7L175.8,27.2L175.8,27.2z"/>
	<path class="st4" d="M196.8,27.2l-1.9-1.3c-0.2-0.2-0.6-0.4-1.2-0.8c-0.2-0.1-0.4-0.2-0.7-0.4l1.3-1.7l1.9,1c0.5,0.3,1.2,0.7,2,1.3
		L196.8,27.2z M198.8,29.9c-0.2,0.5-0.4,1-0.6,1.3c-1.1,2.4-2.3,4.4-3.4,5.8l-1.7-1.8c1.1-1.4,2.3-3.3,3.3-5.6
		c0.1-0.3,0.3-0.7,0.6-1.2L198.8,29.9z M197.8,21.4l-1.9-1.4c-0.5-0.3-1.1-0.7-1.9-1.2l1.3-1.7l1.9,1c0.3,0.2,0.8,0.5,1.5,0.9
		c0.1,0.1,0.2,0.2,0.4,0.3L197.8,21.4z M198.8,27.6v-2h5.7v-3.8h-4.5V20h4.5v-3h2.1v3h5.7v1.9h-5.7v3.8h6.5v2h-6.7
		c-0.9,2.4-1.9,4.4-2.9,6.1c0.4,0,0.8-0.1,1.1-0.1c2.1-0.2,3.8-0.4,4.9-0.6l-0.9-1.6l-1.1-1.8l1.8-0.7c1.2,1.6,2.4,3.7,3.8,6.4
		c0.1,0.2,0.2,0.4,0.4,0.7l-2.1,1l-0.5-1.1c-0.2-0.4-0.4-0.8-0.5-1.1c-3,0.6-6.8,1-11.3,1.3l-0.5-2.3h1.4h0.9
		c1.3-2.1,2.4-4.2,3.3-6.2C204.1,27.7,198.8,27.7,198.8,27.6z"/>
	<path class="st4" d="M232.1,17v2.5c0,1.1,0.4,2.7,1.1,4.9c0.7,2.2,1.6,4.1,2.7,5.6c0.9,1.2,1.9,2.4,3.2,3.6s1.9,1.7,2.1,1.7l-1.5,2
		c-0.2,0-1.1-0.8-2.7-2.3c-1.6-1.6-2.8-3.1-3.6-4.5c-0.8-1.5-1.5-3.2-2.2-5.2c-0.7,2.4-1.4,4.3-2.2,5.8c-0.8,1.4-2,2.8-3.7,4.3
		s-2.6,2.1-2.9,2.1l-1.5-2c0.2,0,0.9-0.5,2.1-1.4c1.2-1,2.3-2,3.2-3.2c1.1-1.5,2-3.2,2.6-5.1s0.9-3.8,0.9-5.7v-2.8h2.4V17z"/>
	<path class="st4" d="M249.6,17.5h19.1v19.7h-2v-0.9h-15.1v0.9h-2V17.5z M251.6,19.1v15.4h15.1V19.1H251.6z M260.8,30.2
		c-0.6-1.8-1-3.9-1.2-6.2c0-0.2,0-0.4-0.1-0.7h-7.1v-1.7h7.1v-1.8h1.8v1.8h4.6v1.7h-4.6c0.1,2.3,0.4,4,0.8,5.1
		c0.1-0.2,0.1-0.3,0.2-0.4c0.7-1.3,1.1-2.4,1.4-3.3c0-0.2,0.1-0.4,0.2-0.7l1.5,0.9c-0.7,2.2-1.6,4-2.5,5.5c0.5,1,0.9,1.6,1.1,1.6
		s0.5-0.9,0.9-2.6l1.5,1.3c-0.5,1.4-0.9,2.3-1.2,2.8c-0.3,0.5-0.8,0.7-1.3,0.7c-0.7,0-1.5-0.7-2.3-2.1c-0.1,0.2-0.2,0.3-0.3,0.4
		c-0.5,0.7-1.2,1.4-1.9,2l-1.4-1.5l0.8-0.6c0.4-0.3,0.6-0.5,0.8-0.8c-1.6,0.4-3.9,0.9-7,1.4l-0.3-1.8c2.8-0.2,5.4-0.6,7.6-1.2v1.4
		L260.8,30.2z M253.1,24.5h5.5v5h-5.5V24.5z M256.8,26h-2.2v1.9h2.2V26z M263.8,21.5c-0.1-0.1-0.1-0.2-0.1-0.3
		c-0.3-0.7-0.6-1.2-0.9-1.5l-0.1-0.1l1.5-0.5c0.2,0.2,0.5,0.5,0.6,0.8l0.6,1L263.8,21.5z"/>
	<path class="st4" d="M282.7,21.8c1.5-1.1,2.6-2.7,3.4-4.8l1.8,0.2l-0.4,1h3.2c0.1,0.3,0.2,0.5,0.2,0.7c0.5,1.4,1.2,2.6,1.9,3.5
		c0.1-0.1,0.2-0.2,0.3-0.3c0.4-0.5,0.9-1.2,1.3-2l0.1-0.2h-2.6v-1.7h4.6v1.6c-0.6,1.5-1.4,2.9-2.5,4.1l0.2,0.2
		c0.7,0.7,1.6,1.4,2.9,2.1L296,28c-0.1-0.1-0.2-0.1-0.2-0.1c-0.8-0.5-1.5-1.1-2.2-1.8v1h-6.6V26l-1.3,1.1c-0.5,0.4-0.9,0.7-1.3,0.9
		l-1.4-1.5c0.2-0.1,0.4-0.2,0.5-0.3c0.8-0.4,1.4-0.8,2-1.3c0,0,0.1-0.1,0.2-0.2l-0.8-0.6l-0.8-0.5l1-1l0.8,0.6l0.7,0.6l0.5-0.5
		l0.4-0.5l-0.8-0.6c-0.2-0.1-0.4-0.3-0.7-0.4c0,0-0.1,0-0.2-0.1l0.8-1.1l0.9,0.5c0.2,0.1,0.3,0.2,0.5,0.4c0,0,0.1,0.1,0.2,0.2
		l0.5-0.9l0.3-0.9h-2.4c-0.9,1.6-2,2.8-3.3,3.6l-0.7-1.4l-1,2.8c0.1,0.1,0.1,0.2,0.2,0.3c1.1,1.8,1.7,3.3,1.7,4.6
		c0,1.7-0.9,2.6-2.8,2.6h-0.4c0,0-0.1,0-0.2,0l-0.5-2c0.1,0,0.1,0,0.2,0c0.3,0.1,0.6,0.1,0.8,0.1c0.7,0,1.1-0.3,1.1-1
		c0-0.5-0.2-1.2-0.6-2.1c-0.4-0.9-0.8-1.7-1.3-2.4c0.6-1.5,1.2-3.1,1.6-4.7c0.1-0.2,0.1-0.5,0.2-0.8h-2.1v17.8h-1.9V17.8h6V19
		l-0.4,1.3c-0.2,0.5-0.3,0.8-0.3,1S282.8,21.5,282.7,21.8z M287.7,31.8c-1.2,1.7-2.6,3.1-4.3,4.2l-1.5-1.5c2-1.3,3.4-2.6,4.2-3.7
		L287.7,31.8z M291.2,34.3v0.3c0,0.8-0.2,1.4-0.5,1.7s-1,0.5-2,0.5h-1.4l-0.5-2l1.7,0.1c0.5,0,0.7-0.2,0.7-0.7v-3.9h-5.1v-1.8h12.4
		v1.8h-5.3V34.3z M290.2,21c-0.5,1.7-1.4,3.1-2.6,4.1h5.2C291.8,24.4,291,23,290.2,21z M295.8,36c-0.7-0.9-1.3-1.6-1.8-2.1l-1.8-2
		l1.5-1c1.4,1.1,2.6,2.3,3.6,3.7L295.8,36z"/>
	<path class="st4" d="M309.2,25.2v-1.6c-0.5,0.3-1,0.6-1.6,0.8l-1.7,0.7l-1.1-2.1c3.7-1.2,6.7-3.2,9-6h2.2c2.1,2.5,5.1,4.5,9,5.9
		l-1.1,2.2l-1.5-0.6c-0.7-0.3-1.2-0.6-1.5-0.8v1.5H309.2z M307.5,27.8h15.1v9.4h-2.2v-1.3h-10.7v1.3h-2.2V27.8z M320.3,29.6h-10.7
		V34h10.7V29.6z M320.2,23.2c-0.5-0.3-0.8-0.5-1.1-0.7c-1.5-1-2.9-2.2-4.2-3.7c-1.6,1.7-3.3,3.2-5.1,4.4
		C309.8,23.2,320.2,23.2,320.2,23.2z"/>
	<path class="st4" d="M332.8,25.5c2.1-2.4,3.9-5.3,5.3-8.5l1.9,1l-1,2.1c-0.2,0.5-0.6,1.1-1.1,1.9v15.3h-2.1V25l-1.1,1.6
		c-0.2,0.3-0.5,0.6-0.7,0.9l-0.2,0.2L332.8,25.5z M353,20v2h-7.6v3h6.5v2h-6.5v3.3h6.9v2h-6.9v4.9h-2.1V22H343
		c-0.9,1.7-2,3.3-3.4,4.8l-1.5-1.6c1.8-1.8,3.4-4.5,4.8-8.2l2,0.5c-0.1,0.2-0.1,0.3-0.1,0.4c-0.1,0.4-0.2,0.7-0.4,1l-0.5,1.1L353,20
		L353,20z"/>
	<path class="st4" d="M370.8,19.8c-0.7,0.9-1.4,1.5-2.1,2.1s-2,1-3.7,1.6h4.3v5.1H365l-0.2,2h4.8l-0.2,3c0,0.9-0.1,1.6-0.3,2.1
		s-0.5,0.8-1,1.1c-0.4,0.2-1.6,0.3-3.5,0.3h-0.3H364c-0.5,0-0.9,0-1,0l-0.6-1.9c0.3,0,0.6,0,0.8,0c1.5,0.1,2.4,0.1,2.8,0.1
		c0.9,0,1.4-0.3,1.4-1c0-0.3,0.1-0.8,0.1-1.5c0-0.1,0-0.3,0-0.5h-4.9l0.6-5.1h4.1v-2h-4v-0.9l-1.3,0.4l-1.1-1.8l1.6-0.3
		c0.4-0.1,0.9-0.2,1.5-0.5l-0.7-0.7l-0.8-0.8l1.6-0.9c0.1,0.1,0.2,0.2,0.3,0.2c0.7,0.6,1.2,1.1,1.4,1.5c1.1-0.3,2.1-0.9,3.1-1.9
		h-5.5v-1.7h7.7c0.5,0.6,1.1,1.3,1.8,1.8c0.1-0.1,0.2-0.2,0.3-0.3c0.5-0.4,0.9-0.9,1.4-1.5c0,0,0.1-0.1,0.2-0.2l1.7,1l-0.9,1
		l-1.1,1.1l0.8,0.4l0.8,0.4l0.4-0.4c0.6-0.7,1.1-1.2,1.4-1.7c0-0.1,0.1-0.1,0.2-0.2l1.7,0.9c-0.1,0.2-0.2,0.3-0.3,0.4
		c-0.4,0.5-0.8,1-1.2,1.4l-0.3,0.3c0.1,0,0.2,0.1,0.2,0.1c0.8,0.3,1.6,0.5,2.3,0.6c0.1,0,0.1,0,0.2,0l-0.9,1.9l-1.1-0.3l-1.1-0.4
		v1.7c0,0.4,0.1,0.7,0.2,0.8c0.2,0.1,0.5,0.2,0.9,0.2h1.4v1.6h-2.6c-1.3,0-1.9-0.5-1.9-1.6v-1.5h-2c0,1.3-0.8,2.6-2.4,3.6l-1.7-1.3
		c1.4-0.6,2.2-1.7,2.2-3.2v-0.8h5C374.5,22.8,372.5,21.5,370.8,19.8z M379.5,30.4c-0.8,1.5-1.8,2.7-2.9,3.7c0.9,0.5,2.3,0.9,4.2,1.3
		l-1.2,1.8c-1.6-0.4-3.1-1.1-4.6-1.8c-1.1,0.7-2.4,1.2-3.7,1.7c-0.1,0-0.3,0.1-0.4,0.1l-1.3-1.7c1.7-0.4,2.9-0.8,3.7-1.3
		c-0.3-0.2-0.7-0.6-1.2-1.1l-1.2-1.2l1.7-0.8l1.2,1.1c0.4,0.3,0.8,0.7,1.3,1c1-0.7,1.7-1.5,2.2-2.4h-6.5v-1.7h8.9v1.3H379.5z"/>
	<path class="st4" d="M404.8,22.9v1.8h3.4v1.7h-3.4v1.9h4.1V30h-7.2c0.1,0.2,0.2,0.3,0.2,0.4c0.3,0.6,0.8,1.2,1.4,1.9
		c1.3-0.8,2.3-1.6,2.8-2.3l1.4,1.3c-0.7,0.7-1.6,1.4-2.8,2.2l0.3,0.2c0.9,0.5,1.9,1,3.1,1.3c0.2,0.1,0.4,0.1,0.7,0.2l-0.8,1.9
		c-4.2-1.2-7-3.5-8.5-7.1h-2.4v4.5l2-0.4c0.5-0.1,1.1-0.3,1.9-0.6v2.2c-2.1,0.5-4.5,0.9-7.2,1.2c-0.2,0-0.5,0-0.8,0.1l-0.3-2L394,35
		l1.2-0.1v-4.8h-2.9l-0.2,1.1c-0.4,1.9-1,3.8-1.8,5.7l-1.7-1.8c1.4-2.9,2.1-6.5,2.1-10.8c0-0.2,0-0.4,0-0.6s0-0.3,0-0.5v-5.7h17.4
		V23h-3.2V22.9z M392.8,22.9v1.3c0,0.2,0,0.6,0,1c0,0.5,0,0.8,0,1.1l-0.1,1.9h3.8v-1.9h-3.1v-1.7h3.1v-1.8h-3.7V22.9z M392.8,21
		h13.4v-1.8h-13.4V21z M398.2,22.9v1.8h4.6v-1.8H398.2z M402.8,28.2v-1.9h-4.6v1.9H402.8z"/>
	<path class="st4" d="M420.8,31.6c-0.1,0-0.1,0.1-0.2,0.1c-1.2,0.7-2.1,1.3-2.9,1.6l-1.1-1.9c2.1-0.7,3.9-1.6,5.2-2.8h-5.3v-1.8h3.6
		v-6.7H417v-1.8h3.2v-1.5h2.1v1.5h8.9v-1.5h2.1v1.5h3.3v1.8h-3.3v6.7h3.6v1.8h-5.3c1.6,1.3,3.4,2.1,5.3,2.6l-0.9,2
		c-0.9-0.3-2-0.8-3.2-1.5v1.4h-4.9v1.6h8v1.8h-18.1v-1.8h8V33h-4.9L420.8,31.6L420.8,31.6z M425.8,31.4v-1.9h2.1v1.9h4.3
		c-1.1-0.8-2.1-1.7-3.1-2.8h-4.7c-0.7,0.9-1.5,1.6-2.4,2.3c-0.1,0.1-0.3,0.2-0.5,0.4h4.3V31.4z M422.2,26.9h8.9v-1.3h-8.9V26.9z
		 M422.2,21.2h8.9v-1.1h-8.9V21.2z M422.2,24h8.9v-1.3h-8.9V24z"/>
	<path class="st4" d="M449.5,34.5c-0.7-1.9-1.2-3.2-1.7-3.9l2-0.7c0.6,1.2,1.1,2.5,1.6,3.7l0.3,0.9h1.9v-5.7h-7.9v-1.9h7.9v-2.4
		h-4.8v-1l-1.4,0.7l-1.6,0.8l-1.2-2c4.1-1.7,7.1-3.8,9-6.2h1.9c2.6,2.4,5.7,4.4,9.4,6.1l-1.3,1.9l-1.5-0.7c-0.7-0.4-1.2-0.6-1.4-0.8
		v1.1h-4.9v2.4h8v1.9h-8v5.7h1.9c0.7-1.5,1.3-3.1,1.9-4.8l2,0.8c-0.1,0.2-0.2,0.4-0.2,0.5c-0.5,1.3-1,2.5-1.5,3.5h4.2v1.9h-19.1
		v-1.9h4.5V34.5z M454.5,19c-1.5,1.6-2.9,2.8-4.4,3.7h9.2C457.8,21.5,456.2,20.4,454.5,19z"/>
	<path class="st4" d="M473.3,23.4l-0.9-1.9c3.9-1.5,6.9-2.9,9-4.4h2.1c2.7,1.6,5.7,3,9.1,4.2l-0.8,2l-0.7-0.3v5.7H474V23L473.3,23.4
		z M474.7,22.8h16.2l-2.1-0.9l-2.1-1v1H479v-1.1C477.8,21.4,476.3,22,474.7,22.8z M475,29.6h15.2v7.5h-2v-0.7h-11.1v0.7h-2v-7.5H475
		z M481.7,24.2H476v2.9h5.6V24.2z M477.2,32.3h11.1v-1.2h-11.1V32.3z M477.2,35h11.1v-1.3h-11.1V35z M478.8,27.1L478,26
		c-0.3-0.5-0.5-0.8-0.7-1l1.3-0.7c0.3,0.3,0.5,0.6,0.8,1l0.7,1L478.8,27.1z M482.7,18.5c-0.9,0.6-1.7,1.1-2.6,1.5
		c-0.1,0.1-0.3,0.1-0.5,0.3h6.2C484.7,19.8,483.7,19.1,482.7,18.5z M489.3,24.2h-5.8v2.9h5.8V24.2z M485,26.1
		c0.1-0.1,0.3-0.4,0.7-0.9l0.7-1l1.4,0.7l-0.7,1.2c-0.3,0.4-0.5,0.7-0.6,0.9L485,26.1z"/>
</g>
<g>
	<path class="st5" d="M137.3,57.8V47h2.2v10.7L137.3,57.8L137.3,57.8z"/>
	<path class="st5" d="M148.6,57.8h-2.1v-4c0-0.8,0-1.4-0.1-1.6c-0.1-0.2-0.2-0.4-0.4-0.6c-0.2-0.1-0.4-0.2-0.7-0.2
		c-0.4,0-0.7,0.1-1,0.3s-0.5,0.5-0.6,0.8s-0.2,0.9-0.2,1.8v3.5h-2.1V50h1.9v1.1c0.7-0.9,1.5-1.3,2.6-1.3c0.5,0,0.9,0.1,1.2,0.2
		c0.4,0.2,0.7,0.4,0.9,0.6c0.2,0.3,0.3,0.5,0.4,0.9s0.1,0.8,0.1,1.4v4.9H148.6z"/>
	<path class="st5" d="M154.4,50v1.6h-1.4v3.1c0,0.6,0,1,0,1.1s0.1,0.2,0.2,0.3c0.1,0.1,0.2,0.1,0.3,0.1c0.2,0,0.5-0.1,0.8-0.2
		l0.2,1.6c-0.5,0.2-1,0.3-1.6,0.3c-0.4,0-0.7-0.1-1-0.2c-0.3-0.1-0.5-0.3-0.7-0.5c-0.1-0.2-0.2-0.5-0.3-0.8c0-0.2-0.1-0.7-0.1-1.5
		v-3.4h-0.9v-1.6h0.9v-1.5l2.1-1.2v2.7h1.5V50z"/>
	<path class="st5" d="M160.4,55.3l2.1,0.3c-0.3,0.8-0.7,1.3-1.2,1.7c-0.6,0.4-1.3,0.6-2.1,0.6c-1.4,0-2.4-0.4-3-1.3
		c-0.5-0.7-0.8-1.6-0.8-2.7c0-1.3,0.3-2.3,1-3s1.5-1.1,2.6-1.1c1.2,0,2.1,0.4,2.7,1.1s1,1.9,1,3.5h-5.3c0,0.6,0.2,1.1,0.5,1.4
		s0.7,0.5,1.2,0.5c0.3,0,0.6-0.1,0.8-0.3S160.3,55.8,160.4,55.3z M160.6,53.2c0-0.6-0.2-1-0.5-1.4s-0.6-0.5-1.1-0.5
		c-0.4,0-0.8,0.2-1.1,0.5s-0.4,0.8-0.4,1.3h3.1V53.2z"/>
	<path class="st5" d="M166.3,57.8h-2.1V50h1.9v1.1c0.3-0.5,0.6-0.9,0.9-1c0.3-0.2,0.6-0.2,0.9-0.2c0.5,0,0.9,0.1,1.4,0.4l-0.6,1.8
		c-0.3-0.2-0.7-0.3-1-0.3s-0.5,0.1-0.7,0.2s-0.4,0.4-0.5,0.9s-0.2,1.3-0.2,2.6L166.3,57.8L166.3,57.8z"/>
	<path class="st5" d="M177.3,57.8h-2.1v-4c0-0.8,0-1.4-0.1-1.6c-0.1-0.2-0.2-0.4-0.4-0.6c-0.2-0.1-0.4-0.2-0.7-0.2
		c-0.4,0-0.7,0.1-1,0.3s-0.5,0.5-0.6,0.8s-0.2,0.9-0.2,1.8v3.5h-2.1V50h1.9v1.1c0.7-0.9,1.5-1.3,2.6-1.3c0.5,0,0.9,0.1,1.2,0.2
		c0.4,0.2,0.7,0.4,0.9,0.6c0.2,0.3,0.3,0.5,0.4,0.9s0.1,0.8,0.1,1.4v4.9H177.3z"/>
	<path class="st5" d="M181.1,52.5l-1.9-0.3c0.2-0.8,0.6-1.3,1.1-1.7s1.3-0.5,2.3-0.5c0.9,0,1.6,0.1,2.1,0.3s0.8,0.5,0.9,0.8
		c0.2,0.3,0.3,0.9,0.3,1.8v2.4c0,0.7,0,1.2,0.1,1.5s0.2,0.7,0.4,1h-2c-0.1-0.1-0.1-0.3-0.2-0.6c0-0.1-0.1-0.2-0.1-0.2
		c-0.4,0.3-0.7,0.6-1.1,0.8s-0.8,0.3-1.3,0.3c-0.8,0-1.4-0.2-1.9-0.7c-0.5-0.4-0.7-1-0.7-1.6c0-0.4,0.1-0.8,0.3-1.2
		c0.2-0.3,0.5-0.6,0.9-0.8s0.9-0.3,1.6-0.5c1-0.2,1.6-0.3,2-0.5v-0.2c0-0.4-0.1-0.7-0.3-0.8c-0.2-0.2-0.6-0.3-1.1-0.3
		c-0.4,0-0.7,0.1-0.9,0.2S181.1,52,181.1,52.5z M183.8,54c-0.3,0.1-0.7,0.2-1.3,0.3s-0.9,0.2-1.1,0.4c-0.3,0.2-0.4,0.4-0.4,0.7
		s0.1,0.5,0.3,0.7s0.5,0.3,0.8,0.3c0.4,0,0.7-0.1,1.1-0.4c0.2-0.2,0.4-0.4,0.5-0.7c0.1-0.2,0.1-0.5,0.1-1L183.8,54L183.8,54z"/>
	<path class="st5" d="M191.4,50v1.6h-1.4v3.1c0,0.6,0,1,0,1.1s0.1,0.2,0.2,0.3c0.1,0.1,0.2,0.1,0.3,0.1c0.2,0,0.5-0.1,0.8-0.2
		l0.2,1.6c-0.5,0.2-1,0.3-1.6,0.3c-0.4,0-0.7-0.1-1-0.2c-0.3-0.1-0.5-0.3-0.7-0.5c-0.1-0.2-0.2-0.5-0.3-0.8c0-0.2-0.1-0.7-0.1-1.5
		v-3.4h-0.9v-1.6h0.9v-1.5l2.1-1.2v2.7h1.5V50z"/>
	<path class="st5" d="M192.9,49V47h2.1V49H192.9z M192.9,57.8V50h2.1v7.8H192.9z"/>
	<path class="st5" d="M196.8,53.8c0-0.7,0.2-1.3,0.5-2s0.8-1.1,1.4-1.5c0.6-0.3,1.3-0.5,2.1-0.5c1.2,0,2.1,0.4,2.9,1.1
		s1.1,1.7,1.1,2.9s-0.4,2.2-1.1,2.9c-0.8,0.8-1.7,1.2-2.9,1.2c-0.7,0-1.4-0.2-2-0.5s-1.1-0.8-1.5-1.4
		C196.9,55.5,196.8,54.8,196.8,53.8z M198.8,54c0,0.8,0.2,1.4,0.5,1.8s0.8,0.6,1.4,0.6s1-0.2,1.4-0.6c0.4-0.4,0.5-1,0.5-1.8
		s-0.2-1.3-0.5-1.8c-0.4-0.4-0.8-0.6-1.4-0.6s-1,0.2-1.4,0.6S198.8,53.2,198.8,54z"/>
	<path class="st5" d="M213.6,57.8h-2.1v-4c0-0.8,0-1.4-0.1-1.6c-0.1-0.2-0.2-0.4-0.4-0.6c-0.2-0.1-0.4-0.2-0.7-0.2
		c-0.4,0-0.7,0.1-1,0.3s-0.5,0.5-0.6,0.8s-0.2,0.9-0.2,1.8v3.5h-2V50h1.9v1.1c0.7-0.9,1.5-1.3,2.6-1.3c0.5,0,0.9,0.1,1.2,0.2
		c0.4,0.2,0.7,0.4,0.9,0.6c0.2,0.3,0.3,0.5,0.4,0.9s0.1,0.8,0.1,1.4L213.6,57.8L213.6,57.8z"/>
	<path class="st5" d="M217.2,52.5l-1.9-0.3c0.2-0.8,0.6-1.3,1.1-1.7s1.3-0.5,2.3-0.5c0.9,0,1.6,0.1,2.1,0.3s0.8,0.5,0.9,0.8
		c0.2,0.3,0.3,0.9,0.3,1.8v2.4c0,0.7,0,1.2,0.1,1.5s0.2,0.7,0.4,1h-2c-0.1-0.1-0.1-0.3-0.2-0.6c0-0.1-0.1-0.2-0.1-0.2
		c-0.4,0.3-0.7,0.6-1.1,0.8s-0.8,0.3-1.3,0.3c-0.8,0-1.4-0.2-1.9-0.7c-0.5-0.4-0.7-1-0.7-1.6c0-0.4,0.1-0.8,0.3-1.2
		c0.2-0.3,0.5-0.6,0.9-0.8s0.9-0.3,1.6-0.5c1-0.2,1.6-0.3,2-0.5v-0.2c0-0.4-0.1-0.7-0.3-0.8c-0.2-0.2-0.6-0.3-1.1-0.3
		c-0.4,0-0.7,0.1-0.9,0.2S217.3,52,217.2,52.5z M219.9,54c-0.3,0.1-0.7,0.2-1.3,0.3s-0.9,0.2-1.1,0.4c-0.3,0.2-0.4,0.4-0.4,0.7
		s0.1,0.5,0.3,0.7s0.5,0.3,0.8,0.3c0.4,0,0.7-0.1,1.1-0.4c0.2-0.2,0.4-0.4,0.5-0.7c0.1-0.2,0.1-0.5,0.1-1L219.9,54L219.9,54z"/>
	<path class="st5" d="M224.1,57.8V47h2.1v10.7L224.1,57.8L224.1,57.8z"/>
	<path class="st5" d="M239.4,53.8l2.1,0.7c-0.3,1.2-0.9,2-1.6,2.6c-0.8,0.6-1.7,0.9-2.9,0.9c-1.4,0-2.6-0.5-3.5-1.5s-1.4-2.3-1.4-4
		c0-1.8,0.5-3.2,1.4-4.2s2.1-1.5,3.6-1.5c1.3,0,2.4,0.4,3.2,1.2c0.5,0.5,0.9,1.1,1.1,2l-2.1,0.5c-0.1-0.6-0.4-1-0.8-1.3
		c-0.4-0.3-0.9-0.5-1.5-0.5c-0.8,0-1.4,0.3-1.9,0.9s-0.7,1.5-0.7,2.8c0,1.4,0.2,2.3,0.7,2.9s1.1,0.9,1.9,0.9c0.6,0,1.1-0.2,1.5-0.5
		S239.3,54.7,239.4,53.8z"/>
	<path class="st5" d="M243.1,53.8c0-0.7,0.2-1.3,0.5-2s0.8-1.1,1.4-1.5c0.6-0.3,1.3-0.5,2.1-0.5c1.2,0,2.1,0.4,2.9,1.1
		s1.1,1.7,1.1,2.9s-0.4,2.2-1.1,2.9c-0.8,0.8-1.7,1.2-2.9,1.2c-0.7,0-1.4-0.2-2-0.5s-1.1-0.8-1.5-1.4
		C243.2,55.5,243.1,54.8,243.1,53.8z M245.1,54c0,0.8,0.2,1.4,0.5,1.8s0.8,0.6,1.4,0.6s1-0.2,1.4-0.6c0.4-0.4,0.5-1,0.5-1.8
		s-0.2-1.3-0.5-1.8c-0.4-0.4-0.8-0.6-1.4-0.6s-1,0.2-1.4,0.6S245.1,53.2,245.1,54z"/>
	<path class="st5" d="M252.2,53.8c0-0.7,0.2-1.3,0.5-2s0.8-1.1,1.4-1.5c0.6-0.3,1.3-0.5,2.1-0.5c1.2,0,2.1,0.4,2.9,1.1
		c0.8,0.7,1.1,1.7,1.1,2.9s-0.4,2.2-1.1,2.9c-0.8,0.8-1.7,1.2-2.9,1.2c-0.7,0-1.4-0.2-2-0.5s-1.1-0.8-1.5-1.4
		C252.4,55.5,252.2,54.8,252.2,53.8z M254.3,54c0,0.8,0.2,1.4,0.5,1.8s0.8,0.6,1.4,0.6c0.6,0,1-0.2,1.4-0.6c0.4-0.4,0.5-1,0.5-1.8
		s-0.2-1.3-0.5-1.8c-0.4-0.4-0.8-0.6-1.4-0.6c-0.6,0-1,0.2-1.4,0.6S254.3,53.2,254.3,54z"/>
	<path class="st5" d="M262,50h1.9v1.1c0.2-0.4,0.6-0.7,1-1c0.4-0.3,0.9-0.4,1.4-0.4c0.9,0,1.7,0.4,2.3,1.1s0.9,1.7,0.9,3
		s-0.3,2.3-1,3s-1.4,1.1-2.3,1.1c-0.4,0-0.8-0.1-1.2-0.3c-0.3-0.2-0.7-0.5-1.1-0.9v4h-2.1V50H262z M264,53.8c0,0.9,0.2,1.5,0.5,1.9
		s0.8,0.6,1.3,0.6s0.9-0.2,1.2-0.6c0.3-0.4,0.5-1,0.5-1.9c0-0.8-0.2-1.4-0.5-1.8s-0.7-0.6-1.2-0.6s-0.9,0.2-1.3,0.6
		C264.2,52.5,264,53,264,53.8z"/>
	<path class="st5" d="M275.8,55.3l2.1,0.3c-0.3,0.8-0.7,1.3-1.2,1.7c-0.6,0.4-1.3,0.6-2.1,0.6c-1.4,0-2.4-0.4-3-1.3
		c-0.5-0.7-0.8-1.6-0.8-2.7c0-1.3,0.3-2.3,1-3s1.5-1.1,2.6-1.1c1.2,0,2.1,0.4,2.7,1.1c0.6,0.7,1,1.9,1,3.5h-5.2
		c0,0.6,0.2,1.1,0.5,1.4s0.7,0.5,1.2,0.5c0.3,0,0.6-0.1,0.8-0.3C275.5,55.8,275.7,55.8,275.8,55.3z M275.8,53.2c0-0.6-0.2-1-0.5-1.4
		s-0.6-0.5-1.1-0.5c-0.4,0-0.8,0.2-1.1,0.5c-0.3,0.3-0.4,0.8-0.4,1.3h3.1V53.2z"/>
	<path class="st5" d="M281.7,57.8h-2.1V50h1.9v1.1c0.3-0.5,0.6-0.9,0.9-1c0.3-0.2,0.6-0.2,0.9-0.2c0.5,0,0.9,0.1,1.4,0.4l-0.6,1.8
		c-0.3-0.2-0.7-0.3-1-0.3s-0.5,0.1-0.7,0.2s-0.4,0.4-0.5,0.9c-0.1,0.4-0.2,1.3-0.2,2.6L281.7,57.8L281.7,57.8z"/>
	<path class="st5" d="M287,52.5l-1.9-0.3c0.2-0.8,0.6-1.3,1.1-1.7s1.3-0.5,2.3-0.5c0.9,0,1.6,0.1,2.1,0.3s0.8,0.5,0.9,0.8
		c0.2,0.3,0.3,0.9,0.3,1.8v2.4c0,0.7,0,1.2,0.1,1.5c0.1,0.3,0.2,0.7,0.4,1h-2c-0.1-0.1-0.1-0.3-0.2-0.6c0-0.1-0.1-0.2-0.1-0.2
		c-0.4,0.3-0.7,0.6-1.1,0.8c-0.4,0.2-0.8,0.3-1.3,0.3c-0.8,0-1.4-0.2-1.9-0.7c-0.5-0.4-0.7-1-0.7-1.6c0-0.4,0.1-0.8,0.3-1.2
		c0.2-0.3,0.5-0.6,0.9-0.8c0.4-0.2,0.9-0.3,1.6-0.5c1-0.2,1.6-0.3,2-0.5v-0.2c0-0.4-0.1-0.7-0.3-0.8c-0.2-0.2-0.6-0.3-1.1-0.3
		c-0.4,0-0.7,0.1-0.9,0.2C287.3,51.8,287.2,52,287,52.5z M289.8,54c-0.3,0.1-0.7,0.2-1.3,0.3s-0.9,0.2-1.1,0.4
		c-0.3,0.2-0.4,0.4-0.4,0.7s0.1,0.5,0.3,0.7c0.2,0.2,0.5,0.3,0.8,0.3c0.4,0,0.7-0.1,1.1-0.4c0.2-0.2,0.4-0.4,0.5-0.7
		c0.1-0.2,0.1-0.5,0.1-1V54z"/>
	<path class="st5" d="M297.5,50v1.6h-1.4v3.1c0,0.6,0,1,0,1.1s0.1,0.2,0.2,0.3c0.1,0.1,0.2,0.1,0.3,0.1c0.2,0,0.5-0.1,0.8-0.2
		l0.2,1.6c-0.5,0.2-1,0.3-1.6,0.3c-0.4,0-0.7-0.1-1-0.2c-0.3-0.1-0.5-0.3-0.7-0.5c-0.1-0.2-0.2-0.5-0.3-0.8c0-0.2-0.1-0.7-0.1-1.5
		v-3.4H293v-1.6h0.9v-1.5l2.1-1.2v2.7h1.5V50z"/>
	<path class="st5" d="M299,49V47h2.1V49H299z M299,57.8V50h2.1v7.8H299z"/>
	<path class="st5" d="M302.8,53.8c0-0.7,0.2-1.3,0.5-2s0.8-1.1,1.4-1.5c0.6-0.3,1.3-0.5,2.1-0.5c1.2,0,2.1,0.4,2.9,1.1
		s1.1,1.7,1.1,2.9s-0.4,2.2-1.1,2.9c-0.8,0.8-1.7,1.2-2.9,1.2c-0.7,0-1.4-0.2-2-0.5c-0.6-0.3-1.1-0.8-1.5-1.4
		C303,55.5,302.8,54.8,302.8,53.8z M305,54c0,0.8,0.2,1.4,0.5,1.8s0.8,0.6,1.4,0.6c0.6,0,1-0.2,1.4-0.6c0.4-0.4,0.5-1,0.5-1.8
		s-0.2-1.3-0.5-1.8c-0.4-0.4-0.8-0.6-1.4-0.6c-0.6,0-1,0.2-1.4,0.6C305,52.5,305,53.2,305,54z"/>
	<path class="st5" d="M319.5,57.8h-2.1v-4c0-0.8,0-1.4-0.1-1.6c-0.1-0.2-0.2-0.4-0.4-0.6c-0.2-0.1-0.4-0.2-0.7-0.2
		c-0.4,0-0.7,0.1-1,0.3s-0.5,0.5-0.6,0.8c-0.1,0.3-0.2,0.9-0.2,1.8v3.5h-2.1V50h1.9v1.1c0.7-0.9,1.5-1.3,2.6-1.3
		c0.5,0,0.9,0.1,1.2,0.2c0.4,0.2,0.7,0.4,0.9,0.6c0.2,0.3,0.3,0.5,0.4,0.9c0.1,0.4,0.1,0.8,0.1,1.4v4.9H319.5z"/>
	<path class="st5" d="M327.5,52.5l-1.9-0.3c0.2-0.8,0.6-1.3,1.1-1.7S328,50,329,50c0.9,0,1.6,0.1,2.1,0.3s0.8,0.5,0.9,0.8
		c0.2,0.3,0.3,0.9,0.3,1.8v2.4c0,0.7,0,1.2,0.1,1.5c0.1,0.3,0.2,0.7,0.4,1h-2c-0.1-0.1-0.1-0.3-0.2-0.6c0-0.1-0.1-0.2-0.1-0.2
		c-0.4,0.3-0.7,0.6-1.1,0.8c-0.4,0.2-0.8,0.3-1.3,0.3c-0.8,0-1.4-0.2-1.9-0.7c-0.5-0.4-0.7-1-0.7-1.6c0-0.4,0.1-0.8,0.3-1.2
		c0.2-0.3,0.5-0.6,0.9-0.8c0.4-0.2,0.9-0.3,1.6-0.5c1-0.2,1.6-0.3,2-0.5v-0.2c0-0.4-0.1-0.7-0.3-0.8c-0.2-0.2-0.6-0.3-1.1-0.3
		c-0.4,0-0.7,0.1-0.9,0.2C327.8,51.8,327.7,52,327.5,52.5z M330.2,54c-0.3,0.1-0.7,0.2-1.3,0.3s-0.9,0.2-1.1,0.4
		c-0.3,0.2-0.4,0.4-0.4,0.7s0.1,0.5,0.3,0.7c0.2,0.2,0.5,0.3,0.8,0.3c0.4,0,0.7-0.1,1.1-0.4c0.2-0.2,0.4-0.4,0.5-0.7
		c0.1-0.2,0.1-0.5,0.1-1V54z"/>
	<path class="st5" d="M341.5,57.8h-2v-4c0-0.8,0-1.4-0.1-1.6c-0.1-0.2-0.2-0.4-0.4-0.6c-0.2-0.1-0.4-0.2-0.7-0.2
		c-0.4,0-0.7,0.1-1,0.3s-0.5,0.5-0.6,0.8c-0.1,0.3-0.2,0.9-0.2,1.8v3.5h-2V50h1.9v1.1c0.7-0.9,1.5-1.3,2.6-1.3
		c0.5,0,0.9,0.1,1.2,0.2c0.4,0.2,0.7,0.4,0.9,0.6c0.2,0.3,0.3,0.5,0.4,0.9c0.1,0.3,0.1,0.8,0.1,1.4L341.5,57.8L341.5,57.8z"/>
	<path class="st5" d="M350.8,57.8h-1.9v-1.1c-0.3,0.4-0.7,0.8-1.1,1c-0.4,0.2-0.9,0.3-1.3,0.3c-0.9,0-1.7-0.4-2.3-1.1
		c-0.6-0.7-1-1.7-1-3s0.3-2.3,0.9-3c0.6-0.7,1.4-1,2.4-1c0.9,0,1.6,0.4,2.3,1.1v-3.9h2.1L350.8,57.8L350.8,57.8z M345.2,53.8
		c0,0.8,0.1,1.4,0.3,1.8c0.3,0.5,0.8,0.8,1.4,0.8c0.5,0,0.9-0.2,1.2-0.6c0.3-0.4,0.5-1,0.5-1.8c0-0.9-0.2-1.5-0.5-1.9
		s-0.7-0.6-1.2-0.6s-0.9,0.2-1.2,0.6C345.5,52.5,345.2,53,345.2,53.8z"/>
	<path class="st5" d="M357.2,47h4c0.9,0,1.6,0.1,2,0.2c0.6,0.2,1.2,0.5,1.6,1c0.4,0.5,0.8,1.1,1,1.7s0.4,1.5,0.4,2.5
		c0,0.9-0.1,1.6-0.3,2.3c-0.3,0.8-0.7,1.4-1.2,1.9c-0.4,0.4-0.9,0.7-1.5,0.9c-0.5,0.2-1.1,0.2-1.9,0.2h-4.1V47z M359.3,48.8v7.1h1.6
		c0.6,0,1,0,1.3-0.1c0.4-0.1,0.6-0.2,0.9-0.4c0.2-0.2,0.4-0.6,0.6-1s0.2-1.1,0.2-2s-0.1-1.5-0.2-1.9c-0.1-0.4-0.4-0.8-0.6-1
		s-0.6-0.4-1-0.5c-0.3-0.1-0.9-0.1-1.8-0.1L359.3,48.8L359.3,48.8z"/>
	<path class="st5" d="M372.5,55.3l2.1,0.3c-0.3,0.8-0.7,1.3-1.2,1.7c-0.6,0.4-1.3,0.6-2.1,0.6c-1.4,0-2.4-0.4-3-1.3
		c-0.5-0.7-0.8-1.6-0.8-2.7c0-1.3,0.3-2.3,1-3s1.5-1.1,2.6-1.1c1.2,0,2.1,0.4,2.7,1.1c0.6,0.7,1,1.9,1,3.5h-5.2
		c0,0.6,0.2,1.1,0.5,1.4c0.3,0.3,0.7,0.5,1.2,0.5c0.3,0,0.6-0.1,0.8-0.3C372.3,55.8,372.5,55.8,372.5,55.3z M372.7,53.2
		c0-0.6-0.2-1-0.5-1.4s-0.6-0.5-1.1-0.5s-0.8,0.2-1.1,0.5c-0.3,0.3-0.4,0.8-0.4,1.3h3.1V53.2z"/>
	<path class="st5" d="M378.5,57.8l-3.1-7.8h2.2l1.5,4l0.4,1.3c0.1-0.3,0.2-0.6,0.2-0.7c0.1-0.2,0.1-0.4,0.2-0.7l1.5-4h2.1l-3.1,7.8
		h-1.9V57.8z"/>
	<path class="st5" d="M389.3,55.3l2.1,0.3c-0.3,0.8-0.7,1.3-1.2,1.7c-0.6,0.4-1.3,0.6-2.1,0.6c-1.4,0-2.4-0.4-3-1.3
		c-0.5-0.7-0.8-1.6-0.8-2.7c0-1.3,0.3-2.3,1-3s1.5-1.1,2.6-1.1c1.2,0,2.1,0.4,2.7,1.1c0.6,0.7,1,1.9,1,3.5h-5.2
		c0,0.6,0.2,1.1,0.5,1.4c0.3,0.3,0.7,0.5,1.2,0.5c0.3,0,0.6-0.1,0.8-0.3C389.1,55.8,389.2,55.8,389.3,55.3z M389.5,53.2
		c0-0.6-0.2-1-0.5-1.4s-0.6-0.5-1.1-0.5s-0.8,0.2-1.1,0.5c-0.3,0.3-0.4,0.8-0.4,1.3h3.1V53.2z"/>
	<path class="st5" d="M393.2,57.8V47h2.1v10.7L393.2,57.8L393.2,57.8z"/>
	<path class="st5" d="M397,53.8c0-0.7,0.2-1.3,0.5-2c0.3-0.6,0.8-1.1,1.4-1.5c0.6-0.3,1.3-0.5,2.1-0.5c1.2,0,2.1,0.4,2.9,1.1
		s1.1,1.7,1.1,2.9s-0.4,2.2-1.1,2.9c-0.8,0.8-1.7,1.2-2.9,1.2c-0.7,0-1.4-0.2-2-0.5c-0.6-0.3-1.1-0.8-1.5-1.4
		C397.2,55.5,397,54.8,397,53.8z M399.2,54c0,0.8,0.2,1.4,0.5,1.8c0.4,0.4,0.8,0.6,1.4,0.6c0.6,0,1-0.2,1.4-0.6
		c0.4-0.4,0.5-1,0.5-1.8s-0.2-1.3-0.5-1.8c-0.4-0.4-0.8-0.6-1.4-0.6c-0.6,0-1,0.2-1.4,0.6C399.3,52.5,399.2,53.2,399.2,54z"/>
	<path class="st5" d="M406.8,50h1.9v1.1c0.2-0.4,0.6-0.7,1-1c0.4-0.2,0.9-0.4,1.4-0.4c0.9,0,1.7,0.4,2.3,1.1s0.9,1.7,0.9,3
		s-0.3,2.3-1,3c-0.6,0.7-1.4,1.1-2.3,1.1c-0.4,0-0.8-0.1-1.2-0.3c-0.3-0.2-0.7-0.5-1.1-0.9v4h-2.1V50H406.8z M408.8,53.8
		c0,0.9,0.2,1.5,0.5,1.9s0.8,0.6,1.3,0.6s0.9-0.2,1.2-0.6c0.3-0.4,0.5-1,0.5-1.9c0-0.8-0.2-1.4-0.5-1.8s-0.7-0.6-1.2-0.6
		s-0.9,0.2-1.3,0.6C409,52.5,408.8,53,408.8,53.8z"/>
	<path class="st5" d="M415.8,50h1.9v1.1c0.7-0.8,1.5-1.2,2.4-1.2c0.5,0,0.9,0.1,1.3,0.3c0.4,0.2,0.7,0.5,0.9,0.9
		c0.3-0.4,0.7-0.7,1.1-0.9c0.4-0.2,0.8-0.3,1.3-0.3c0.6,0,1.1,0.1,1.5,0.3c0.4,0.2,0.7,0.6,0.9,1c0.1,0.3,0.2,0.9,0.2,1.6v5h-2.1
		v-4.4c0-0.8-0.1-1.3-0.2-1.5c-0.2-0.3-0.5-0.4-0.9-0.4c-0.3,0-0.6,0.1-0.8,0.3c-0.2,0.2-0.4,0.4-0.5,0.8c-0.1,0.4-0.2,0.9-0.2,1.6
		v3.7h-2.1v-4.3c0-0.8,0-1.2-0.1-1.5c-0.1-0.2-0.2-0.4-0.3-0.5c-0.2-0.1-0.4-0.2-0.6-0.2c-0.3,0-0.6,0.1-0.9,0.3s-0.4,0.4-0.5,0.7
		c-0.1,0.3-0.2,0.9-0.2,1.6v3.8h-2.1L415.8,50L415.8,50z"/>
	<path class="st5" d="M434,55.3l2.1,0.3c-0.3,0.8-0.7,1.3-1.2,1.7c-0.6,0.4-1.3,0.6-2.1,0.6c-1.4,0-2.4-0.4-3-1.3
		c-0.5-0.7-0.8-1.6-0.8-2.7c0-1.3,0.3-2.3,1-3s1.5-1.1,2.6-1.1c1.2,0,2.1,0.4,2.7,1.1c0.6,0.7,1,1.9,1,3.5H431
		c0,0.6,0.2,1.1,0.5,1.4c0.3,0.3,0.7,0.5,1.2,0.5c0.3,0,0.6-0.1,0.8-0.3C433.8,55.8,433.8,55.8,434,55.3z M434,53.2
		c0-0.6-0.2-1-0.5-1.4s-0.6-0.5-1.1-0.5s-0.8,0.2-1.1,0.5c-0.3,0.3-0.4,0.8-0.4,1.3h3.1V53.2z"/>
	<path class="st5" d="M445,57.8h-2.1v-4c0-0.8,0-1.4-0.1-1.6c-0.1-0.2-0.2-0.4-0.4-0.6c-0.2-0.1-0.4-0.2-0.7-0.2
		c-0.4,0-0.7,0.1-1,0.3s-0.5,0.5-0.6,0.8c-0.1,0.3-0.2,0.9-0.2,1.8v3.5h-2.1V50h1.9v1.1c0.7-0.9,1.5-1.3,2.6-1.3
		c0.5,0,0.9,0.1,1.2,0.2c0.4,0.2,0.7,0.4,0.9,0.6c0.2,0.3,0.3,0.5,0.4,0.9c0.1,0.3,0.1,0.8,0.1,1.4v4.9H445z"/>
	<path class="st5" d="M450.7,50v1.6h-1.4v3.1c0,0.6,0,1,0,1.1s0.1,0.2,0.2,0.3c0.1,0.1,0.2,0.1,0.3,0.1c0.2,0,0.5-0.1,0.8-0.2
		l0.2,1.6c-0.5,0.2-1,0.3-1.6,0.3c-0.4,0-0.7-0.1-1-0.2c-0.3-0.1-0.5-0.3-0.7-0.5c-0.1-0.2-0.2-0.5-0.3-0.8c0-0.2-0.1-0.7-0.1-1.5
		v-3.4h-0.9v-1.6h0.9v-1.5l2.1-1.2v2.7h1.5V50z"/>
	<path class="st5" d="M456.5,57.8V47h7.4v1.8h-5.2v2.5h4.5v1.8h-4.5v4.6h-2.2V57.8z"/>
	<path class="st5" d="M470.8,57.8v-1.2c-0.3,0.4-0.7,0.7-1.1,1c-0.5,0.2-0.9,0.4-1.5,0.4c-0.5,0-1-0.1-1.4-0.3
		c-0.4-0.2-0.7-0.6-0.9-1c-0.2-0.4-0.3-1-0.3-1.7v-4.9h2.1v3.6c0,1.1,0,1.8,0.1,2c0.1,0.2,0.2,0.4,0.4,0.6c0.2,0.2,0.5,0.2,0.8,0.2
		c0.4,0,0.7-0.1,0.9-0.3c0.3-0.2,0.5-0.4,0.6-0.7c0.1-0.3,0.2-1,0.2-2.1v-3.3h2.1v7.8L470.8,57.8L470.8,57.8z"/>
	<path class="st5" d="M482,57.8h-2.1v-4c0-0.8,0-1.4-0.1-1.6c-0.1-0.2-0.2-0.4-0.4-0.6c-0.2-0.1-0.4-0.2-0.7-0.2
		c-0.4,0-0.7,0.1-1,0.3s-0.5,0.5-0.6,0.8c-0.1,0.3-0.2,0.9-0.2,1.8v3.5h-2.1V50h1.9v1.1c0.7-0.9,1.5-1.3,2.6-1.3
		c0.5,0,0.9,0.1,1.2,0.2c0.4,0.2,0.7,0.4,0.9,0.6c0.2,0.3,0.3,0.5,0.4,0.9c0.1,0.3,0.1,0.8,0.1,1.4v4.9H482z"/>
	<path class="st5" d="M491.2,57.8h-1.9v-1.1c-0.3,0.4-0.7,0.8-1.1,1c-0.4,0.2-0.9,0.3-1.3,0.3c-0.9,0-1.7-0.4-2.3-1.1
		c-0.6-0.7-1-1.7-1-3s0.3-2.3,0.9-3c0.6-0.7,1.4-1,2.4-1c0.9,0,1.6,0.4,2.3,1.1v-3.9h2.1L491.2,57.8L491.2,57.8z M485.8,53.8
		c0,0.8,0.1,1.4,0.3,1.8c0.3,0.5,0.8,0.8,1.4,0.8c0.5,0,0.9-0.2,1.2-0.6c0.3-0.4,0.5-1,0.5-1.8c0-0.9-0.2-1.5-0.5-1.9
		s-0.7-0.6-1.2-0.6s-0.9,0.2-1.2,0.6C486,52.5,485.8,53,485.8,53.8z"/>
</g>
</svg>
