<?xml version="1.0" encoding="utf-8"?>
<!-- Generator: Adobe Illustrator 25.4.1, SVG Export Plug-In . SVG Version: 6.00 Build 0)  -->
<svg version="1.1" id="圖層_1" xmlns="http://www.w3.org/2000/svg" xmlns:xlink="http://www.w3.org/1999/xlink" x="0px" y="0px"
	 viewBox="0 0 14.3 14.3" style="enable-background:new 0 0 14.3 14.3;" xml:space="preserve">
<style type="text/css">
	.st0{fill:#333333;}
	.st1{fill-rule:evenodd;clip-rule:evenodd;fill:#333333;}
</style>
<g>
	<g>
		<path class="st0" d="M5.3,1v4.3H1V1H5.3 M5.8,0H0.4C0.2,0,0,0.2,0,0.4v5.4c0,0.2,0.2,0.4,0.4,0.4h5.4c0.2,0,0.4-0.2,0.4-0.4V0.4
			C6.3,0.2,6.1,0,5.8,0L5.8,0z"/>
	</g>
	<path class="st1" d="M7.8,13h5.8c0.4,0,0.7,0.3,0.7,0.7c0,0.4-0.3,0.7-0.7,0.7H7.8c-0.4,0-0.7-0.3-0.7-0.7C7.2,13.3,7.5,13,7.8,13
		L7.8,13z"/>
	<path class="st1" d="M7.8,8.1h5.8c0.4,0,0.7,0.3,0.7,0.7c0,0.4-0.3,0.7-0.7,0.7H7.8c-0.4,0-0.7-0.3-0.7-0.7
		C7.2,8.4,7.5,8.1,7.8,8.1L7.8,8.1z"/>
	<path class="st1" d="M7.8,10.5h5.8c0.4,0,0.7,0.3,0.7,0.7c0,0.4-0.3,0.7-0.7,0.7H7.8c-0.4,0-0.7-0.3-0.7-0.7
		C7.2,10.8,7.5,10.5,7.8,10.5L7.8,10.5z"/>
	<g>
		<path class="st0" d="M5.3,9.1v4.3H1V9.1H5.3 M5.8,8.1H0.4C0.2,8.1,0,8.3,0,8.5v5.4c0,0.2,0.2,0.4,0.4,0.4h5.4
			c0.2,0,0.4-0.2,0.4-0.4V8.5C6.3,8.3,6.1,8.1,5.8,8.1L5.8,8.1z"/>
	</g>
	<path class="st1" d="M7.8,4.9h5.8c0.4,0,0.7,0.3,0.7,0.7c0,0.4-0.3,0.7-0.7,0.7H7.8C7.5,6.3,7.2,6,7.2,5.6C7.2,5.2,7.5,4.9,7.8,4.9
		L7.8,4.9z"/>
	<path class="st1" d="M7.8,0h5.8c0.4,0,0.7,0.3,0.7,0.7c0,0.4-0.3,0.7-0.7,0.7H7.8C7.5,1.3,7.2,1,7.2,0.7S7.5,0,7.8,0L7.8,0z"/>
	<path class="st1" d="M7.8,2.5h5.8c0.4,0,0.7,0.3,0.7,0.7c0,0.4-0.3,0.7-0.7,0.7H7.8c-0.4,0-0.7-0.3-0.7-0.7
		C7.2,2.8,7.5,2.5,7.8,2.5z"/>
</g>
</svg>
