<?xml version="1.0" encoding="utf-8"?>
<!-- Generator: Adobe Illustrator 25.4.1, SVG Export Plug-In . SVG Version: 6.00 Build 0)  -->
<svg version="1.1" id="圖層_1" xmlns="http://www.w3.org/2000/svg" xmlns:xlink="http://www.w3.org/1999/xlink" x="0px" y="0px"
	 viewBox="0 0 13.9 14.3" style="enable-background:new 0 0 13.9 14.3;" xml:space="preserve">
<style type="text/css">
	.st0{fill:#FFFFFF;}
</style>
<g>
	<g>
		<path class="st0" d="M5.3,1v4.3H1V1H5.3 M5.8,0H0.4C0.2,0,0,0.2,0,0.4v5.4c0,0.2,0.2,0.4,0.4,0.4h5.4c0.2,0,0.4-0.2,0.4-0.4V0.4
			C6.3,0.2,6.1,0,5.8,0L5.8,0z"/>
	</g>
	<g>
		<path class="st0" d="M5.3,9.1v4.3H1V9.1H5.3 M5.8,8.1H0.4C0.2,8.1,0,8.3,0,8.5v5.4c0,0.2,0.2,0.4,0.4,0.4h5.4
			c0.2,0,0.4-0.2,0.4-0.4V8.5C6.3,8.3,6.1,8.1,5.8,8.1L5.8,8.1z"/>
	</g>
	<g>
		<path class="st0" d="M12.9,1v4.3H8.6V1H12.9 M13.4,0H8.1C7.8,0,7.6,0.2,7.6,0.4v5.4c0,0.2,0.2,0.4,0.4,0.4h5.4
			c0.2,0,0.4-0.2,0.4-0.4V0.4C13.9,0.2,13.7,0,13.4,0L13.4,0z"/>
	</g>
	<g>
		<path class="st0" d="M12.9,9.1v4.3H8.6V9.1H12.9 M13.4,8.1H8.1c-0.2,0-0.4,0.2-0.4,0.4v5.4c0,0.2,0.2,0.4,0.4,0.4h5.4
			c0.2,0,0.4-0.2,0.4-0.4V8.5C13.9,8.3,13.7,8.1,13.4,8.1L13.4,8.1z"/>
	</g>
</g>
</svg>
