<?xml version="1.0" encoding="utf-8"?>
<!-- Generator: Adobe Illustrator 25.4.1, SVG Export Plug-In . SVG Version: 6.00 Build 0)  -->
<svg version="1.1" id="圖層_1" xmlns="http://www.w3.org/2000/svg" xmlns:xlink="http://www.w3.org/1999/xlink" x="0px" y="0px"
	 viewBox="0 0 85 85" style="enable-background:new 0 0 85 85;" xml:space="preserve">
<style type="text/css">
	.st0{fill:#FFFFFF;}
</style>
<path class="st0" d="M42.5,0C19,0,0,19,0,42.5S19,85,42.5,85S85,66,85,42.5S66,0,42.5,0z M60.5,54.2c0,1.6-0.7,2.3-2.3,2.3
	c-10.1,0-20.2,0-30.3,0c-1.6,0-2.3-0.7-2.3-2.3c0-6.6,0-13.2,0-19.9c0-1.5,0.8-2.3,2.3-2.3c0.6,0,1.2,0,1.8,0
	c0.2-1.4,0.5-1.7,1.8-1.7c1,0,1.3,0.3,1.5,1.7c0.3,0,0.6,0,0.9,0c0.3,0,0.6,0,1,0c0-0.2,0-0.4,0-0.6c0-1.1,0-2.2,0-3.3
	c0-1.1,0.8-1.9,1.9-1.9c4.3,0,8.6,0,12.9,0c1.1,0,1.8,0.8,1.9,2c0,1,0,2.1,0,3.1c0,0.2,0,0.4,0,0.7c0.6,0,1.1,0,1.6,0
	c0.3-1.5,0.5-1.7,1.9-1.6c0.9,0,1.2,0.4,1.4,1.7c0.6,0,1.2,0,1.7,0c1.3,0,2.4,0.7,2.4,2.3C60.5,41,60.5,47.6,60.5,54.2z"/>
<path class="st0" d="M48.1,41.9c-0.8,0-1.6,0-2.5,0c0-0.9,0-1.8,0-2.7c0-0.7-0.3-1-1-1c-0.9,0-1.7,0-2.6,0c-1,0-1.3,0.3-1.3,1.2
	c0,0.8,0,1.6,0,2.4c-0.9,0-1.8,0-2.6,0S37,42.1,37,42.9s0,1.6,0,2.4c0,1.2,0.2,1.4,1.4,1.4c0.8,0,1.5,0,2.3,0c0,1,0,1.8,0,2.7
	c0,0.7,0.3,1,1,1c0.9,0,1.8,0,2.8,0c0.8,0,1.1-0.3,1.1-1.1s0-1.7,0-2.6c0.9,0,1.7,0,2.5,0c0.9,0,1.2-0.3,1.2-1.2c0-0.8,0-1.6,0-2.5
	C49.3,42.2,49,41.9,48.1,41.9z"/>
<path class="st0" d="M48.1,32.1c0-0.6,0-1.1,0-1.7c0-0.7-0.2-0.9-0.9-0.9c-1.1,0-2.3,0-3.4,0c-1.5,0-3,0-4.5,0
	c-0.5,0-0.8,0.2-0.9,0.7c0,0.6,0,1.3,0,2C41.6,32.1,44.8,32.1,48.1,32.1z"/>
</svg>
