<?xml version="1.0" encoding="utf-8"?>
<!-- Generator: Adobe Illustrator 25.4.1, SVG Export Plug-In . SVG Version: 6.00 Build 0)  -->
<svg version="1.1" id="圖層_1" xmlns="http://www.w3.org/2000/svg" xmlns:xlink="http://www.w3.org/1999/xlink" x="0px" y="0px"
	 viewBox="0 0 85 85" style="enable-background:new 0 0 85 85;" xml:space="preserve">
<style type="text/css">
	.st0{fill:#587571;}
</style>
<path class="st0" d="M55.9,54c0.4,0,0.8,0,1.2,0c0-0.4,0-0.9,0-1.3c-0.4,0-0.8,0-1.2,0C55.9,53.2,55.9,53.6,55.9,54z"/>
<path class="st0" d="M53.2,54c0.4,0,0.8,0,1.2,0c0-0.4,0-0.9,0-1.3c-0.4,0-0.8,0-1.2,0C53.2,53.2,53.2,53.6,53.2,54z"/>
<path class="st0" d="M50.5,54c0.4,0,0.8,0,1.2,0c0-0.5,0-0.9,0-1.3c-0.4,0-0.8,0-1.2,0C50.5,53.2,50.5,53.6,50.5,54z"/>
<path class="st0" d="M42.5,0C19,0,0,19,0,42.5S19,85,42.5,85S85,66,85,42.5S66,0,42.5,0z M25.3,48.5c0-5.6,0-11.3,0-16.9
	c0-2,1.1-3.1,3.1-3.1c9.6,0,19.2,0,28.8,0c1.9,0,3,1.2,3,3c0,5.7,0,11.3,0,17c0,0.2,0,0.4,0,0.7c-11.7,0-23.3,0-34.9,0
	C25.3,48.9,25.3,48.7,25.3,48.5z M50.6,60.3c-0.2,0-0.4,0-0.6,0c-4.8,0-9.6,0-14.5,0c-0.2,0-0.4,0-0.5,0c-0.5-0.1-0.8-0.4-0.8-0.9
	s0.3-0.8,0.8-0.9c0.2,0,0.4,0,0.7,0c0-0.3,0-0.6,0.1-1c4.7,0,9.3,0,14,0c0,0.3,0,0.6,0.1,0.9c0.3,0,0.5,0,0.8,0.1
	c0.5,0.1,0.8,0.4,0.7,0.9C51.3,59.9,51,60.2,50.6,60.3z M59.6,54.7c-0.5,0.6-1.1,0.9-1.9,1c-0.2,0-0.4,0-0.6,0c-9.5,0-19,0-28.5,0
	c-2.2,0-3.2-1.1-3.2-3.2c0-0.4,0-0.9,0-1.4c11.7,0,23.2,0,34.9,0C60.2,52.3,60.5,53.6,59.6,54.7z"/>
</svg>
