<?xml version="1.0" encoding="utf-8"?>
<!-- Generator: Adobe Illustrator 25.4.1, SVG Export Plug-In . SVG Version: 6.00 Build 0)  -->
<svg version="1.1" id="圖層_1" xmlns="http://www.w3.org/2000/svg" xmlns:xlink="http://www.w3.org/1999/xlink" x="0px" y="0px"
	 viewBox="0 0 85 85" style="enable-background:new 0 0 85 85;" xml:space="preserve">
<style type="text/css">
	.st0{fill:#FFFFFF;}
</style>
<path class="st0" d="M42.5,0C19,0,0,19,0,42.5C0,66,19,85,42.5,85C66,85,85,66,85,42.5C85,19,66,0,42.5,0z M39.7,28.5
	c-0.1,2.7-0.5,5.4-2.2,7.7c-0.6,0.9-1.5,1.5-2.6,1.5c-1.2,0-2.2-1.2-1.8-2.4c0.2-0.6,0.7-1.2,1.2-1.7c0.5-0.4,1.1-0.7,1.6-1
	C37.7,31.8,39.2,30.6,39.7,28.5z M31,28.9c0.3-1.8,0.9-3.5,1.7-5.1c0.1,0.1,0.1,0.1,0.2,0.1c0.9,2,1.7,4,2,6.2c0,0.4,0,0.7,0,1.1
	c-0.1,1.3-0.7,1.9-1.8,1.9c-1.1,0-2-0.7-2.1-1.9C30.8,30.4,30.8,29.6,31,28.9z M25.7,28.5c0.4,2,1.7,3.1,3.4,4
	c0.9,0.5,1.8,1,2.5,1.7c0.8,0.8,0.8,2,0.2,2.7c-0.6,0.8-1.7,1-2.7,0.4c-0.7-0.5-1.4-1.1-1.8-1.8C26.2,33.9,25.5,30.6,25.7,28.5z
	 M25.7,34.4c0.4,1.9,1.7,3.1,3.3,4c0.9,0.5,1.9,1.1,2.7,1.8c0.8,0.7,0.8,1.9,0.2,2.6c-0.6,0.8-1.6,1.1-2.6,0.5
	c-0.6-0.3-1.2-0.8-1.6-1.3c-0.6-0.8-1-1.8-1.4-2.7C25.8,37.8,25.5,36.1,25.7,34.4z M31.8,49.1c-0.5,0.6-1.3,0.8-2.2,0.6
	c-0.8-0.2-1.4-0.8-1.9-1.4c-1.6-2.3-2.1-4.9-2.1-7.7c0.4,2.2,2,3.3,3.8,4.2c0.5,0.2,1,0.5,1.4,0.9c0.4,0.3,0.8,0.8,1.1,1.2
	C32.4,47.7,32.3,48.5,31.8,49.1z M28.8,55.6c-0.4-0.3-0.7-0.6-1-0.9c-1.7-2.4-2.2-5-2.2-7.9c0.4,2.1,1.8,3.2,3.5,4.1
	c0.5,0.2,1,0.5,1.4,0.8c0.3,0.2,0.6,0.4,0.9,0.7c0.9,1,1.1,2.2,0.4,3C31.1,56.3,29.9,56.3,28.8,55.6z M33.6,62.4
	c0,0.6-0.4,0.7-0.9,0.7c-0.5,0-1-0.1-1-0.7c-0.2-1.7-0.3-3.3-0.5-5c0-0.4,0-0.5,0.5-0.5c0.6,0.1,1.3,0,1.9,0c0.2,0,0.4,0.1,0.5,0.2
	C33.9,59,33.7,60.7,33.6,62.4z M38,53.8c-0.6,1-1.3,1.9-2.5,2.2c-0.8,0.2-1.5,0.1-2.1-0.6c-0.5-0.7-0.6-1.4-0.2-2.1
	c0.2-0.4,0.6-0.9,1-1.2c0.5-0.4,1-0.7,1.6-1c1.8-0.9,3.4-2.1,3.9-4.3C39.7,49.3,39.2,51.7,38,53.8z M37.4,48.5
	c-0.6,0.8-1.4,1.3-2.4,1.3c-1.3,0.1-2.3-1.2-1.9-2.4c0.2-0.5,0.6-1.1,1-1.5c0.4-0.4,0.9-0.7,1.4-0.9c1.9-1,3.7-2,4.2-4.4
	C39.6,43.4,39.1,46.2,37.4,48.5z M37.5,42.2c-0.6,0.8-1.3,1.3-2.3,1.4c-1.4,0.1-2.5-1.2-2-2.5c0.3-0.6,0.8-1.2,1.3-1.7
	c0.5-0.4,1.1-0.7,1.7-1c1.7-0.8,3-1.9,3.4-3.9c0-0.1,0.1-0.1,0.2-0.3C39.6,37.2,39.1,39.9,37.5,42.2z M55.4,34
	c0.3-0.8,0.6-1.7,1.2-2.4c1.1-1.3,2.3-2.6,3.4-3.8c0.1,0.1,0.2,0.1,0.3,0.2c0,2.3-0.1,4.5-0.9,6.7c-0.1,0.3-0.2,0.6-0.4,0.8
	c-0.6,1-1.4,1.4-2.3,1C55.6,36,55.1,35.1,55.4,34z M51.7,29.4c0-0.1,0.1-0.1,0.2-0.3c-0.5,2,0.1,3.6,1.3,5.1
	c0.7,0.9,1.4,1.8,1.7,2.9c0.2,1.1-0.2,2-1.1,2.4c-0.9,0.4-1.9,0.1-2.6-0.7C50.7,38,50.4,37,50.4,36C50.3,33.7,50.8,31.5,51.7,29.4z
	 M49.2,34.9c0-0.1,0.1-0.1,0.2-0.3c-0.5,2.3,0.5,4,1.8,5.6c0.5,0.7,0.9,1.5,1.2,2.3c0.3,1-0.1,2-1,2.4c-0.9,0.5-1.9,0.3-2.5-0.6
	c-0.5-0.6-0.8-1.5-0.9-2.2C47.6,39.5,48.2,37.2,49.2,34.9z M46.6,40.4c0-0.1,0.1-0.1,0.2-0.3c-0.5,2,0.2,3.7,1.4,5.1
	c0.7,0.9,1.4,1.8,1.6,3c0.2,0.9-0.2,1.8-1,2.2c-0.8,0.4-1.7,0.3-2.4-0.4c-0.9-0.8-1.1-1.9-1.2-3C45.2,44.7,45.7,42.5,46.6,40.4z
	 M43.9,46.3c0.1-0.1,0.1-0.2,0.2-0.3c-0.3,1.9,0.3,3.5,1.5,4.9c0.7,0.9,1.4,1.8,1.7,2.9c0.3,1.4-0.6,2.6-1.9,2.6
	c-1,0-1.7-0.6-2.1-1.5c-0.3-0.8-0.5-1.8-0.6-2.7C42.6,50.2,43.1,48.2,43.9,46.3z M47.3,58.8c-0.8,1.4-1.6,2.9-2.5,4.3
	c-0.2,0.4-0.5,0.6-1,0.4c-0.5-0.2-1-0.5-0.8-1.1c0.6-1.7,1.2-3.4,1.8-5c0-0.1,0.1-0.1,0.1-0.1c0.9,0.4,1.7,0.8,2.5,1.2
	C47.5,58.5,47.4,58.7,47.3,58.8z M53.9,56.1C53,57,52,57.9,50.7,58.2c-0.6,0.1-1.3,0.1-1.8,0c-1.4-0.4-1.8-2.1-0.7-3.2
	c0.7-0.7,1.6-1,2.6-1c0.6,0,1.2,0,1.8,0c1.7-0.1,3.1-0.7,4.2-2C56.1,53.5,55.1,54.9,53.9,56.1z M59.4,46.3c-1.2,2.3-2.7,4.4-4.9,5.7
	c-0.7,0.4-1.5,0.5-2.3,0.6c-0.9,0.1-1.6-0.5-1.9-1.4c-0.2-0.8,0.1-1.6,0.8-2.2c0.8-0.6,1.8-0.8,2.8-0.8c0.7,0,1.4,0,2.1-0.1
	c1.4-0.2,2.6-0.9,3.5-2.2C59.4,46.2,59.4,46.3,59.4,46.3z M59.2,44.8c-0.9,1-1.9,1.9-3.2,2.2c-0.6,0.1-1.3,0.1-1.8,0
	c-1.4-0.4-1.8-2.2-0.7-3.2c0.7-0.7,1.6-0.9,2.5-1c0.4,0,0.9,0,1.3,0c1.9,0,3.5-0.5,4.7-2.1C61.4,42.2,60.4,43.5,59.2,44.8z
	 M59.1,41.3c-0.6,0.3-1.4,0.3-2.1,0.3c-0.9,0-1.5-0.5-1.7-1.4c-0.2-0.8,0-1.6,0.7-2c0.6-0.4,1.4-0.7,2.1-0.8
	c0.6-0.1,1.2-0.1,1.8-0.1c1.8,0,3.4-0.6,4.6-2.1C63.3,37.7,61.7,39.9,59.1,41.3z"/>
</svg>
