<?xml version="1.0" encoding="utf-8"?>
<!-- Generator: Adobe Illustrator 25.4.1, SVG Export Plug-In . SVG Version: 6.00 Build 0)  -->
<svg version="1.1" id="圖層_1" xmlns="http://www.w3.org/2000/svg" xmlns:xlink="http://www.w3.org/1999/xlink" x="0px" y="0px"
	 viewBox="0 0 85 85" style="enable-background:new 0 0 85 85;" xml:space="preserve">
<style type="text/css">
	.st0{fill:#587571;}
</style>
<path class="st0" d="M42.5,0C19,0,0,19,0,42.5S19,85,42.5,85S85,66,85,42.5S66,0,42.5,0z M46.2,59.2c-0.3,0.6-0.6,1.1-1,1.8
	c-0.5-1.3-0.9-2.6-1.4-3.7c-2.4-5.3-5.6-10-9.3-14.5c-1.4-1.7-2.9-3.3-4.4-4.9c-0.5-0.6-0.9-0.6-1.3-0.2C28.4,38,28.5,38.5,29,39
	c5.1,5.3,9.5,11,12.7,17.6c0.8,1.7,1.4,3.5,2.1,5.3c-0.1,0.1-0.1,0.2-0.2,0.2c-1.6-0.3-3.3-0.4-4.9-0.8c-5.8-1.5-9.7-5.2-12-10.8
	c-1.3-3.1-1.8-6.4-1.9-9.8c-0.1-2.4,0-4.8,0.1-7.2c0-0.8,0.4-1,1.2-1c3.4,0.3,6.5,1.5,9.3,3.3c3.9,2.3,7.2,5.3,9.6,9.2
	C47.8,49.6,48.5,54.3,46.2,59.2z M59.4,39.4c-0.8,3.8-2.1,7.3-4.6,10.3c-1.5,1.7-3.3,3-5.4,3.9c-0.1,0-0.2,0-0.2,0
	c-0.1-1.1-0.2-2.1-0.3-3.1c-0.3-2-1-3.9-2-5.6c-0.2-0.4-0.2-0.7,0.1-1c2.7-3.9,5.6-7.7,8.9-11.1c0.2-0.2,0.3-0.3,0.5-0.5
	c0.3-0.4,0.3-0.8,0-1.1c-0.4-0.3-0.8-0.3-1.1,0.1c-0.7,0.7-1.4,1.4-2.1,2.1c-2.6,2.9-5.1,6-7.2,9.3c0,0.1-0.1,0.1-0.2,0.2
	c-0.1-0.1-0.3-0.3-0.4-0.4c-1.3-1.5-2.6-2.9-4-4.4c-0.3-0.3-0.4-0.5-0.1-1c3-4.4,7-7.7,11.9-9.7c1.8-0.7,3.7-1.2,5.7-1.4
	c0.8-0.1,1.2,0.2,1.2,1C60.3,31.2,60.2,35.4,59.4,39.4z"/>
</svg>
