<?xml version="1.0" encoding="utf-8"?>
<!-- Generator: Adobe Illustrator 25.4.1, SVG Export Plug-In . SVG Version: 6.00 Build 0)  -->
<svg version="1.1" id="圖層_1" xmlns="http://www.w3.org/2000/svg" xmlns:xlink="http://www.w3.org/1999/xlink" x="0px" y="0px"
	 viewBox="0 0 85 85" style="enable-background:new 0 0 85 85;" xml:space="preserve">
<style type="text/css">
	.st0{fill:#587571;}
</style>
<path class="st0" d="M42.5,0C19,0,0,19,0,42.5S19,85,42.5,85S85,66,85,42.5S66,0,42.5,0z M47.5,22.1c2.5,1.4,4.3,3.9,4.9,6.9
	c0.1,0.3-0.2,0.6-0.5,0.6h-3.4c-0.3,0-0.5-0.2-0.5-0.5c-0.1-2.3-0.5-4.6-1.2-6.4C46.6,22.3,47.1,21.9,47.5,22.1z M46.8,38.9
	c0.6-1.8,1-4.1,1.2-6.4c0-0.3,0.2-0.5,0.5-0.5h3.4c0.3,0,0.6,0.3,0.5,0.6c-0.5,2.9-2.4,5.4-4.9,6.9C47.1,39.8,46.6,39.4,46.8,38.9z
	 M42.5,21.3c0.9,0,2.6,2.9,2.9,7.8c0,0.3-0.2,0.5-0.5,0.5H40c-0.3,0-0.5-0.2-0.5-0.5C39.9,24.2,41.6,21.3,42.5,21.3z M37.5,22.1
	c0.4-0.2,0.9,0.2,0.7,0.6c-0.6,1.8-1,4.1-1.2,6.4c0,0.3-0.2,0.5-0.5,0.5h-3.4c-0.3,0-0.6-0.3-0.5-0.6C33.2,26,35,23.5,37.5,22.1z
	 M33.1,32.1h3.4c0.3,0,0.5,0.2,0.5,0.5c0.1,2.3,0.5,4.6,1.2,6.4c0.2,0.4-0.3,0.8-0.7,0.6c-2.5-1.4-4.3-3.9-4.9-6.9
	C32.6,32.3,32.8,32.1,33.1,32.1z M24.1,47.5c-0.9-1.1-1.4-2.5-1.4-3.9v-6.2c0-1.3,0.9-2.5,2.2-2.6c1.5-0.1,2.8,1,2.8,2.5v6
	c0.1,1.3,0.6,2.6,1.5,3.5l2.5,2.5c0.5,0.5,1.3,0.5,1.8,0s0.5-1.3,0-1.8L31,45c-0.9-0.9-1-2.2-0.3-3.2c0.9-1.1,2.5-1.1,3.4-0.2l5,5
	c1.1,1.1,1.8,2.7,1.8,4.2v3c0,0.3-0.2,0.5-0.5,0.5H30.1c-0.1,0-0.3-0.1-0.4-0.2L24.1,47.5z M41.1,59.6c0,0.3-0.2,0.5-0.5,0.5H30.3
	c-0.3,0-0.5-0.2-0.5-0.5v-2c0-0.3,0.2-0.5,0.5-0.5h10.3c0.3,0,0.5,0.2,0.5,0.5V59.6z M42.5,40.3c-0.9,0-2.6-2.9-2.9-7.8
	c0-0.3,0.2-0.5,0.5-0.5H45c0.3,0,0.5,0.2,0.5,0.5C45.1,37.4,43.5,40.3,42.5,40.3z M55.2,59.6c0,0.3-0.2,0.5-0.5,0.5H44.5
	c-0.3,0-0.5-0.2-0.5-0.5v-2c0-0.3,0.2-0.5,0.5-0.5h10.3c0.3,0,0.5,0.2,0.5,0.5L55.2,59.6L55.2,59.6z M62.4,43.6
	c0,1.4-0.5,2.8-1.4,3.9l-5.6,6.6c-0.1,0.1-0.2,0.2-0.4,0.2H44.7c-0.3,0-0.5-0.2-0.5-0.5v-3c0-1.6,0.6-3.1,1.8-4.2l5-5
	c1-1,2.5-0.9,3.4,0.2c0.8,0.9,0.6,2.3-0.3,3.2l-2.5,2.5c-0.5,0.5-0.5,1.3,0,1.8s1.3,0.5,1.8,0l2.5-2.5c0.9-0.9,1.5-2.2,1.5-3.5v-6
	c0-1.5,1.3-2.6,2.8-2.5c1.3,0.1,2.2,1.3,2.2,2.6V43.6z"/>
</svg>
