<?xml version="1.0" encoding="utf-8"?>
<!-- Generator: Adobe Illustrator 25.4.1, SVG Export Plug-In . SVG Version: 6.00 Build 0)  -->
<svg version="1.1" id="圖層_1" xmlns="http://www.w3.org/2000/svg" xmlns:xlink="http://www.w3.org/1999/xlink" x="0px" y="0px"
	 viewBox="0 0 85 85" style="enable-background:new 0 0 85 85;" xml:space="preserve">
<style type="text/css">
	.st0{fill:#587571;}
</style>
<path class="st0" d="M42.5,0C19,0,0,19,0,42.5S19,85,42.5,85S85,66,85,42.5S66,0,42.5,0z M54.9,49.4c-0.1,1.4-0.9,2.6-2.1,3.4
	c-2.7,1.6-5.3,3.2-8.1,4.6c-1.5,0.8-3.1,0.7-4.5-0.1c-2.5-1.4-5-2.9-7.5-4.3c-1.6-0.9-2.5-2.4-2.6-4.2c0-1.5,0-2.9,0-4.6
	c0.4,0.2,0.7,0.3,0.9,0.4c2.9,1.5,5.8,2.9,8.7,4.4c1.9,1,3.8,1,5.7,0c2.9-1.5,5.8-3,8.8-4.4c0.2-0.1,0.5-0.2,0.8-0.4
	C54.9,46,55,47.7,54.9,49.4z M60.2,39.8c-1.5,0.5-1.9,1.4-1.8,2.9c0.2,2.4,0,4.8,0,7.2c0,0.4,0.1,0.7,0.4,0.9c0.9,0.7,1,2,0.2,2.8
	c-0.7,0.8-2,0.8-2.7,0c-0.8-0.8-0.7-2.1,0.2-2.8c0.2-0.2,0.5-0.4,0.5-0.7c0-2.8,0-5.7,0-8.7c-0.9,0.4-1.6,0.8-2.4,1.2
	c-3.1,1.5-6.1,3.1-9.2,4.6c-2,1-3.9,1-6,0c-4.9-2.5-9.8-5-14.7-7.4c-0.8-0.4-1.5-0.9-1.5-1.9c0-1.1,0.6-1.7,1.5-2.1
	c5-2.7,10-5.3,14.9-8c1.9-1,3.7-1,5.6,0c5,2.7,9.9,5.3,14.9,8c0.8,0.4,1.4,1,1.4,2C61.7,38.8,61.1,39.5,60.2,39.8z"/>
</svg>
