<?xml version="1.0" encoding="utf-8"?>
<!-- Generator: Adobe Illustrator 25.4.1, SVG Export Plug-In . SVG Version: 6.00 Build 0)  -->
<svg version="1.1" id="圖層_1" xmlns="http://www.w3.org/2000/svg" xmlns:xlink="http://www.w3.org/1999/xlink" x="0px" y="0px"
	 viewBox="0 0 60 60" style="enable-background:new 0 0 60 60;" xml:space="preserve">
<style type="text/css">
	.st0{fill:#FFFFFF;}
</style>
<g>
	<g>
		<path class="st0" d="M25.6,52.7c-2.4,0-4.4-0.2-6.7-0.8l-2.3-0.7c-0.8-0.2-1.2-1-1-1.8c0.2-0.8,1-1.2,1.8-1l2.2,0.7
			c2,0.5,3.7,0.7,5.9,0.7c3.5,0,7-0.6,9.8-1.6l19.3-8.1c0.4-0.2,0.8-0.7,0.7-1.1c-0.2-0.4-0.7-0.6-1.2-0.5L43,40.9
			c-0.8,0.2-1.5-0.3-1.7-1.1c-0.2-0.8,0.3-1.5,1.1-1.7l11.1-2.4c1.8-0.4,3.8,0.5,4.5,2.2c0.7,1.7-0.2,3.7-2.1,4.7l-19.5,8.2
			C33.3,52.1,29.4,52.7,25.6,52.7z"/>
		<path class="st0" d="M12.8,55.6c-0.1,0-0.2,0-0.3,0c-0.4-0.1-0.7-0.4-0.9-0.7L1.6,36.4c-0.3-0.6-0.1-1.4,0.5-1.9l4.3-2.8
			c0.3-0.2,0.7-0.3,1.1-0.2c0.4,0.1,0.7,0.4,0.9,0.7l9.9,18.5c0.3,0.6,0.1,1.4-0.5,1.9l-4.3,2.8C13.3,55.5,13.1,55.6,12.8,55.6z
			 M4.7,36.1l8.6,16l1.9-1.3l-8.6-16L4.7,36.1z"/>
		<path class="st0" d="M39.1,44.2H25.6c-0.8,0-1.4-0.6-1.4-1.4c0-0.8,0.6-1.4,1.4-1.4h13.5c1.2,0,2.1-1,2.1-2.1c0-1.2-1-2.1-2.1-2.1
			h-9.2c-0.3,0-0.6-0.1-0.9-0.3l-1.2-0.9c-4.3-3.2-10.3-4-15.3-1.8l-3.4,1.5c-0.7,0.3-1.6,0-1.9-0.7c-0.3-0.7,0-1.6,0.7-1.9l3.4-1.5
			c5.9-2.5,13-1.7,18.1,2.1l0.8,0.6h8.8c2.7,0,5,2.2,5,5S41.8,44.2,39.1,44.2z"/>
	</g>
	<path class="st0" d="M39.8,18.6c-3.5,0-6.4-2.9-6.4-6.4s2.9-6.4,6.4-6.4c3.5,0,6.4,2.9,6.4,6.4S43.3,18.6,39.8,18.6z M39.8,8.7
		c-2,0-3.6,1.6-3.6,3.6s1.6,3.6,3.6,3.6c2,0,3.6-1.6,3.6-3.6S41.7,8.7,39.8,8.7z"/>
	<path class="st0" d="M46.9,34.3c-0.8,0-1.4-0.6-1.4-1.4v-7.1c0-1.6-1.3-2.8-2.8-2.8h-5.7c-1.6,0-2.8,1.3-2.8,2.8v4.8
		c0,0.8-0.6,1.4-1.4,1.4c-0.8,0-1.4-0.6-1.4-1.4v-4.8c0-3.1,2.5-5.7,5.7-5.7h5.7c3.1,0,5.7,2.5,5.7,5.7v7.1
		C48.3,33.6,47.7,34.3,46.9,34.3z"/>
	<path class="st0" d="M25.6,17.2c-3.5,0-6.4-2.9-6.4-6.4s2.9-6.4,6.4-6.4S32,7.3,32,10.8S29.1,17.2,25.6,17.2z M25.6,7.3
		c-2,0-3.6,1.6-3.6,3.6s1.6,3.6,3.6,3.6s3.6-1.6,3.6-3.6S27.5,7.3,25.6,7.3z"/>
	<path class="st0" d="M18.5,29.1c-0.8,0-1.4-0.6-1.4-1.4v-3.4c0-3.1,2.5-5.7,5.7-5.7h7.1c0.8,0,1.4,0.6,1.4,1.4s-0.6,1.4-1.4,1.4
		h-7.1c-1.6,0-2.8,1.3-2.8,2.8v3.4C19.9,28.5,19.3,29.1,18.5,29.1z"/>
</g>
</svg>
