<?xml version="1.0" encoding="utf-8"?>
<!-- Generator: Adobe Illustrator 25.4.1, SVG Export Plug-In . SVG Version: 6.00 Build 0)  -->
<svg version="1.1" id="圖層_1" xmlns="http://www.w3.org/2000/svg" xmlns:xlink="http://www.w3.org/1999/xlink" x="0px" y="0px"
	 viewBox="0 0 60 60" style="enable-background:new 0 0 60 60;" xml:space="preserve">
<style type="text/css">
	.st0{fill:#FFFFFF;}
</style>
<g>
	<g>
		<path class="st0" d="M12.1,58.4c-0.7,0-1.3-0.6-1.3-1.3V44.2c0-0.7,0.6-1.3,1.3-1.3s1.3,0.6,1.3,1.3v12.9
			C13.4,57.8,12.8,58.4,12.1,58.4z"/>
		<path class="st0" d="M7.4,58.4c-0.7,0-1.3-0.6-1.3-1.3V33.6c0-0.7,0.6-1.3,1.3-1.3s1.3,0.6,1.3,1.3v23.4
			C8.7,57.8,8.1,58.4,7.4,58.4z"/>
		<path class="st0" d="M7.4,43.2H5c-2,0-3.7-1.7-3.7-3.7v-5.9c0-4.6,3-7.2,8.4-7.2h4.4c7-2.3,15.1-4.6,15.1-4.6
			c0.7-0.2,1.5,0.2,1.7,0.9c0.2,0.7-0.2,1.5-0.9,1.7c-0.1,0-8.3,2.4-15.2,4.7c-0.1,0-0.3,0.1-0.4,0.1H9.7c-5.1,0-5.7,2.6-5.7,4.5
			v5.9c0,0.6,0.4,1,1,1h2.3c0.7,0,1.3,0.6,1.3,1.3C8.7,42.6,8.1,43.2,7.4,43.2z"/>
		<path class="st0" d="M16.7,58.4c-0.7,0-1.3-0.6-1.3-1.3V33.6c0-0.5,0.3-1,0.8-1.2l12.9-5.9c0.7-0.3,1.5,0,1.8,0.7
			c0.3,0.7,0,1.5-0.7,1.8l-12.1,5.5v22.6C18.1,57.8,17.5,58.4,16.7,58.4z"/>
	</g>
	<g>
		<path class="st0" d="M47.2,58.4c-0.7,0-1.3-0.6-1.3-1.3V44.2c0-0.7,0.6-1.3,1.3-1.3c0.7,0,1.3,0.6,1.3,1.3v12.9
			C48.5,57.8,47.9,58.4,47.2,58.4z"/>
		<path class="st0" d="M51.9,58.4c-0.7,0-1.3-0.6-1.3-1.3V33.6c0-0.7,0.6-1.3,1.3-1.3c0.7,0,1.3,0.6,1.3,1.3v23.4
			C53.2,57.8,52.6,58.4,51.9,58.4z"/>
		<path class="st0" d="M54.2,43.2h-2.3c-0.7,0-1.3-0.6-1.3-1.3c0-0.7,0.6-1.3,1.3-1.3h2.3c0.6,0,1-0.4,1-1v-5.9
			c0-1.9-0.6-4.5-5.7-4.5h-4.6c-0.1,0-0.3,0-0.4-0.1c-7-2.3-15.2-4.6-15.2-4.7c-0.7-0.2-1.1-0.9-0.9-1.7s0.9-1.1,1.7-0.9
			c0.1,0,8.1,2.3,15.1,4.6h4.4c5.4,0,8.4,2.6,8.4,7.2v5.9C57.9,41.5,56.2,43.2,54.2,43.2z"/>
		<path class="st0" d="M42.5,58.4c-0.7,0-1.3-0.6-1.3-1.3V34.5L29.1,29c-0.7-0.3-1-1.1-0.7-1.8c0.3-0.7,1.1-1,1.8-0.7l12.9,5.9
			c0.5,0.2,0.8,0.7,0.8,1.2v23.4C43.8,57.8,43.2,58.4,42.5,58.4z"/>
	</g>
	<path class="st0" d="M29.6,24.4c-0.7,0-1.3-0.6-1.3-1.3V3.2c0-0.7,0.6-1.3,1.3-1.3S31,2.4,31,3.2v19.9C31,23.8,30.4,24.4,29.6,24.4
		z"/>
	<path class="st0" d="M29.6,36.1c-0.7,0-1.3-0.6-1.3-1.3v-7c0-0.7,0.6-1.3,1.3-1.3S31,27,31,27.8v7C31,35.5,30.4,36.1,29.6,36.1z"/>
	<path class="st0" d="M34.1,14.4c-1.5,0-3.2-0.1-4.8-0.6c-0.7-0.2-1.2-0.9-1-1.6c0.2-0.7,0.9-1.2,1.6-1c3.5,0.9,7,0.3,8.2,0.1
		c0.2-0.4,0.6-1.5,0.6-3.5c0-1.6-0.3-2.6-0.5-3.2c-1.7,0.3-5.3,0.7-9-0.2c-0.7-0.2-1.2-0.9-1-1.6c0.2-0.7,0.9-1.2,1.6-1
		c4.3,1.1,8.7,0,8.7,0c0.5-0.1,0.9,0,1.3,0.4c0.3,0.3,1.6,1.8,1.6,5.6s-1.3,5.4-1.6,5.6c-0.2,0.2-0.4,0.3-0.6,0.4
		C39.2,13.9,37,14.4,34.1,14.4z"/>
	<path class="st0" d="M10.9,24.4c-2.7,0-4.9-2.2-4.9-4.9v-1.2c0-2.7,2.2-4.9,4.9-4.9s4.9,2.2,4.9,4.9v1.2
		C15.7,22.3,13.6,24.4,10.9,24.4z M10.9,16.2c-1.2,0-2.2,1-2.2,2.2v1.2c0,1.2,1,2.2,2.2,2.2s2.2-1,2.2-2.2v-1.2
		C13.1,17.2,12.1,16.2,10.9,16.2z"/>
	<path class="st0" d="M48.4,24.4c-2.7,0-4.9-2.2-4.9-4.9v-1.2c0-2.7,2.2-4.9,4.9-4.9c2.7,0,4.9,2.2,4.9,4.9v1.2
		C53.2,22.3,51,24.4,48.4,24.4z M48.4,16.2c-1.2,0-2.2,1-2.2,2.2v1.2c0,1.2,1,2.2,2.2,2.2c1.2,0,2.2-1,2.2-2.2v-1.2
		C50.5,17.2,49.6,16.2,48.4,16.2z"/>
</g>
</svg>
