<?xml version="1.0" encoding="utf-8"?>
<!-- Generator: Adobe Illustrator 25.4.1, SVG Export Plug-In . SVG Version: 6.00 Build 0)  -->
<svg version="1.1" id="圖層_1" xmlns="http://www.w3.org/2000/svg" xmlns:xlink="http://www.w3.org/1999/xlink" x="0px" y="0px"
	 viewBox="0 0 51 49.1" style="enable-background:new 0 0 51 49.1;" xml:space="preserve">
<style type="text/css">
	.st0{fill:#FFFFFF;}
</style>
<g>
	<path class="st0" d="M25.2,37.2c-7.4,0-13.5-6.1-13.5-13.5c0-0.6,0.4-1,1-1s1,0.4,1,1c0,6.3,5.2,11.5,11.5,11.5
		c6.3,0,11.5-5.2,11.5-11.5c0-0.6,0.4-1,1-1s1,0.4,1,1C38.7,31.1,32.7,37.2,25.2,37.2z"/>
	<path class="st0" d="M25,47.2c-0.2,0-0.5-0.1-0.6-0.2l-8.3-6.9c-0.4-0.4-0.5-1-0.1-1.4s1-0.5,1.4-0.1l7.6,6.3l7.6-6.3
		c0.4-0.4,1.1-0.3,1.4,0.1c0.4,0.4,0.3,1.1-0.1,1.4l-8.2,6.8C25.5,47.1,25.2,47.2,25,47.2z"/>
	<path class="st0" d="M18.2,48.4c-0.3,0-0.6-0.1-0.8-0.4c-0.4-0.4-0.3-1.1,0.1-1.4l4.2-3.5c0.4-0.4,1.1-0.3,1.4,0.1s0.3,1.1-0.1,1.4
		l-4.2,3.5C18.7,48.3,18.4,48.4,18.2,48.4z"/>
	<path class="st0" d="M31.8,48.4c-0.2,0-0.5-0.1-0.6-0.2L27,44.7c-0.4-0.4-0.5-1-0.1-1.4c0.4-0.4,1-0.5,1.4-0.1l4.2,3.5
		c0.4,0.4,0.5,1,0.1,1.4C32.4,48.3,32.1,48.4,31.8,48.4z"/>
	<path class="st0" d="M25.1,31.1c-2.6,0-5.1-1.1-6.8-3.1c-0.4-0.4-0.3-1,0.1-1.4c0.4-0.4,1.1-0.3,1.4,0.1c1.3,1.5,3.3,2.4,5.3,2.4
		c1.9,0,3.8-0.8,5.1-2.2c0.4-0.4,1-0.4,1.4,0c0.4,0.4,0.4,1,0,1.4C30,30.1,27.6,31.1,25.1,31.1z"/>
	<path class="st0" d="M2.7,48.4c-0.6,0-1-0.4-1-1c0-4.7,3.8-8.5,8.5-8.5h3.9c1.4,0,2.6-1.2,2.6-2.6v-2.6c0-0.6,0.4-1,1-1s1,0.4,1,1
		v2.6c0,2.5-2.1,4.6-4.6,4.6h-3.9c-3.6,0-6.5,2.9-6.5,6.5C3.7,48,3.2,48.4,2.7,48.4z"/>
	<path class="st0" d="M47.7,48.4c-0.6,0-1-0.4-1-1c0-3.6-2.9-6.5-6.5-6.5h-3.9c-2.5,0-4.6-2.1-4.6-4.6v-2.6c0-0.6,0.4-1,1-1
		s1,0.4,1,1v2.6c0,1.4,1.2,2.6,2.6,2.6h3.9c4.7,0,8.5,3.8,8.5,8.5C48.7,48,48.3,48.4,47.7,48.4z"/>
	<path class="st0" d="M12.7,27.2h-1.4c-1.8,0-3.3-1.5-3.3-3.3v-6.6c0-1.1,0.9-2.1,2.1-2.1h2.7c0.6,0,1,0.4,1,1s-0.4,1-1,1H10
		l-0.1,6.7c0,0.7,0.6,1.3,1.3,1.3h1.4c0.6,0,1,0.4,1,1S13.3,27.2,12.7,27.2z"/>
	<path class="st0" d="M39.1,27.2h-1.4c-0.6,0-1-0.4-1-1s0.4-1,1-1h1.4c0.7,0,1.3-0.6,1.3-1.3v-6.6l-2.8-0.1c-0.6,0-1-0.4-1-1
		s0.4-1,1-1h2.7c1.1,0,2.1,0.9,2.1,2.1v6.6C42.5,25.7,41,27.2,39.1,27.2z"/>
	<path class="st0" d="M37.7,19.7c-0.6,0-1-0.4-1-1V3.4h-23v15.3c0,0.6-0.4,1-1,1s-1-0.4-1-1V2.4c0-0.6,0.4-1,1-1h25c0.6,0,1,0.4,1,1
		v16.3C38.7,19.2,38.3,19.7,37.7,19.7z"/>
	<path class="st0" d="M37.7,19.7H24c-1.9,0-3.5-1.6-3.5-3.5c0-0.6,0.4-1,1-1s1,0.4,1,1c0,0.8,0.7,1.5,1.5,1.5h13.8c0.6,0,1,0.4,1,1
		S38.3,19.7,37.7,19.7z"/>
	<path class="st0" d="M37.7,14.6h-25c-0.6,0-1-0.4-1-1s0.4-1,1-1h25c0.6,0,1,0.4,1,1S38.3,14.6,37.7,14.6z"/>
	<path class="st0" d="M44,14.6c-0.6,0-1-0.4-1-1v-1.3c0-0.6,0.4-1,1-1s1,0.4,1,1v1.3C45,14.2,44.5,14.6,44,14.6z"/>
	<path class="st0" d="M44,9.6c-0.6,0-1-0.4-1-1V3.4H6.4c-0.6,0-1-0.4-1-1s0.4-1,1-1H44c0.6,0,1,0.4,1,1v6.3C45,9.2,44.5,9.6,44,9.6z
		"/>
</g>
</svg>
