<?xml version="1.0" encoding="utf-8"?>
<!-- Generator: Adobe Illustrator 25.4.1, SVG Export Plug-In . SVG Version: 6.00 Build 0)  -->
<svg version="1.1" id="圖層_1" xmlns="http://www.w3.org/2000/svg" xmlns:xlink="http://www.w3.org/1999/xlink" x="0px" y="0px"
	 viewBox="0 0 60 60" style="enable-background:new 0 0 60 60;" xml:space="preserve">
<style type="text/css">
	.st0{fill:none;stroke:#FFFFFF;stroke-width:2;stroke-linecap:round;stroke-linejoin:round;}
</style>
<g>
	<ellipse class="st0" cx="20.3" cy="5.7" rx="15.7" ry="3.9"/>
	<path class="st0" d="M36,6.5v5.8c0,2.6-7,4.7-15.7,4.7c-8.7,0-15.7-2.1-15.7-4.7V6.5"/>
	<path class="st0" d="M36,12.8v7.4c0,2.6-7,4.7-15.7,4.7c-8.7,0-15.7-2.1-15.7-4.7v-7.4"/>
	<path class="st0" d="M26,31.9c-1.8,0.2-3.7,0.3-5.8,0.3c-8.7,0-15.7-2.1-15.7-4.7v-8.4"/>
	<line class="st0" x1="36" y1="20.7" x2="36" y2="25.4"/>
	<path class="st0" d="M20.9,40.1c-0.2,0-0.5,0-0.7,0c-8.7,0-15.7-2.1-15.7-4.7v-10"/>
	<path class="st0" d="M21.9,47.4c-0.6,0-1.1,0-1.7,0c-8.7,0-15.7-2.1-15.7-4.7v-7.9"/>
	<circle class="st0" cx="40.7" cy="44.3" r="14.2"/>
	<path class="st0" d="M36,50.6h6.3c1.7,0,3.1-1.4,3.1-3.1l0,0c0-1.7-1.4-3.1-3.1-3.1h-3.1c-1.7,0-3.1-1.4-3.1-3.1l0,0
		c0-1.7,1.4-3.1,3.1-3.1h6.3"/>
	<line class="st0" x1="40.7" y1="34.9" x2="40.7" y2="38"/>
	<line class="st0" x1="40.7" y1="50.6" x2="40.7" y2="53.8"/>
</g>
</svg>
