<?xml version="1.0" encoding="utf-8"?>
<!-- Generator: Adobe Illustrator 25.4.1, SVG Export Plug-In . SVG Version: 6.00 Build 0)  -->
<svg version="1.1" id="圖層_1" xmlns="http://www.w3.org/2000/svg" xmlns:xlink="http://www.w3.org/1999/xlink" x="0px" y="0px"
	 viewBox="0 0 51 49.1" style="enable-background:new 0 0 51 49.1;" xml:space="preserve">
<style type="text/css">
	.st0{fill:#FFFFFF;}
</style>
<g>
	<path class="st0" d="M25.8,35.4c-6.7,0-12.2-5.5-12.2-12.2c0-0.5,0.4-0.9,0.9-0.9c0.5,0,0.9,0.4,0.9,0.9c0,5.7,4.7,10.4,10.4,10.4
		c5.7,0,10.4-4.7,10.4-10.4c0-0.5,0.4-0.9,0.9-0.9c0.5,0,0.9,0.4,0.9,0.9C38,29.9,32.6,35.4,25.8,35.4z"/>
	<path class="st0" d="M25.6,44.4c-0.2,0-0.4-0.1-0.6-0.2L17.6,38c-0.4-0.3-0.4-0.9-0.1-1.3c0.3-0.4,0.9-0.4,1.3-0.1l6.9,5.7l6.9-5.7
		c0.4-0.3,1-0.3,1.3,0.1c0.3,0.4,0.3,1-0.1,1.3l-7.4,6.2C26,44.4,25.8,44.4,25.6,44.4z"/>
	<path class="st0" d="M19.5,45.6c-0.3,0-0.5-0.1-0.7-0.3c-0.3-0.4-0.3-1,0.1-1.3l3.8-3.1c0.4-0.3,1-0.3,1.3,0.1
		c0.3,0.4,0.3,1-0.1,1.3l-3.8,3.1C19.9,45.5,19.7,45.6,19.5,45.6z"/>
	<path class="st0" d="M31.8,45.6c-0.2,0-0.4-0.1-0.6-0.2l-3.8-3.1c-0.4-0.3-0.4-0.9-0.1-1.3c0.3-0.4,0.9-0.4,1.3-0.1l3.8,3.1
		c0.4,0.3,0.4,0.9,0.1,1.3C32.3,45.5,32.1,45.6,31.8,45.6z"/>
	<path class="st0" d="M25.7,29.9c-2.4,0-4.6-1-6.1-2.8c-0.3-0.4-0.3-0.9,0.1-1.3c0.4-0.3,1-0.3,1.3,0.1c1.2,1.4,2.9,2.2,4.8,2.2
		c1.7,0,3.4-0.7,4.6-2c0.3-0.4,0.9-0.4,1.3,0c0.4,0.3,0.4,0.9,0,1.3C30.1,29,28,29.9,25.7,29.9z"/>
	<path class="st0" d="M5.5,45.6c-0.5,0-0.9-0.4-0.9-0.9c0-4.2,3.5-7.7,7.7-7.7h3.5c1.3,0,2.4-1.1,2.4-2.4v-2.4
		c0-0.5,0.4-0.9,0.9-0.9s0.9,0.4,0.9,0.9v2.4c0,2.3-1.9,4.2-4.2,4.2h-3.5c-3.2,0-5.9,2.6-5.9,5.9C6.4,45.2,6,45.6,5.5,45.6z"/>
	<path class="st0" d="M46.2,45.6c-0.5,0-0.9-0.4-0.9-0.9c0-3.2-2.6-5.9-5.9-5.9h-3.5c-2.3,0-4.2-1.9-4.2-4.2v-2.4
		c0-0.5,0.4-0.9,0.9-0.9s0.9,0.4,0.9,0.9v2.4c0,1.3,1.1,2.4,2.4,2.4h3.5c4.2,0,7.7,3.5,7.7,7.7C47.1,45.2,46.7,45.6,46.2,45.6z"/>
	<path class="st0" d="M14.5,26.3h-1.3c-1.7,0-3-1.4-3-3v-6c0-1,0.8-1.9,1.9-1.9h2.4c0.5,0,0.9,0.4,0.9,0.9c0,0.5-0.4,0.9-0.9,0.9
		h-2.4l0,6c0,0.7,0.5,1.2,1.2,1.2h1.3c0.5,0,0.9,0.4,0.9,0.9C15.4,25.9,15,26.3,14.5,26.3z"/>
	<path class="st0" d="M38.4,26.3h-1.3c-0.5,0-0.9-0.4-0.9-0.9c0-0.5,0.4-0.9,0.9-0.9h1.3c0.7,0,1.2-0.5,1.2-1.2v-6l-2.5,0
		c-0.5,0-0.9-0.4-0.9-0.9c0-0.5,0.4-0.9,0.9-0.9h2.4c1,0,1.9,0.8,1.9,1.9v6C41.4,25,40.1,26.3,38.4,26.3z"/>
	<path class="st0" d="M37.1,19.5c-0.5,0-0.9-0.4-0.9-0.9V4.8H15.4v13.8c0,0.5-0.4,0.9-0.9,0.9c-0.5,0-0.9-0.4-0.9-0.9V3.9
		C13.6,3.4,14,3,14.5,3h22.6C37.6,3,38,3.4,38,3.9v14.7C38,19.1,37.6,19.5,37.1,19.5z"/>
	<path class="st0" d="M37.1,19.5H24.7c-1.7,0-3.2-1.4-3.2-3.2c0-0.5,0.4-0.9,0.9-0.9s0.9,0.4,0.9,0.9c0,0.7,0.6,1.4,1.4,1.4h12.4
		c0.5,0,0.9,0.4,0.9,0.9S37.6,19.5,37.1,19.5z"/>
	<path class="st0" d="M37.1,15H14.5c-0.5,0-0.9-0.4-0.9-0.9c0-0.5,0.4-0.9,0.9-0.9h22.6c0.5,0,0.9,0.4,0.9,0.9
		C38,14.6,37.6,15,37.1,15z"/>
	<path class="st0" d="M42.8,15c-0.5,0-0.9-0.4-0.9-0.9V13c0-0.5,0.4-0.9,0.9-0.9c0.5,0,0.9,0.4,0.9,0.9v1.1
		C43.7,14.6,43.3,15,42.8,15z"/>
	<path class="st0" d="M42.8,10.5c-0.5,0-0.9-0.4-0.9-0.9V4.8h-33c-0.5,0-0.9-0.4-0.9-0.9S8.3,3,8.8,3h33.9c0.5,0,0.9,0.4,0.9,0.9
		v5.7C43.7,10.1,43.3,10.5,42.8,10.5z"/>
</g>
</svg>
