<?xml version="1.0" encoding="utf-8"?>
<!-- Generator: Adobe Illustrator 25.4.1, SVG Export Plug-In . SVG Version: 6.00 Build 0)  -->
<svg version="1.1" id="圖層_1" xmlns="http://www.w3.org/2000/svg" xmlns:xlink="http://www.w3.org/1999/xlink" x="0px" y="0px"
	 viewBox="0 0 60 60" style="enable-background:new 0 0 60 60;" xml:space="preserve">
<style type="text/css">
	.st0{fill:#FFFFFF;}
</style>
<g>
	<path class="st0" d="M44.1,42.3c-1-1-2.3-1.5-3.6-1.5s-2.7,0.5-3.6,1.5l-5.1,5.1c-5.3,0.5-10.4-1.3-14.1-5
		c-3.7-3.7-5.6-8.8-5.1-14.1l5.1-5.1c1-1,1.5-2.3,1.5-3.6c0-1.4-0.5-2.7-1.5-3.6l-3.5-3.5c-1.1-1.1-2.5-1.6-4.1-1.5
		C8.6,11,7.2,11.8,6.4,13C-2,24.6-0.7,40.4,9.4,50.6c5.5,5.5,12.8,8.6,20.6,8.6c6.1,0,12-1.9,17-5.5c1.2-0.9,2-2.2,2.1-3.7
		c0.1-1.5-0.4-3-1.5-4.1L44.1,42.3z M10.5,13.4c0.7,0,1.4,0.3,1.9,0.8l3.5,3.5c1,1,1,2.7,0,3.7l-1,1l-7.1-7.1
		c0.2-0.3,0.4-0.6,0.6-0.9c0.4-0.6,1.1-1,1.9-1.1C10.4,13.4,10.4,13.4,10.5,13.4z M6.5,17.6l6.6,6.6l-2.6,2.6
		c-0.2,0.2-0.3,0.5-0.4,0.7c-0.7,6.2,1.3,12.2,5.7,16.6c4.4,4.4,10.4,6.5,16.6,5.7c0.3,0,0.5-0.2,0.7-0.4l2.7-2.7l6.6,6.6
		c-10.2,5.4-22.9,3.7-31.3-4.7C2.8,40.4,1.1,27.8,6.5,17.6z M44.7,52.2l-7.1-7.1l1-1c1-1,2.7-1,3.7,0l3.5,3.5
		c0.6,0.6,0.8,1.3,0.8,2.1c-0.1,0.8-0.5,1.5-1.1,1.9C45.2,51.8,45,52,44.7,52.2z"/>
	<path class="st0" d="M50.6,9.4c-9.9-9.9-25.4-11.3-37-3.5c-0.3,0.2-0.5,0.5-0.5,0.8s0,0.7,0.2,0.9c0.2,0.3,0.5,0.5,0.8,0.5
		c0.3,0.1,0.7,0,0.9-0.2c10.5-7.2,24.7-5.8,33.8,3.2c9,9,10.4,23.2,3.2,33.8c-0.4,0.6-0.2,1.3,0.3,1.7c0.2,0.1,0.5,0.2,0.7,0.2
		c0.4,0,0.8-0.2,1-0.5C61.9,34.8,60.5,19.3,50.6,9.4z"/>
	<path class="st0" d="M36.2,17.4H44c0.7,0,1.2-0.6,1.2-1.2s-0.6-1.2-1.2-1.2h-7.7c-0.7,0-1.2,0.6-1.2,1.2S35.6,17.4,36.2,17.4z"/>
	<path class="st0" d="M48.6,21.1H36.2c-0.7,0-1.2,0.6-1.2,1.2s0.6,1.2,1.2,1.2h12.4c0.7,0,1.2-0.6,1.2-1.2S49.3,21.1,48.6,21.1z"/>
	<path class="st0" d="M23.9,23.6h7.7c0.7,0,1.2-0.6,1.2-1.2v-6.2c0-0.7-0.6-1.2-1.2-1.2h-7.7c-0.7,0-1.2,0.6-1.2,1.2v6.2
		C22.6,23,23.2,23.6,23.9,23.6z M25.1,21.1v-3.7h5.2v3.7H25.1z"/>
	<path class="st0" d="M48.6,27.3H23.9c-0.7,0-1.2,0.6-1.2,1.2s0.6,1.2,1.2,1.2h24.8c0.7,0,1.2-0.6,1.2-1.2S49.3,27.3,48.6,27.3z"/>
	<path class="st0" d="M44,35.9c0.7,0,1.2-0.6,1.2-1.2s-0.6-1.2-1.2-1.2H23.9c-0.7,0-1.2,0.6-1.2,1.2s0.6,1.2,1.2,1.2H44z"/>
</g>
</svg>
