<?xml version="1.0" encoding="utf-8"?>
<!-- Generator: Adobe Illustrator 25.4.1, SVG Export Plug-In . SVG Version: 6.00 Build 0)  -->
<svg version="1.1" id="圖層_1" xmlns="http://www.w3.org/2000/svg" xmlns:xlink="http://www.w3.org/1999/xlink" x="0px" y="0px"
	 viewBox="0 0 60 60" style="enable-background:new 0 0 60 60;" xml:space="preserve">
<style type="text/css">
	.st0{fill:none;stroke:#FFFFFF;stroke-width:2;stroke-linecap:round;stroke-linejoin:round;stroke-miterlimit:10;}
</style>
<g>
	<path class="st0" d="M50.7,34.1c-1.3,1.7-3.1,3-5.2,3.9"/>
	<path class="st0" d="M27.5,17.6l-0.7-0.4c-2-1.3-4.2-2.1-6.4-2.2"/>
	<path class="st0" d="M44.3,38.5c0.7-0.1,1.4-0.4,1.9-1.1l0.1-0.1c0.8-1.1,0.5-2.7-0.7-3.5L40,28.6"/>
	<path class="st0" d="M8.1,33.3c0.7,1.4,1.6,2.6,2.7,3.7"/>
	<path class="st0" d="M32.3,31l11.3,7.6c1.1,0.8,1.4,2.3,0.7,3.5l-0.1,0.1c-0.8,1.1-2.3,1.4-3.5,0.7l-11.4-7.7"/>
	<path class="st0" d="M29.3,35.2l10.5,7.1c1.1,0.8,1.4,2.3,0.7,3.5l-0.1,0.1c-0.8,1.1-2.3,1.4-3.5,0.7l-9.4-6.3"/>
	<path class="st0" d="M29,47.3l1.9,1.3c1.1,0.8,2.7,0.5,3.5-0.7l0.1-0.1c0.8-1.1,0.5-2.7-0.7-3.5l-6.2-4.2"/>
	<path class="st0" d="M42.2,13.5c-2.2-0.3-4.4,0-6.5,0.9l-2.1,0.8l-12.5,5l0,0c1,2.6,4,3.9,6.6,2.8l4.1-1.6l2.3,3.8
		c2,3.2,6.3,4.2,9.5,2.2"/>
	<path class="st0" d="M15.3,39.6l3.5-4.8c0.8-1.1,0.6-2.7-0.6-3.6l0,0c-1.1-0.8-2.7-0.6-3.6,0.6l-3.5,4.8c-0.8,1.1-0.6,2.7,0.6,3.6
		l0,0C12.9,41,14.5,40.8,15.3,39.6z"/>
	<path class="st0" d="M19.4,42.6l4.9-6.7c0.8-1.1,0.6-2.7-0.6-3.6l0,0c-1.1-0.8-2.7-0.6-3.6,0.6l-4.9,6.7c-0.8,1.1-0.6,2.7,0.6,3.6
		l0,0C17,44,18.6,43.8,19.4,42.6z"/>
	<path class="st0" d="M23.6,45.6l3.5-4.8c0.8-1.1,0.6-2.7-0.6-3.6l0,0c-1.1-0.8-2.7-0.6-3.6,0.6l-3.5,4.8c-0.8,1.1-0.6,2.7,0.6,3.6
		l0,0C21.1,47,22.7,46.8,23.6,45.6z"/>
	<path class="st0" d="M27.7,48.7l2.1-2.9c0.8-1.1,0.6-2.7-0.6-3.6l0,0c-1.1-0.8-2.7-0.6-3.6,0.6l-2.1,2.9c-0.8,1.1-0.6,2.7,0.6,3.6
		l0,0C25.3,50,26.9,49.8,27.7,48.7z"/>
	<polyline class="st0" points="14.2,10.3 20.6,14.7 7.7,33.9 1.1,28.7 	"/>
	<polyline class="st0" points="49.7,10.3 42.3,13.1 50.9,34.5 58.9,31.3 	"/>
</g>
</svg>
