<?xml version="1.0" encoding="utf-8"?>
<!-- Generator: Adobe Illustrator 25.4.1, SVG Export Plug-In . SVG Version: 6.00 Build 0)  -->
<svg version="1.1" id="圖層_1" xmlns="http://www.w3.org/2000/svg" xmlns:xlink="http://www.w3.org/1999/xlink" x="0px" y="0px"
	 viewBox="0 0 50 50" style="enable-background:new 0 0 50 50;" xml:space="preserve">
<style type="text/css">
	.st0{fill:#FFFFFF;}
</style>
<g>
	<path class="st0" d="M42.6,45.8H5.6c-1.8,0-3.3-1.6-3.3-3.5v-35c0-2,1.5-3.5,3.3-3.5h36.9c1.8,0,3.3,1.6,3.3,3.5v24.5
		c0,0.4-0.3,0.8-0.7,0.8c-0.4,0-0.7-0.4-0.7-0.8V7.3c0-1.1-0.8-2-1.8-2H5.6c-1,0-1.8,0.9-1.8,2v35c0,1.1,0.8,2,1.8,2h36.9
		c1,0,1.8-0.9,1.8-2v-1.6c0-0.4,0.3-0.8,0.7-0.8c0.4,0,0.7,0.4,0.7,0.8v1.6C45.9,44.2,44.4,45.8,42.6,45.8z"/>
	<path class="st0" d="M42.6,46.1H5.6c-2,0-3.6-1.7-3.6-3.8v-35c0-2.1,1.6-3.8,3.6-3.8h36.9c2,0,3.6,1.7,3.6,3.8v24.5
		c0,0.6-0.5,1.1-1,1.1c-0.6,0-1-0.5-1-1.1V7.3c0-0.9-0.7-1.7-1.6-1.7H5.6c-0.9,0-1.6,0.8-1.6,1.7v35c0,0.9,0.7,1.7,1.6,1.7h36.9
		c0.9,0,1.6-0.8,1.6-1.7v-1.6c0-0.6,0.5-1.1,1-1.1c0.6,0,1,0.5,1,1.1v1.6C46.2,44.4,44.6,46.1,42.6,46.1z M5.6,4
		C4,4,2.6,5.5,2.6,7.3v35c0,1.8,1.4,3.3,3.1,3.3h36.9c1.7,0,3.1-1.5,3.1-3.3v-1.6c0-0.3-0.2-0.5-0.5-0.5c-0.3,0-0.5,0.2-0.5,0.5v1.6
		c0,1.2-0.9,2.2-2.1,2.2H5.6c-1.2,0-2.1-1-2.1-2.2v-35C3.5,6,4.5,5,5.6,5h36.9c1.2,0,2.1,1,2.1,2.2v24.5c0,0.3,0.2,0.5,0.5,0.5
		c0.3,0,0.5-0.2,0.5-0.5V7.3c0-1.8-1.4-3.3-3.1-3.3H5.6z"/>
</g>
<g>
	<path class="st0" d="M21.1,18.8c-0.4,0-0.7-0.4-0.7-0.8v-6.8c0-0.4,0.3-0.8,0.7-0.8c0.4,0,0.7,0.4,0.7,0.8V18
		C21.8,18.5,21.5,18.8,21.1,18.8z"/>
	<path class="st0" d="M21.1,19.1c-0.6,0-1-0.5-1-1.1v-6.8c0-0.6,0.5-1.1,1-1.1c0.6,0,1,0.5,1,1.1V18C22.1,18.6,21.7,19.1,21.1,19.1z
		 M21.1,10.7c-0.3,0-0.5,0.2-0.5,0.5V18c0,0.3,0.2,0.5,0.5,0.5s0.5-0.2,0.5-0.5v-6.8C21.6,11,21.4,10.7,21.1,10.7z"/>
</g>
<g>
	<path class="st0" d="M21.1,32.3c-0.4,0-0.7-0.4-0.7-0.8v-6.8c0-0.4,0.3-0.8,0.7-0.8c0.4,0,0.7,0.4,0.7,0.8v6.8
		C21.8,32,21.5,32.3,21.1,32.3z"/>
	<path class="st0" d="M21.1,32.6c-0.6,0-1-0.5-1-1.1v-6.8c0-0.6,0.5-1.1,1-1.1c0.6,0,1,0.5,1,1.1v6.8C22.1,32.1,21.7,32.6,21.1,32.6
		z M21.1,24.3c-0.3,0-0.5,0.2-0.5,0.5v6.8c0,0.3,0.2,0.5,0.5,0.5s0.5-0.2,0.5-0.5v-6.8C21.6,24.5,21.4,24.3,21.1,24.3z"/>
</g>
<g>
	<path class="st0" d="M21.1,45.8h-6c-0.4,0-0.7-0.4-0.7-0.8v-6.7c0-0.4,0.3-0.8,0.7-0.8c0.4,0,0.7,0.4,0.7,0.8v5.9h4.5v-5.9
		c0-0.4,0.3-0.8,0.7-0.8c0.4,0,0.7,0.4,0.7,0.8V45C21.8,45.4,21.5,45.8,21.1,45.8z"/>
	<path class="st0" d="M21.1,46.1h-6c-0.6,0-1-0.5-1-1.1v-6.7c0-0.6,0.5-1.1,1-1.1c0.6,0,1,0.5,1,1.1V44h4v-5.6c0-0.6,0.5-1.1,1-1.1
		c0.6,0,1,0.5,1,1.1V45C22.1,45.6,21.7,46.1,21.1,46.1z M15.1,37.8c-0.3,0-0.5,0.2-0.5,0.5V45c0,0.3,0.2,0.5,0.5,0.5h6
		c0.3,0,0.5-0.2,0.5-0.5v-6.7c0-0.3-0.2-0.5-0.5-0.5s-0.5,0.2-0.5,0.5v6.2h-5.1v-6.2C15.6,38,15.3,37.8,15.1,37.8z"/>
</g>
<g>
	<path class="st0" d="M33.1,45.8h-6c-0.4,0-0.7-0.4-0.7-0.8c0-0.4,0.3-0.8,0.7-0.8h5.3v-5.9c0-0.4,0.3-0.8,0.7-0.8
		c0.4,0,0.7,0.4,0.7,0.8V45C33.9,45.4,33.5,45.8,33.1,45.8z"/>
	<path class="st0" d="M33.1,46.1h-6c-0.6,0-1-0.5-1-1.1c0-0.6,0.5-1.1,1-1.1h5v-5.6c0-0.6,0.5-1.1,1-1.1c0.6,0,1,0.5,1,1.1V45
		C34.1,45.6,33.7,46.1,33.1,46.1z M27.1,44.5c-0.3,0-0.5,0.2-0.5,0.5c0,0.3,0.2,0.5,0.5,0.5h6c0.3,0,0.5-0.2,0.5-0.5v-6.7
		c0-0.3-0.2-0.5-0.5-0.5s-0.5,0.2-0.5,0.5v6.2H27.1z"/>
</g>
<g>
	<path class="st0" d="M27.1,39.1c-0.4,0-0.7-0.4-0.7-0.8v-27c0-0.4,0.3-0.8,0.7-0.8s0.7,0.4,0.7,0.8v27
		C27.9,38.7,27.5,39.1,27.1,39.1z"/>
	<path class="st0" d="M27.1,39.4c-0.6,0-1-0.5-1-1.1v-27c0-0.6,0.5-1.1,1-1.1c0.6,0,1,0.5,1,1.1v27C28.1,38.9,27.7,39.4,27.1,39.4z
		 M27.1,10.7c-0.3,0-0.5,0.2-0.5,0.5v27c0,0.3,0.2,0.5,0.5,0.5s0.5-0.2,0.5-0.5v-27C27.6,11,27.4,10.7,27.1,10.7z"/>
</g>
<g>
	<path class="st0" d="M33.1,32.3c-0.4,0-0.7-0.4-0.7-0.8V5.3h-5.3c-0.4,0-0.7-0.4-0.7-0.8c0-0.4,0.3-0.8,0.7-0.8h6
		c0.4,0,0.7,0.4,0.7,0.8v27C33.9,32,33.5,32.3,33.1,32.3z"/>
	<path class="st0" d="M33.1,32.6c-0.6,0-1-0.5-1-1.1v-26h-5c-0.6,0-1-0.5-1-1.1c0-0.6,0.5-1.1,1-1.1h6c0.6,0,1,0.5,1,1.1v27
		C34.1,32.1,33.7,32.6,33.1,32.6z M27.1,4c-0.3,0-0.5,0.2-0.5,0.5c0,0.3,0.2,0.5,0.5,0.5h5.5v26.5c0,0.3,0.2,0.5,0.5,0.5
		s0.5-0.2,0.5-0.5v-27c0-0.3-0.2-0.5-0.5-0.5H27.1z"/>
</g>
<g>
	<path class="st0" d="M15.1,12.1h-6c-0.4,0-0.7-0.4-0.7-0.8V4.5c0-0.4,0.3-0.8,0.7-0.8h6c0.4,0,0.7,0.4,0.7,0.8
		c0,0.4-0.3,0.8-0.7,0.8H9.8v5.2h5.3c0.4,0,0.7,0.4,0.7,0.8S15.5,12.1,15.1,12.1z"/>
	<path class="st0" d="M15.1,12.3h-6c-0.6,0-1-0.5-1-1.1V4.5c0-0.6,0.5-1.1,1-1.1h6c0.6,0,1,0.5,1,1.1c0,0.6-0.5,1.1-1,1.1h-5v4.7h5
		c0.6,0,1,0.5,1,1.1C16.1,11.9,15.6,12.3,15.1,12.3z M9.1,4C8.8,4,8.6,4.2,8.6,4.5v6.8c0,0.3,0.2,0.5,0.5,0.5h6
		c0.3,0,0.5-0.2,0.5-0.5c0-0.3-0.2-0.5-0.5-0.5H9.5V5h5.5c0.3,0,0.5-0.2,0.5-0.5c0-0.3-0.2-0.5-0.5-0.5H9.1z"/>
</g>
<g>
	<path class="st0" d="M27.1,12.1h-6c-0.4,0-0.7-0.4-0.7-0.8s0.3-0.8,0.7-0.8h6c0.4,0,0.7,0.4,0.7,0.8S27.5,12.1,27.1,12.1z"/>
	<path class="st0" d="M27.1,12.3h-6c-0.6,0-1-0.5-1-1.1c0-0.6,0.5-1.1,1-1.1h6c0.6,0,1,0.5,1,1.1C28.1,11.9,27.7,12.3,27.1,12.3z
		 M21.1,10.7c-0.3,0-0.5,0.2-0.5,0.5c0,0.3,0.2,0.5,0.5,0.5h6c0.3,0,0.5-0.2,0.5-0.5c0-0.3-0.2-0.5-0.5-0.5H21.1z"/>
</g>
<g>
	<path class="st0" d="M33.1,12.1c-0.4,0-0.7-0.4-0.7-0.8V4.5c0-0.4,0.3-0.8,0.7-0.8c0.4,0,0.7,0.4,0.7,0.8v6.8
		C33.9,11.7,33.5,12.1,33.1,12.1z"/>
	<path class="st0" d="M33.1,12.3c-0.6,0-1-0.5-1-1.1V4.5c0-0.6,0.5-1.1,1-1.1c0.6,0,1,0.5,1,1.1v6.8C34.1,11.9,33.7,12.3,33.1,12.3z
		 M33.1,4c-0.3,0-0.5,0.2-0.5,0.5v6.8c0,0.3,0.2,0.5,0.5,0.5s0.5-0.2,0.5-0.5V4.5C33.6,4.2,33.4,4,33.1,4z"/>
</g>
<g>
	<path class="st0" d="M39.1,45.8c-0.4,0-0.7-0.4-0.7-0.8V11.3c0-0.4,0.3-0.8,0.7-0.8c0.4,0,0.7,0.4,0.7,0.8V45
		C39.9,45.4,39.6,45.8,39.1,45.8z"/>
	<path class="st0" d="M39.1,46.1c-0.6,0-1-0.5-1-1.1V11.3c0-0.6,0.5-1.1,1-1.1c0.6,0,1,0.5,1,1.1V45C40.2,45.6,39.7,46.1,39.1,46.1z
		 M39.1,10.7c-0.3,0-0.5,0.2-0.5,0.5V45c0,0.3,0.2,0.5,0.5,0.5c0.3,0,0.5-0.2,0.5-0.5V11.3C39.6,11,39.4,10.7,39.1,10.7z"/>
</g>
<g>
	<path class="st0" d="M21.1,18.8h-6c-0.4,0-0.7-0.4-0.7-0.8c0-0.4,0.3-0.8,0.7-0.8h6c0.4,0,0.7,0.4,0.7,0.8
		C21.8,18.5,21.5,18.8,21.1,18.8z"/>
	<path class="st0" d="M21.1,19.1h-6c-0.6,0-1-0.5-1-1.1s0.5-1.1,1-1.1h6c0.6,0,1,0.5,1,1.1S21.7,19.1,21.1,19.1z M15.1,17.5
		c-0.3,0-0.5,0.2-0.5,0.5c0,0.3,0.2,0.5,0.5,0.5h6c0.3,0,0.5-0.2,0.5-0.5c0-0.3-0.2-0.5-0.5-0.5H15.1z"/>
</g>
<g>
	<path class="st0" d="M21.1,25.6h-12c-0.4,0-0.7-0.4-0.7-0.8c0-0.4,0.3-0.8,0.7-0.8h12c0.4,0,0.7,0.4,0.7,0.8
		C21.8,25.2,21.5,25.6,21.1,25.6z"/>
	<path class="st0" d="M21.1,25.8h-12c-0.6,0-1-0.5-1-1.1c0-0.6,0.5-1.1,1-1.1h12c0.6,0,1,0.5,1,1.1C22.1,25.4,21.7,25.8,21.1,25.8z
		 M9.1,24.3c-0.3,0-0.5,0.2-0.5,0.5c0,0.3,0.2,0.5,0.5,0.5h12c0.3,0,0.5-0.2,0.5-0.5c0-0.3-0.2-0.5-0.5-0.5H9.1z"/>
</g>
<g>
	<path class="st0" d="M9.1,39.1c-0.4,0-0.7-0.4-0.7-0.8v-6.8c0-0.4,0.3-0.8,0.7-0.8c0.4,0,0.7,0.4,0.7,0.8v6.8
		C9.8,38.7,9.5,39.1,9.1,39.1z"/>
	<path class="st0" d="M9.1,39.4c-0.6,0-1-0.5-1-1.1v-6.8c0-0.6,0.5-1.1,1-1.1c0.6,0,1,0.5,1,1.1v6.8C10.1,38.9,9.6,39.4,9.1,39.4z
		 M9.1,31c-0.3,0-0.5,0.2-0.5,0.5v6.8c0,0.3,0.2,0.5,0.5,0.5c0.3,0,0.5-0.2,0.5-0.5v-6.8C9.5,31.3,9.3,31,9.1,31z"/>
</g>
<g>
	<path class="st0" d="M15.1,32.3h-6c-0.4,0-0.7-0.4-0.7-0.8c0-0.4,0.3-0.8,0.7-0.8h6c0.4,0,0.7,0.4,0.7,0.8
		C15.8,32,15.5,32.3,15.1,32.3z"/>
	<path class="st0" d="M15.1,32.6h-6c-0.6,0-1-0.5-1-1.1c0-0.6,0.5-1.1,1-1.1h6c0.6,0,1,0.5,1,1.1C16.1,32.1,15.6,32.6,15.1,32.6z
		 M9.1,31c-0.3,0-0.5,0.2-0.5,0.5c0,0.3,0.2,0.5,0.5,0.5h6c0.3,0,0.5-0.2,0.5-0.5c0-0.3-0.2-0.5-0.5-0.5H9.1z"/>
</g>
<g>
	<path class="st0" d="M21.1,32.3h-6c-0.4,0-0.7-0.4-0.7-0.8c0-0.4,0.3-0.8,0.7-0.8h6c0.4,0,0.7,0.4,0.7,0.8
		C21.8,32,21.5,32.3,21.1,32.3z"/>
	<path class="st0" d="M21.1,32.6h-6c-0.6,0-1-0.5-1-1.1c0-0.6,0.5-1.1,1-1.1h6c0.6,0,1,0.5,1,1.1C22.1,32.1,21.7,32.6,21.1,32.6z
		 M15.1,31c-0.3,0-0.5,0.2-0.5,0.5c0,0.3,0.2,0.5,0.5,0.5h6c0.3,0,0.5-0.2,0.5-0.5c0-0.3-0.2-0.5-0.5-0.5H15.1z"/>
</g>
<g>
	<path class="st0" d="M21.1,39.1h-6c-0.4,0-0.7-0.4-0.7-0.8c0-0.4,0.3-0.8,0.7-0.8h6c0.4,0,0.7,0.4,0.7,0.8
		C21.8,38.7,21.5,39.1,21.1,39.1z"/>
	<path class="st0" d="M21.1,39.4h-6c-0.6,0-1-0.5-1-1.1c0-0.6,0.5-1.1,1-1.1h6c0.6,0,1,0.5,1,1.1C22.1,38.9,21.7,39.4,21.1,39.4z
		 M15.1,37.8c-0.3,0-0.5,0.2-0.5,0.5c0,0.3,0.2,0.5,0.5,0.5h6c0.3,0,0.5-0.2,0.5-0.5c0-0.3-0.2-0.5-0.5-0.5H15.1z"/>
</g>
<g>
	<path class="st0" d="M39.1,39.1h-6c-0.4,0-0.7-0.4-0.7-0.8c0-0.4,0.3-0.8,0.7-0.8h5.3v-6c0-0.4,0.3-0.8,0.7-0.8
		c0.4,0,0.7,0.4,0.7,0.8v6.8C39.9,38.7,39.6,39.1,39.1,39.1z"/>
	<path class="st0" d="M39.1,39.4h-6c-0.6,0-1-0.5-1-1.1c0-0.6,0.5-1.1,1-1.1h5v-5.7c0-0.6,0.5-1.1,1-1.1c0.6,0,1,0.5,1,1.1v6.8
		C40.2,38.9,39.7,39.4,39.1,39.4z M33.1,37.8c-0.3,0-0.5,0.2-0.5,0.5c0,0.3,0.2,0.5,0.5,0.5h6c0.3,0,0.5-0.2,0.5-0.5v-6.8
		c0-0.3-0.2-0.5-0.5-0.5c-0.3,0-0.5,0.2-0.5,0.5v6.2H33.1z"/>
</g>
<g>
	<path class="st0" d="M9.1,25.6h-6c-0.4,0-0.7-0.4-0.7-0.8c0-0.4,0.3-0.8,0.7-0.8h6c0.4,0,0.7,0.4,0.7,0.8
		C9.8,25.2,9.5,25.6,9.1,25.6z"/>
	<path class="st0" d="M9.1,25.8h-6c-0.6,0-1-0.5-1-1.1c0-0.6,0.5-1.1,1-1.1h6c0.6,0,1,0.5,1,1.1C10.1,25.4,9.6,25.8,9.1,25.8z
		 M3.1,24.3c-0.3,0-0.5,0.2-0.5,0.5c0,0.3,0.2,0.5,0.5,0.5h6c0.3,0,0.5-0.2,0.5-0.5c0-0.3-0.2-0.5-0.5-0.5H3.1z"/>
</g>
<g>
	<path class="st0" d="M9.1,18.8c-0.4,0-0.7-0.4-0.7-0.8v-6.8c0-0.4,0.3-0.8,0.7-0.8c0.4,0,0.7,0.4,0.7,0.8V18
		C9.8,18.5,9.5,18.8,9.1,18.8z"/>
	<path class="st0" d="M9.1,19.1c-0.6,0-1-0.5-1-1.1v-6.8c0-0.6,0.5-1.1,1-1.1c0.6,0,1,0.5,1,1.1V18C10.1,18.6,9.6,19.1,9.1,19.1z
		 M9.1,10.7c-0.3,0-0.5,0.2-0.5,0.5V18c0,0.3,0.2,0.5,0.5,0.5c0.3,0,0.5-0.2,0.5-0.5v-6.8C9.5,11,9.3,10.7,9.1,10.7z"/>
</g>
<g>
	<path class="st0" d="M46.6,36.8h-3.4c-0.4,0-0.7-0.4-0.7-0.8c0-0.4,0.3-0.8,0.7-0.8H45c-0.1-0.3,0-0.6,0.2-0.8c0.3-0.3,0.8-0.3,1,0
		l0.9,1c0.2,0.2,0.3,0.6,0.2,0.9C47.2,36.6,46.9,36.8,46.6,36.8z"/>
	<path class="st0" d="M46.6,37.1h-3.4c-0.6,0-1-0.5-1-1.1c0-0.6,0.5-1.1,1-1.1h1.4c0-0.3,0.1-0.5,0.3-0.7c0.2-0.2,0.4-0.3,0.7-0.3h0
		c0.3,0,0.5,0.1,0.7,0.3l0.9,1c0.3,0.3,0.4,0.7,0.2,1.1C47.4,36.8,47,37.1,46.6,37.1z M43.3,35.5c-0.3,0-0.5,0.2-0.5,0.5
		c0,0.3,0.2,0.5,0.5,0.5h3.4c0.2,0,0.4-0.1,0.4-0.3c0.1-0.2,0-0.4-0.1-0.6l-0.9-1c-0.1-0.1-0.2-0.1-0.3-0.1l0,0
		c-0.1,0-0.2,0.1-0.3,0.1c-0.1,0.1-0.2,0.3-0.1,0.5l0.1,0.3H43.3z"/>
</g>
<g>
	<path class="st0" d="M45.7,37.8c-0.2,0-0.4-0.1-0.5-0.2c-0.2-0.2-0.3-0.5-0.2-0.8h-1.7c-0.4,0-0.7-0.4-0.7-0.8
		c0-0.4,0.3-0.8,0.7-0.8h3.4c0.3,0,0.6,0.2,0.7,0.5c0.1,0.3,0.1,0.6-0.2,0.9l-0.9,1C46.1,37.7,45.9,37.8,45.7,37.8z"/>
	<path class="st0" d="M45.7,38.1c-0.3,0-0.5-0.1-0.7-0.3c-0.2-0.2-0.3-0.4-0.3-0.7h-1.4c-0.6,0-1-0.5-1-1.1c0-0.6,0.5-1.1,1-1.1h3.4
		c0.4,0,0.8,0.3,0.9,0.7c0.2,0.4,0.1,0.8-0.2,1.1l-0.9,1C46.2,38,46,38.1,45.7,38.1z M43.3,35.5c-0.3,0-0.5,0.2-0.5,0.5
		c0,0.3,0.2,0.5,0.5,0.5h2.1l-0.1,0.3c0,0.2,0,0.4,0.1,0.5c0.2,0.2,0.5,0.2,0.7,0l0.9-1c0.1-0.2,0.2-0.4,0.1-0.6
		c-0.1-0.2-0.2-0.3-0.4-0.3H43.3z"/>
</g>
</svg>
