<?xml version="1.0" encoding="utf-8"?>
<!-- Generator: Adobe Illustrator 25.4.1, SVG Export Plug-In . SVG Version: 6.00 Build 0)  -->
<svg version="1.1" id="圖層_1" xmlns="http://www.w3.org/2000/svg" xmlns:xlink="http://www.w3.org/1999/xlink" x="0px" y="0px"
	 viewBox="0 0 60 60" style="enable-background:new 0 0 60 60;" xml:space="preserve">
<style type="text/css">
	.st0{fill:#FFFFFF;}
</style>
<g>
	<path class="st0" d="M44.6,38.4c-0.5,0-1-0.3-1.2-0.8c-0.3-0.6,0.1-1.4,0.7-1.6c1.8-0.7,3.3-1.9,4.5-3.3c0.4-0.5,1.2-0.6,1.8-0.2
		c0.5,0.4,0.6,1.2,0.2,1.8c-1.4,1.8-3.4,3.2-5.5,4.1C45,38.4,44.8,38.4,44.6,38.4z"/>
	<path class="st0" d="M27.4,18.9c-0.2,0-0.5-0.1-0.7-0.2l-0.6-0.4c-1.7-1.1-3.6-1.8-5.6-1.9c-0.7-0.1-1.2-0.7-1.2-1.3
		c0.1-0.7,0.7-1.2,1.3-1.2c2.4,0.2,4.8,1,6.8,2.4l0.6,0.4c0.6,0.4,0.7,1.2,0.3,1.7C28.2,18.7,27.8,18.9,27.4,18.9z"/>
	<path class="st0" d="M43.5,38.9c-0.6,0-1.2-0.5-1.3-1.2c-0.1-0.7,0.5-1.3,1.1-1.4c0.3,0,0.7-0.2,0.8-0.5c0.4-0.6,0.3-1.3-0.3-1.7
		c-0.1,0-0.1-0.1-0.2-0.1l-5.3-5c-0.5-0.5-0.5-1.3-0.1-1.8c0.5-0.5,1.3-0.5,1.8-0.1l5.2,4.9c1.6,1.2,2,3.4,0.9,5
		c-0.7,1-1.7,1.6-2.8,1.7C43.6,38.9,43.5,38.9,43.5,38.9z"/>
	<path class="st0" d="M11.4,37.4c-0.3,0-0.6-0.1-0.9-0.3c-1.2-1.1-2.2-2.4-2.9-3.9c-0.3-0.6,0-1.4,0.6-1.7c0.6-0.3,1.4,0,1.7,0.6
		c0.6,1.2,1.4,2.3,2.4,3.2c0.5,0.5,0.5,1.3,0.1,1.8C12.1,37.3,11.7,37.4,11.4,37.4z"/>
	<path class="st0" d="M41.4,43.5c-0.7,0-1.4-0.2-2-0.6l-10.9-7.4c-0.6-0.4-0.7-1.2-0.3-1.8c0.4-0.6,1.2-0.7,1.8-0.3l10.9,7.4
		c0.5,0.4,1.2,0.2,1.6-0.3c0.4-0.6,0.3-1.3-0.3-1.7l-10.8-7.3c-0.6-0.4-0.7-1.2-0.3-1.8c0.4-0.6,1.2-0.7,1.8-0.3l10.8,7.3
		c0.8,0.5,1.4,1.4,1.5,2.3c0.2,1,0,1.9-0.6,2.7C43.7,42.9,42.6,43.5,41.4,43.5z"/>
	<path class="st0" d="M37.8,47c-0.7,0-1.4-0.2-2-0.6l-9-6.1c-0.6-0.4-0.7-1.2-0.3-1.7c0.4-0.6,1.2-0.7,1.7-0.3l9,6.1
		c0.5,0.4,1.2,0.2,1.6-0.3c0.4-0.6,0.3-1.3-0.3-1.7l-10.1-6.8c-0.6-0.4-0.7-1.2-0.3-1.8c0.4-0.6,1.2-0.7,1.8-0.3l10.1,6.8
		c1.7,1.1,2.1,3.4,1,5.1C40.1,46.4,39,47,37.8,47z"/>
	<path class="st0" d="M32,49c-0.7,0-1.4-0.2-2-0.6l-1.9-1.3c-0.6-0.4-0.7-1.2-0.3-1.8c0.4-0.6,1.2-0.7,1.8-0.3l1.9,1.3
		c0.3,0.2,0.6,0.2,0.9,0.2c0.3-0.1,0.6-0.2,0.7-0.5c0.2-0.3,0.3-0.6,0.2-0.9c-0.1-0.3-0.2-0.6-0.5-0.7l-6-4
		c-0.6-0.4-0.7-1.2-0.3-1.7c0.4-0.6,1.2-0.7,1.7-0.3l6,4c0.8,0.5,1.4,1.4,1.5,2.3c0.2,1,0,1.9-0.6,2.7c-0.6,0.9-1.4,1.4-2.4,1.6
		C32.5,49,32.2,49,32,49z"/>
	<path class="st0" d="M39.4,29.2c-0.6,0-1.2-0.1-1.8-0.2c-2.1-0.5-3.8-1.7-4.9-3.5l-1.7-2.7L28.1,24c-3.1,1.3-6.7-0.3-8-3.4
		c-0.3-0.6,0.1-1.4,0.7-1.6l13.9-5.6c2.2-0.9,4.6-1.2,6.9-0.9c0.7,0.1,1.2,0.7,1.1,1.4c-0.1,0.7-0.7,1.2-1.4,1.1
		c-1.9-0.2-3.9,0-5.6,0.7l-12.6,5c1,1.1,2.6,1.5,4.1,0.9l3.9-1.5c0.6-0.2,1.2,0,1.5,0.5l2.2,3.6c0.8,1.2,1.9,2.1,3.3,2.4
		c1.4,0.3,2.8,0.1,4-0.7c0.6-0.4,1.4-0.2,1.7,0.4c0.4,0.6,0.2,1.4-0.4,1.7C42.3,28.8,40.9,29.2,39.4,29.2z"/>
	<path class="st0" d="M13.7,41c-0.8,0-1.5-0.2-2.2-0.7c-1.7-1.2-2-3.5-0.8-5.2l3.3-4.6c1.2-1.7,3.5-2,5.2-0.8
		c0.8,0.6,1.3,1.4,1.5,2.4c0.2,1-0.1,2-0.7,2.8l-3.3,4.6C16,40.4,14.9,41,13.7,41z M17.1,31.5c-0.4,0-0.7,0.2-1,0.5l-3.3,4.6
		c-0.4,0.5-0.3,1.3,0.3,1.7c0.5,0.4,1.3,0.3,1.7-0.3l0,0l3.3-4.6c0.2-0.3,0.3-0.6,0.2-0.9c0-0.3-0.2-0.6-0.5-0.8
		C17.6,31.5,17.3,31.5,17.1,31.5z"/>
	<path class="st0" d="M17.7,43.8c-0.8,0-1.5-0.2-2.2-0.7c-0.8-0.6-1.3-1.4-1.5-2.4c-0.2-1,0.1-2,0.7-2.8l4.7-6.5
		c0.6-0.8,1.4-1.3,2.4-1.5c1-0.2,2,0.1,2.8,0.7c0.8,0.6,1.3,1.4,1.5,2.4c0.2,1-0.1,2-0.7,2.8l-4.7,6.5l0,0c-0.6,0.8-1.4,1.3-2.4,1.5
		C18.1,43.8,17.9,43.8,17.7,43.8z M19.7,41.6L19.7,41.6L19.7,41.6z M22.4,32.5c-0.1,0-0.1,0-0.2,0c-0.3,0-0.6,0.2-0.8,0.5l-4.7,6.5
		c-0.2,0.3-0.3,0.6-0.2,0.9c0,0.3,0.2,0.6,0.5,0.8c0.3,0.2,0.6,0.3,0.9,0.2c0.3,0,0.6-0.2,0.8-0.5l4.7-6.5c0.2-0.3,0.3-0.6,0.2-0.9
		c0-0.3-0.2-0.6-0.5-0.8C22.9,32.6,22.6,32.5,22.4,32.5z"/>
	<path class="st0" d="M21.6,46.7c-0.8,0-1.5-0.2-2.2-0.7c-0.8-0.6-1.3-1.4-1.5-2.4s0.1-2,0.7-2.8l3.3-4.6c0.6-0.8,1.4-1.3,2.4-1.5
		c1-0.2,2,0.1,2.8,0.7c0.8,0.6,1.3,1.4,1.5,2.4c0.2,1-0.1,2-0.7,2.8l-3.3,4.6l0,0c-0.6,0.8-1.4,1.3-2.4,1.5
		C22,46.7,21.8,46.7,21.6,46.7z M23.6,44.5L23.6,44.5L23.6,44.5z M25,37.2c-0.4,0-0.7,0.2-1,0.5l-3.3,4.6c-0.2,0.3-0.3,0.6-0.2,0.9
		s0.2,0.6,0.5,0.8c0.5,0.4,1.3,0.3,1.7-0.3l3.3-4.6c0.2-0.3,0.3-0.6,0.2-0.9c0-0.3-0.2-0.6-0.5-0.8C25.5,37.3,25.2,37.2,25,37.2z"/>
	<path class="st0" d="M25.6,49.6c-0.8,0-1.5-0.2-2.2-0.7c-0.8-0.6-1.3-1.4-1.5-2.4c-0.2-1,0.1-2,0.7-2.8l2-2.7
		c0.6-0.8,1.4-1.3,2.4-1.5c1-0.2,2,0.1,2.8,0.7c0.8,0.6,1.3,1.4,1.5,2.4s-0.1,2-0.7,2.8l-2,2.7l0,0c-0.6,0.8-1.4,1.3-2.4,1.5
		C26,49.6,25.8,49.6,25.6,49.6z M27.6,47.3L27.6,47.3L27.6,47.3z M27.6,42c-0.1,0-0.1,0-0.2,0c-0.3,0-0.6,0.2-0.8,0.5l-2,2.7
		c-0.2,0.3-0.3,0.6-0.2,0.9s0.2,0.6,0.5,0.8c0.5,0.4,1.3,0.3,1.7-0.3l2-2.7c0.2-0.3,0.3-0.6,0.2-0.9s-0.2-0.6-0.5-0.8
		C28.1,42,27.9,42,27.6,42z"/>
	<path class="st0" d="M8.4,34.4c-0.3,0-0.6-0.1-0.8-0.3l-6.4-5c-0.5-0.4-0.6-1.2-0.2-1.8c0.4-0.5,1.2-0.6,1.8-0.2l5.3,4.1l10.9-16.2
		l-5.1-3.6c-0.6-0.4-0.7-1.2-0.3-1.8c0.4-0.6,1.2-0.7,1.8-0.3l6.1,4.3c0.6,0.4,0.7,1.2,0.3,1.7L9.5,33.9c-0.2,0.3-0.5,0.5-0.8,0.5
		C8.5,34.4,8.5,34.4,8.4,34.4z"/>
	<path class="st0" d="M49.8,35.1c-0.2,0-0.3,0-0.5-0.1c-0.3-0.1-0.6-0.4-0.7-0.7l-8.2-20.6c-0.1-0.3-0.1-0.7,0-1
		c0.1-0.3,0.4-0.6,0.7-0.7l7.2-2.7c0.6-0.2,1.4,0.1,1.6,0.7c0.2,0.7-0.1,1.4-0.7,1.6l-6,2.3l7.3,18.2l6.6-2.6
		c0.6-0.3,1.4,0.1,1.6,0.7c0.3,0.6-0.1,1.4-0.7,1.6L50.3,35C50.1,35,50,35.1,49.8,35.1z"/>
</g>
</svg>
