<?xml version="1.0" encoding="utf-8"?>
<!-- Generator: Adobe Illustrator 25.4.1, SVG Export Plug-In . SVG Version: 6.00 Build 0)  -->
<svg version="1.1" id="圖層_1" xmlns="http://www.w3.org/2000/svg" xmlns:xlink="http://www.w3.org/1999/xlink" x="0px" y="0px"
	 viewBox="0 0 60 60" style="enable-background:new 0 0 60 60;" xml:space="preserve">
<style type="text/css">
	.st0{fill:none;stroke:#FFFFFF;stroke-width:2;stroke-linecap:round;stroke-linejoin:round;stroke-miterlimit:10;}
</style>
<g>
	<path class="st0" d="M35.1,23h-4.6c-1.3,0.2-2.4-0.8-2.4-2.2l0,0c0-0.8,0.4-1.6,1.1-2.2c0.7-0.7,1.6-1,2.6-1h5.3c1,0,1.9,0.3,2.6,1
		c0.7,0.7,1.1,1.4,1.1,2.2l0,0c0,0.7-0.3,1.2-0.7,1.7"/>
	<path class="st0" d="M14.3,37.4c1-1.3,1.5-2.4,2.2-3.9c0.6-1.4,3.1-4.2,4.2-5.4l0,0l7.1-7.1l0,0c1.9,1.9,1.9,4.9,0,6.8l-3,3
		l3.8,4.2c2.2,2.4,2.1,6.1-0.2,8.3l0,0"/>
	<path class="st0" d="M32.8,29.5l13.4-13.4c0.9-0.9,2.5-0.9,3.4,0l0,0c0.9,0.9,0.9,2.5,0,3.4L36.2,32.9"/>
	<path class="st0" d="M36.3,33l10.5-10.5c0.9-0.9,2.5-0.9,3.4,0l0,0c0.9,0.9,0.9,2.5,0,3.4L39.7,36.3"/>
	<path class="st0" d="M28.8,51.7c1.2-1,2.5-1.8,3.9-2.4c1.2-0.6,2.3-1.3,3.2-2.3l7.7-7.7l7.1-7.1c0.9-0.9,0.9-2.5,0-3.4l0,0
		c-0.9-0.9-2.5-0.9-3.4,0l-7.6,7.6"/>
	<path class="st0" d="M32.6,16.4c1.6-1.5,3.4-3.1,4.4-4.1c1.7-1.6,3.3-3.6,2.9-6.1c-0.5-2.8-3-4.9-5.9-4.9c-3.2,0-5.8,2.7-5.8,5.9
		c0-3.2-2.6-5.8-5.8-5.9c-2.9-0.1-5.4,2-5.9,4.8c-0.5,2.6,1.1,4.4,2.9,6.2c1.7,1.7,7.3,6.8,8.6,8"/>
	<polygon class="st0" points="8,41.5 13.2,36.3 29.9,53 24.7,58.2 	"/>
</g>
</svg>
