<?xml version="1.0" encoding="utf-8"?>
<!-- Generator: Adobe Illustrator 25.4.1, SVG Export Plug-In . SVG Version: 6.00 Build 0)  -->
<svg version="1.1" id="圖層_1" xmlns="http://www.w3.org/2000/svg" xmlns:xlink="http://www.w3.org/1999/xlink" x="0px" y="0px"
	 viewBox="0 0 50 50" style="enable-background:new 0 0 50 50;" xml:space="preserve">
<style type="text/css">
	.st0{fill:#FFFFFF;}
</style>
<g>
	<path class="st0" d="M42.2,44.8H7.4c-1.7,0-3.2-1.5-3.2-3.3V8.6c0-1.8,1.4-3.3,3.2-3.3h34.7c1.7,0,3.2,1.5,3.2,3.3v23.1
		c0,0.4-0.3,0.8-0.7,0.8c-0.4,0-0.7-0.3-0.7-0.8V8.6c0-1.1-0.8-1.8-1.7-1.8H7.4c-1,0-1.7,0.9-1.7,1.8v32.9c0,1.1,0.8,1.8,1.7,1.8
		h34.7c1,0,1.7-0.9,1.7-1.8v-1.5c0-0.4,0.3-0.8,0.7-0.8c0.4,0,0.7,0.3,0.7,0.8v1.5C45.2,43.3,43.9,44.8,42.2,44.8z"/>
	<path class="st0" d="M42.2,45.1H7.4c-1.8,0-3.3-1.6-3.3-3.5v-33c0-2,1.5-3.5,3.3-3.5h34.7c1.8,0,3.3,1.6,3.3,3.5v23.1
		c0,0.6-0.4,1-1,1s-1-0.5-1-1V8.6c0-0.9-0.7-1.6-1.4-1.6H7.4C6.6,7,5.9,7.7,5.9,8.6v32.9c0,0.9,0.7,1.6,1.5,1.6h34.7
		c0.9,0,1.4-0.8,1.4-1.6v-1.5c0-0.6,0.4-1,1-1s1,0.5,1,1v1.5C45.5,43.5,44,45.1,42.2,45.1z M7.4,5.5c-1.6,0-2.9,1.3-2.9,3.1v32.9
		c0,1.7,1.2,3.1,2.9,3.1h34.7c1.6,0,2.9-1.3,2.9-3.1v-1.5c0-0.3-0.2-0.5-0.5-0.5s-0.5,0.2-0.5,0.5v1.5c0,1.1-0.9,2.1-2,2.1H7.4
		c-1.1,0-2-1-2-2.1V8.6c0-1.1,0.9-2.1,2-2.1h34.7c1.1,0,2,1,2,2.1v23.1c0,0.3,0.2,0.5,0.5,0.5c0.3,0,0.5-0.2,0.5-0.5V8.6
		c0-1.7-1.2-3.1-2.9-3.1H7.4z"/>
</g>
<g>
	<path class="st0" d="M22,19.5c-0.4,0-0.7-0.3-0.7-0.8v-6.3c0-0.4,0.3-0.8,0.7-0.8c0.4,0,0.7,0.3,0.7,0.8v6.3
		C22.7,19.1,22.4,19.5,22,19.5z"/>
	<path class="st0" d="M22,19.8c-0.5,0-1-0.5-1-1v-6.3c0-0.6,0.4-1,1-1c0.6,0,1,0.5,1,1v6.3C22.9,19.3,22.5,19.8,22,19.8z M22,11.9
		c-0.3,0-0.5,0.2-0.5,0.5v6.3c0,0.3,0.2,0.5,0.5,0.5s0.5-0.2,0.5-0.5v-6.3C22.4,12.1,22.2,11.9,22,11.9z"/>
</g>
<g>
	<path class="st0" d="M22,32.2c-0.4,0-0.7-0.3-0.7-0.8v-6.3c0-0.4,0.3-0.8,0.7-0.8c0.4,0,0.7,0.3,0.7,0.8v6.3
		C22.7,31.8,22.4,32.2,22,32.2z"/>
	<path class="st0" d="M22,32.4c-0.5,0-1-0.5-1-1v-6.3c0-0.6,0.4-1,1-1c0.6,0,1,0.5,1,1v6.3C22.9,32,22.5,32.4,22,32.4z M22,24.5
		c-0.3,0-0.5,0.2-0.5,0.5v6.3c0,0.3,0.2,0.5,0.5,0.5s0.5-0.2,0.5-0.5V25C22.4,24.8,22.2,24.5,22,24.5z"/>
</g>
<g>
	<path class="st0" d="M22,44.8h-5.6c-0.4,0-0.7-0.3-0.7-0.8v-6.3c0-0.4,0.3-0.8,0.7-0.8c0.4,0,0.7,0.3,0.7,0.8v5.5h4.2v-5.5
		c0-0.4,0.3-0.8,0.7-0.8c0.4,0,0.7,0.3,0.7,0.8V44C22.7,44.5,22.4,44.8,22,44.8z"/>
	<path class="st0" d="M22,45.1h-5.6c-0.5,0-1-0.5-1-1v-6.3c0-0.6,0.4-1,1-1c0.5,0,1,0.5,1,1v5.3H21v-5.3c0-0.6,0.4-1,1-1
		c0.6,0,1,0.5,1,1V44C22.9,44.6,22.5,45.1,22,45.1z M16.3,37.3c-0.3,0-0.5,0.2-0.5,0.5V44c0,0.3,0.2,0.5,0.5,0.5H22
		c0.3,0,0.5-0.2,0.5-0.5v-6.3c0-0.3-0.2-0.5-0.5-0.5s-0.5,0.2-0.5,0.5v5.8h-4.8v-5.8C16.7,37.5,16.5,37.3,16.3,37.3z"/>
</g>
<g>
	<path class="st0" d="M33.3,44.8h-5.6c-0.4,0-0.7-0.3-0.7-0.8c0-0.4,0.3-0.8,0.7-0.8h5v-5.5c0-0.4,0.3-0.8,0.7-0.8
		c0.4,0,0.7,0.3,0.7,0.8V44C33.9,44.5,33.7,44.8,33.3,44.8z"/>
	<path class="st0" d="M33.3,45.1h-5.6c-0.5,0-1-0.5-1-1c0-0.6,0.4-1,1-1h4.7v-5.3c0-0.6,0.4-1,1-1c0.6,0,1,0.5,1,1V44
		C34.2,44.6,33.7,45.1,33.3,45.1z M27.6,43.6c-0.3,0-0.5,0.2-0.5,0.5s0.2,0.5,0.5,0.5h5.6c0.3,0,0.5-0.2,0.5-0.5v-6.3
		c0-0.3-0.2-0.5-0.5-0.5c-0.3,0-0.5,0.2-0.5,0.5v5.8H27.6z"/>
</g>
<g>
	<path class="st0" d="M27.6,38.5c-0.4,0-0.7-0.3-0.7-0.8V12.4c0-0.4,0.3-0.8,0.7-0.8c0.4,0,0.7,0.3,0.7,0.8v25.4
		C28.3,38.2,28,38.5,27.6,38.5z"/>
	<path class="st0" d="M27.6,38.8c-0.5,0-1-0.5-1-1V12.4c0-0.6,0.4-1,1-1c0.6,0,1,0.5,1,1v25.4C28.6,38.3,28.1,38.8,27.6,38.8z
		 M27.6,11.9c-0.3,0-0.5,0.2-0.5,0.5v25.4c0,0.3,0.2,0.5,0.5,0.5c0.3,0,0.5-0.2,0.5-0.5V12.4C28,12.1,27.8,11.9,27.6,11.9z"/>
</g>
<g>
	<path class="st0" d="M33.3,32.2c-0.4,0-0.7-0.3-0.7-0.8V6.7h-5C27.2,6.7,27,6.5,27,6c0-0.4,0.3-0.8,0.7-0.8h5.6
		c0.4,0,0.7,0.3,0.7,0.8v25.4C33.9,31.8,33.7,32.2,33.3,32.2z"/>
	<path class="st0" d="M33.3,32.4c-0.5,0-1-0.5-1-1V7h-4.7c-0.5,0-1-0.5-1-1s0.4-1,1-1h5.6c0.5,0,1,0.5,1,1v25.4
		C34.2,32,33.7,32.4,33.3,32.4z M27.6,5.5c-0.3,0-0.5,0.2-0.5,0.5s0.2,0.5,0.5,0.5h5.2v25c0,0.3,0.2,0.5,0.5,0.5
		c0.3,0,0.5-0.2,0.5-0.5V6c0-0.3-0.2-0.5-0.5-0.5H27.6z"/>
</g>
<g>
	<path class="st0" d="M16.3,13.2h-5.6c-0.4,0-0.7-0.3-0.7-0.8V6c0-0.4,0.3-0.8,0.7-0.8h5.6C16.7,5.2,17,5.5,17,6
		c0,0.4-0.3,0.8-0.7,0.8h-5v4.9h5c0.4,0,0.7,0.3,0.7,0.8C17,12.9,16.7,13.2,16.3,13.2z"/>
	<path class="st0" d="M16.3,13.3h-5.6c-0.5,0-1-0.5-1-1V6c0-0.6,0.4-1,1-1h5.6c0.5,0,1,0.5,1,1s-0.4,1-1,1h-4.7v4.4h4.7
		c0.5,0,1,0.5,1,1C17.3,12.8,16.8,13.3,16.3,13.3z M10.7,5.5c-0.3,0-0.5,0.2-0.5,0.5v6.3c0,0.3,0.2,0.5,0.5,0.5h5.6
		c0.3,0,0.5-0.2,0.5-0.5c0-0.3-0.2-0.5-0.5-0.5h-5.2V6.5h5.2c0.3,0,0.5-0.2,0.5-0.5s-0.2-0.5-0.5-0.5H10.7z"/>
</g>
<g>
	<path class="st0" d="M27.6,13.2H22c-0.4,0-0.7-0.3-0.7-0.8c0-0.5,0.3-0.8,0.7-0.8h5.6c0.4,0,0.7,0.3,0.7,0.8
		C28.3,12.9,28,13.2,27.6,13.2z"/>
	<path class="st0" d="M27.6,13.3H22c-0.5,0-1-0.5-1-1c0-0.5,0.4-1,1-1h5.6c0.5,0,1,0.5,1,1C28.6,12.9,28.1,13.3,27.6,13.3z M22,11.9
		c-0.3,0-0.5,0.2-0.5,0.5c0,0.3,0.2,0.5,0.5,0.5h5.6c0.3,0,0.5-0.2,0.5-0.5c0-0.3-0.2-0.5-0.5-0.5H22z"/>
</g>
<g>
	<path class="st0" d="M33.3,13.2c-0.4,0-0.7-0.3-0.7-0.8V6c0-0.4,0.3-0.8,0.7-0.8c0.4,0,0.7,0.3,0.7,0.8v6.3
		C33.9,12.8,33.7,13.2,33.3,13.2z"/>
	<path class="st0" d="M33.3,13.3c-0.5,0-1-0.5-1-1V6c0-0.6,0.4-1,1-1c0.6,0,1,0.5,1,1v6.3C34.2,12.9,33.7,13.3,33.3,13.3z M33.3,5.5
		c-0.3,0-0.5,0.2-0.5,0.5v6.3c0,0.3,0.2,0.5,0.5,0.5c0.3,0,0.5-0.2,0.5-0.5V6C33.7,5.7,33.6,5.5,33.3,5.5z"/>
</g>
<g>
	<path class="st0" d="M38.9,44.8c-0.4,0-0.7-0.3-0.7-0.8V12.4c0-0.4,0.3-0.8,0.7-0.8c0.4,0,0.7,0.3,0.7,0.8V44
		C39.6,44.5,39.3,44.8,38.9,44.8z"/>
	<path class="st0" d="M38.9,45.1c-0.5,0-1-0.5-1-1V12.4c0-0.6,0.4-1,1-1c0.5,0,1,0.5,1,1V44C39.9,44.6,39.4,45.1,38.9,45.1z
		 M38.9,11.9c-0.3,0-0.5,0.2-0.5,0.5V44c0,0.3,0.2,0.5,0.5,0.5s0.5-0.2,0.5-0.5V12.4C39.4,12.1,39.2,11.9,38.9,11.9z"/>
</g>
<g>
	<path class="st0" d="M22,19.5h-5.6c-0.4,0-0.7-0.3-0.7-0.8c0-0.4,0.3-0.8,0.7-0.8H22c0.4,0,0.7,0.3,0.7,0.8
		C22.7,19.1,22.4,19.5,22,19.5z"/>
	<path class="st0" d="M22,19.8h-5.6c-0.5,0-1-0.5-1-1c0-0.5,0.4-1,1-1H22c0.5,0,1,0.5,1,1C22.9,19.3,22.5,19.8,22,19.8z M16.3,18.2
		c-0.3,0-0.5,0.2-0.5,0.5c0,0.3,0.2,0.5,0.5,0.5H22c0.3,0,0.5-0.2,0.5-0.5c0-0.3-0.2-0.5-0.5-0.5H16.3z"/>
</g>
<g>
	<path class="st0" d="M22,25.8H10.7c-0.4,0-0.7-0.3-0.7-0.8c0-0.5,0.3-0.8,0.7-0.8H22c0.4,0,0.7,0.3,0.7,0.8
		C22.7,25.5,22.4,25.8,22,25.8z"/>
	<path class="st0" d="M22,26.1H10.7c-0.5,0-1-0.5-1-1s0.4-1,1-1H22c0.5,0,1,0.5,1,1S22.5,26.1,22,26.1z M10.7,24.5
		c-0.3,0-0.5,0.2-0.5,0.5c0,0.3,0.2,0.5,0.5,0.5H22c0.3,0,0.5-0.2,0.5-0.5c0-0.3-0.2-0.5-0.5-0.5H10.7z"/>
</g>
<g>
	<path class="st0" d="M10.7,38.5c-0.4,0-0.7-0.3-0.7-0.8v-6.3c0-0.4,0.3-0.8,0.7-0.8s0.7,0.3,0.7,0.8v6.3
		C11.4,38.2,11.1,38.5,10.7,38.5z"/>
	<path class="st0" d="M10.7,38.8c-0.5,0-1-0.5-1-1v-6.3c0-0.6,0.4-1,1-1c0.5,0,1,0.5,1,1v6.3C11.6,38.3,11.2,38.8,10.7,38.8z
		 M10.7,30.9c-0.3,0-0.5,0.2-0.5,0.5v6.3c0,0.3,0.2,0.5,0.5,0.5c0.3,0,0.5-0.2,0.5-0.5v-6.3C11.1,31.1,10.9,30.9,10.7,30.9z"/>
</g>
<g>
	<path class="st0" d="M16.3,32.2h-5.6c-0.4,0-0.7-0.3-0.7-0.8c0-0.4,0.3-0.8,0.7-0.8h5.6c0.4,0,0.7,0.3,0.7,0.8
		C17,31.8,16.7,32.2,16.3,32.2z"/>
	<path class="st0" d="M16.3,32.4h-5.6c-0.5,0-1-0.5-1-1c0-0.6,0.4-1,1-1h5.6c0.5,0,1,0.5,1,1C17.2,32,16.8,32.4,16.3,32.4z
		 M10.7,30.9c-0.3,0-0.5,0.2-0.5,0.5s0.2,0.5,0.5,0.5h5.6c0.3,0,0.5-0.2,0.5-0.5s-0.2-0.5-0.5-0.5H10.7z"/>
</g>
<g>
	<path class="st0" d="M22,32.2h-5.6c-0.4,0-0.7-0.3-0.7-0.8c0-0.4,0.3-0.8,0.7-0.8H22c0.4,0,0.7,0.3,0.7,0.8
		C22.7,31.8,22.4,32.2,22,32.2z"/>
	<path class="st0" d="M22,32.4h-5.6c-0.5,0-1-0.5-1-1c0-0.6,0.4-1,1-1H22c0.5,0,1,0.5,1,1C22.9,32,22.5,32.4,22,32.4z M16.3,30.9
		c-0.3,0-0.5,0.2-0.5,0.5s0.2,0.5,0.5,0.5H22c0.3,0,0.5-0.2,0.5-0.5s-0.2-0.5-0.5-0.5H16.3z"/>
</g>
<g>
	<path class="st0" d="M22,38.5h-5.6c-0.4,0-0.7-0.3-0.7-0.8c0-0.4,0.3-0.8,0.7-0.8H22c0.4,0,0.7,0.3,0.7,0.8S22.4,38.5,22,38.5z"/>
	<path class="st0" d="M22,38.8h-5.6c-0.5,0-1-0.5-1-1c0-0.6,0.4-1,1-1H22c0.5,0,1,0.5,1,1S22.5,38.8,22,38.8z M16.3,37.3
		c-0.3,0-0.5,0.2-0.5,0.5s0.2,0.5,0.5,0.5H22c0.3,0,0.5-0.2,0.5-0.5s-0.2-0.5-0.5-0.5H16.3z"/>
</g>
<g>
	<path class="st0" d="M38.9,38.5h-5.6c-0.4,0-0.7-0.3-0.7-0.8c0-0.4,0.3-0.8,0.7-0.8h5v-5.6c0-0.4,0.3-0.8,0.7-0.8
		c0.4,0,0.7,0.3,0.7,0.8v6.3C39.6,38.2,39.3,38.5,38.9,38.5z"/>
	<path class="st0" d="M38.9,38.8h-5.6c-0.5,0-1-0.5-1-1c0-0.6,0.4-1,1-1H38v-5.4c0-0.6,0.4-1,1-1c0.5,0,1,0.5,1,1v6.3
		C39.9,38.3,39.4,38.8,38.9,38.8z M33.3,37.3c-0.3,0-0.5,0.2-0.5,0.5s0.2,0.5,0.5,0.5h5.6c0.3,0,0.5-0.2,0.5-0.5v-6.3
		c0-0.3-0.2-0.5-0.5-0.5s-0.5,0.2-0.5,0.5v5.8H33.3z"/>
</g>
<g>
	<path class="st0" d="M10.7,25.8H5c-0.4,0-0.7-0.3-0.7-0.8c0-0.5,0.3-0.8,0.7-0.8h5.7c0.4,0,0.7,0.3,0.7,0.8
		C11.4,25.5,11.1,25.8,10.7,25.8z"/>
	<path class="st0" d="M10.7,26.1H5c-0.5,0-1-0.5-1-1s0.4-1,1-1h5.7c0.5,0,1,0.5,1,1S11.2,26.1,10.7,26.1z M5,24.5
		c-0.3,0-0.5,0.2-0.5,0.5c0,0.3,0.2,0.5,0.5,0.5h5.7c0.3,0,0.5-0.2,0.5-0.5c0-0.3-0.2-0.5-0.5-0.5H5z"/>
</g>
<g>
	<path class="st0" d="M10.7,19.5c-0.4,0-0.7-0.3-0.7-0.8v-6.3c0-0.4,0.3-0.8,0.7-0.8s0.7,0.3,0.7,0.8v6.3
		C11.4,19.1,11.1,19.5,10.7,19.5z"/>
	<path class="st0" d="M10.7,19.8c-0.5,0-1-0.5-1-1v-6.3c0-0.6,0.4-1,1-1c0.5,0,1,0.5,1,1v6.3C11.6,19.3,11.2,19.8,10.7,19.8z
		 M10.7,11.9c-0.3,0-0.5,0.2-0.5,0.5v6.3c0,0.3,0.2,0.5,0.5,0.5c0.3,0,0.5-0.2,0.5-0.5v-6.3C11.1,12.1,10.9,11.9,10.7,11.9z"/>
</g>
<g>
	<path class="st0" d="M45.9,36.4h-3.2c-0.4,0-0.7-0.3-0.7-0.8c0-0.4,0.3-0.8,0.7-0.8h1.6c-0.1-0.3,0-0.5,0.2-0.8
		c0.3-0.3,0.7-0.3,1,0l0.9,1c0.2,0.2,0.3,0.6,0.2,0.8C46.5,36.2,46.2,36.4,45.9,36.4z"/>
	<path class="st0" d="M45.9,36.6h-3.2c-0.5,0-1-0.5-1-1c0-0.6,0.4-1,1-1h1.3c0-0.2,0.1-0.5,0.3-0.7c0.2-0.2,0.4-0.3,0.7-0.3l0,0
		c0.3,0,0.5,0.1,0.7,0.3l0.9,1c0.3,0.3,0.4,0.7,0.2,1.1C46.7,36.4,46.3,36.6,45.9,36.6z M42.7,35.2c-0.3,0-0.5,0.2-0.5,0.5
		s0.2,0.5,0.5,0.5h3.2c0.2,0,0.4-0.1,0.4-0.3c0.1-0.2,0-0.4-0.1-0.6l-0.9-1c-0.1-0.1-0.2-0.1-0.3-0.1l0,0c-0.1,0-0.2,0.1-0.3,0.1
		c-0.1,0.1-0.2,0.3-0.1,0.5l0.1,0.3L42.7,35.2L42.7,35.2z"/>
</g>
<g>
	<path class="st0" d="M45,37.4c-0.2,0-0.4-0.1-0.5-0.2c-0.2-0.2-0.3-0.5-0.2-0.8h-1.6c-0.4,0-0.7-0.3-0.7-0.8c0-0.4,0.3-0.8,0.7-0.8
		h3.2c0.3,0,0.6,0.2,0.7,0.5c0.1,0.3,0.1,0.6-0.2,0.8l-0.9,1C45.4,37.3,45.2,37.4,45,37.4z"/>
	<path class="st0" d="M45,37.5c-0.3,0-0.5-0.1-0.7-0.3c-0.2-0.2-0.3-0.4-0.3-0.7h-1.3c-0.5,0-1-0.5-1-1c0-0.6,0.4-1,1-1h3.2
		c0.4,0,0.8,0.3,0.9,0.6c0.1,0.4,0.1,0.8-0.2,1.1l-0.9,1C45.6,37.4,45.3,37.5,45,37.5z M42.7,35.2c-0.3,0-0.5,0.2-0.5,0.5
		s0.2,0.5,0.5,0.5h1.9v0.3c0,0.2,0,0.4,0.1,0.5c0.2,0.2,0.5,0.2,0.6,0l0.9-1c0.1-0.2,0.2-0.4,0.1-0.6c-0.1-0.2-0.2-0.3-0.4-0.3
		L42.7,35.2L42.7,35.2z"/>
</g>
</svg>
