<?xml version="1.0" encoding="utf-8"?>
<!-- Generator: Adobe Illustrator 25.4.1, SVG Export Plug-In . SVG Version: 6.00 Build 0)  -->
<svg version="1.1" id="圖層_1" xmlns="http://www.w3.org/2000/svg" xmlns:xlink="http://www.w3.org/1999/xlink" x="0px" y="0px"
	 viewBox="0 0 60 60" style="enable-background:new 0 0 60 60;" xml:space="preserve">
<style type="text/css">
	.st0{fill:none;stroke:#FFFFFF;stroke-width:2;stroke-linecap:round;stroke-linejoin:round;}
</style>
<g>
	<line class="st0" x1="2.4" y1="57.5" x2="57.3" y2="57.5"/>
	<polyline class="st0" points="14.3,57.5 16.7,40.7 46.5,40.7 44.1,57.5 	"/>
	<path class="st0" d="M8.3,52.7H7.1c-2.6,0-4.8-2.1-4.8-4.8V36c0-3.7,7.1-6,13.1-6c6.1,0,13.1,2.3,13.1,6v4.8"/>
	<path class="st0" d="M25.4,7.4c3.4-3,7.8-4.9,12.7-4.9c10.5,0,19.1,8.5,19.1,19.1c0,6-2.7,11.3-7,14.8"/>
	<polyline class="st0" points="35.8,16.9 38.2,16.9 38.2,30 	"/>
	<line class="st0" x1="37" y1="12.1" x2="38.2" y2="12.1"/>
	<line class="st0" x1="35.8" y1="30" x2="40.6" y2="30"/>
	<path class="st0" d="M15.5,25.2c-4,0-7.2-3.2-7.2-7.2v-3.6c0-3.9,3.2-7.2,7.2-7.2c4,0,7.2,3.2,7.2,7.2v3.6
		C22.7,22,19.5,25.2,15.5,25.2z"/>
	<line class="st0" x1="8.3" y1="40.7" x2="8.3" y2="57.5"/>
</g>
</svg>
