<?xml version="1.0" encoding="utf-8"?>
<!-- Generator: Adobe Illustrator 25.4.1, SVG Export Plug-In . SVG Version: 6.00 Build 0)  -->
<svg version="1.1" id="圖層_1" xmlns="http://www.w3.org/2000/svg" xmlns:xlink="http://www.w3.org/1999/xlink" x="0px" y="0px"
	 viewBox="0 0 60 60" style="enable-background:new 0 0 60 60;" xml:space="preserve">
<style type="text/css">
	.st0{fill:#FFFFFF;}
</style>
<g>
	<path class="st0" d="M23.3,33.3c-0.6,0-1.1-0.5-1.1-1.1v-6c0-0.6,0.5-1.1,1.1-1.1c0.6,0,1.1,0.5,1.1,1.1v6
		C24.4,32.9,23.9,33.3,23.3,33.3z"/>
	<path class="st0" d="M37,33.3c-0.6,0-1.1-0.5-1.1-1.1v-6c0-0.6,0.5-1.1,1.1-1.1c0.6,0,1.1,0.5,1.1,1.1v6
		C38.1,32.9,37.6,33.3,37,33.3z"/>
	<path class="st0" d="M44,28c-0.6,0-1-0.5-1.1-1c-0.1-4-3-7.2-6.5-7.2H23.8c-3.5,0-6.3,3.2-6.5,7.2c0,0.6-0.5,1-1.1,1
		c-0.6,0-1-0.5-1-1.1c0.2-5.2,3.9-9.2,8.6-9.2h12.7c4.7,0,8.4,4.1,8.6,9.2C45.1,27.5,44.7,28,44,28C44.1,28,44.1,28,44,28z"/>
	<path class="st0" d="M30.2,16.1c-3.9,0-7.1-3.2-7.1-7.1c0-3.9,3.2-7.1,7.1-7.1c3.9,0,7.1,3.2,7.1,7.1
		C37.3,12.9,34.1,16.1,30.2,16.1z M30.2,4c-2.7,0-5,2.2-5,5s2.2,5,5,5c2.7,0,5-2.2,5-5S32.9,4,30.2,4z"/>
	<path class="st0" d="M23.9,56.1c-0.5,0-1-0.2-1.4-0.5C21.7,55,21.3,54,21.7,53l1.8-5.6c0-0.1,0-0.2-0.1-0.3l-4.7-3.4
		c-0.8-0.6-1.2-1.6-0.9-2.6c0.3-1,1.2-1.6,2.2-1.6h5.9c0.1,0,0.2-0.1,0.2-0.2l1.8-5.6c0.3-1,1.2-1.6,2.2-1.6c1,0,1.9,0.6,2.2,1.6
		l1.8,5.6c0,0.1,0.1,0.2,0.2,0.2h5.9c1,0,1.9,0.6,2.2,1.6c0.3,1,0,2-0.9,2.6l-4.7,3.4c-0.1,0.1-0.1,0.2-0.1,0.3l1.8,5.6
		c0.3,1,0,2-0.9,2.6c-0.8,0.6-1.9,0.6-2.8,0l-4.7-3.4c-0.1-0.1-0.2-0.1-0.3,0l-4.7,3.4C24.9,55.9,24.4,56.1,23.9,56.1z M20,41.5
		c0,0-0.2,0-0.2,0.2s0.1,0.2,0.1,0.3l4.7,3.4c0.8,0.6,1.2,1.7,0.9,2.6l-1.8,5.6c0,0-0.1,0.2,0.1,0.3c0.1,0.1,0.2,0,0.3,0l4.7-3.4
		c0.8-0.6,1.9-0.6,2.8,0l4.7,3.4c0,0,0.1,0.1,0.3,0c0.1-0.1,0.1-0.2,0.1-0.3l-1.8-5.6c-0.3-1,0-2,0.9-2.6l4.7-3.4
		c0,0,0.1-0.1,0.1-0.3s-0.2-0.2-0.2-0.2h-5.9c-1,0-1.9-0.7-2.2-1.6l-1.8-5.6c0,0-0.1-0.2-0.2-0.2c-0.2,0-0.2,0.1-0.2,0.2l-1.8,5.6
		c-0.3,1-1.2,1.6-2.2,1.6H20z"/>
	<path class="st0" d="M53.4,49.3c-0.4,0-0.9-0.1-1.3-0.4l-4.1-3c0,0-0.1,0-0.1,0l-4.1,3c-0.8,0.6-1.8,0.6-2.6,0
		c-0.8-0.6-1.1-1.5-0.8-2.4c0.2-0.6,0.8-0.9,1.3-0.7c0.6,0.2,0.9,0.8,0.7,1.3c0,0,0,0,0,0.1c0,0,0.1,0,0.1,0l4.1-3
		c0.8-0.6,1.8-0.6,2.6,0l4.1,3c0,0,0,0,0.1,0c0,0,0,0,0-0.1l-1.6-4.8c-0.3-0.9,0-1.9,0.8-2.4l4.1-3c0,0,0,0,0-0.1c0,0,0,0-0.1,0
		h-5.1c-1,0-1.8-0.6-2.1-1.5l-1.6-4.8c0,0,0,0-0.1,0c-0.1,0-0.1,0-0.1,0l-1.6,4.8c-0.3,0.9-1.1,1.5-2.1,1.5h-5.1c0,0-0.1,0-0.1,0
		c0,0,0,0.1,0,0.1c0.5,0.3,0.6,1,0.2,1.5c-0.3,0.5-1,0.6-1.5,0.2c-0.8-0.6-1.1-1.5-0.8-2.4c0.3-0.9,1.1-1.5,2.1-1.5h5.1
		c0,0,0.1,0,0.1,0l1.6-4.8c0.3-0.9,1.1-1.5,2.1-1.5c1,0,1.8,0.6,2.1,1.5l1.6,4.8c0,0,0,0,0.1,0h5.1c1,0,1.8,0.6,2.1,1.5
		c0.3,0.9,0,1.9-0.8,2.4l-4.1,3c0,0,0,0,0,0.1l1.6,4.8c0.3,0.9,0,1.9-0.8,2.4C54.3,49.2,53.9,49.3,53.4,49.3z"/>
	<path class="st0" d="M17.8,49.3c-0.4,0-0.9-0.1-1.3-0.4l-4.1-3c0,0-0.1,0-0.1,0l-4.1,3c-0.8,0.6-1.8,0.6-2.6,0
		c-0.8-0.6-1.1-1.5-0.8-2.4l1.6-4.8c0,0,0-0.1,0-0.1l-4.1-3C1.4,38,1.1,37,1.4,36.1c0.3-0.9,1.1-1.5,2.1-1.5h5.1c0,0,0.1,0,0.1,0
		l1.6-4.8c0.3-0.9,1.1-1.5,2.1-1.5c1,0,1.8,0.6,2.1,1.5l1.6,4.8c0,0,0,0,0.1,0h5.1c1,0,1.8,0.6,2.1,1.5c0.3,0.9,0,1.9-0.8,2.4
		c-0.5,0.3-1.1,0.2-1.5-0.2c-0.3-0.5-0.2-1.1,0.2-1.5c0,0,0,0,0-0.1c0,0,0,0-0.1,0H16c-1,0-1.8-0.6-2.1-1.5l-1.6-4.8c0,0,0,0-0.1,0
		c-0.1,0-0.1,0-0.1,0l-1.6,4.8c-0.3,0.9-1.1,1.5-2.1,1.5H3.5c0,0-0.1,0-0.1,0c0,0,0,0.1,0,0.1l4.1,3c0.8,0.6,1.1,1.5,0.8,2.4
		l-1.6,4.8c0,0,0,0,0,0.1c0,0,0.1,0,0.1,0l4.1-3c0.8-0.6,1.8-0.6,2.6,0l4.1,3c0,0,0,0,0.1,0c0,0,0,0,0-0.1c-0.2-0.6,0.1-1.2,0.7-1.3
		c0.6-0.2,1.2,0.1,1.3,0.7c0.3,0.9,0,1.9-0.8,2.4C18.6,49.2,18.2,49.3,17.8,49.3z"/>
	<path class="st0" d="M48.1,56.6H12.2c-0.6,0-1.1-0.5-1.1-1.1s0.5-1.1,1.1-1.1h35.9c0.6,0,1.1,0.5,1.1,1.1S48.7,56.6,48.1,56.6z"/>
</g>
</svg>
