<?xml version="1.0" encoding="utf-8"?>
<!-- Generator: Adobe Illustrator 25.4.1, SVG Export Plug-In . SVG Version: 6.00 Build 0)  -->
<svg version="1.1" id="圖層_1" xmlns="http://www.w3.org/2000/svg" xmlns:xlink="http://www.w3.org/1999/xlink" x="0px" y="0px"
	 viewBox="0 0 60 60" style="enable-background:new 0 0 60 60;" xml:space="preserve">
<style type="text/css">
	.st0{fill:none;stroke:#FFFFFF;stroke-width:2;stroke-linecap:round;stroke-linejoin:round;}
</style>
<g>
	<g>
		<path class="st0" d="M43.5,39.5L55.2,37c1.1-0.3,2.5,0.3,3,1.4c0.5,1.2-0.4,2.5-1.5,3.1l-20.5,8.6c-3.3,1.2-7.3,1.8-10.9,1.8
			c-2.4,0-4.3-0.2-6.7-0.8l-2.3-0.7"/>
		<polygon class="st0" points="16.4,51.9 11.9,54.9 1.4,35.4 5.9,32.4 		"/>
		<path class="st0" d="M25.4,42.9h14.2c2.1,0,3.7-1.7,3.7-3.7l0,0c0-2.1-1.7-3.7-3.7-3.7h-9.7l-1.3-1c-3.1-2.3-6.8-3.5-10.6-3.5l0,0
			c-2.4,0-4.8,0.5-7,1.5l-3.6,1.5"/>
	</g>
	<circle class="st0" cx="40.4" cy="10.7" r="5.2"/>
	<path class="st0" d="M47.9,32.4v-7.5c0-2.5-2-4.5-4.5-4.5h-6c-2.5,0-4.5,2-4.5,4.5V30"/>
	<circle class="st0" cx="25.4" cy="9.2" r="5.2"/>
	<path class="st0" d="M29.9,18.9h-7.5c-2.5,0-4.5,2-4.5,4.5V27"/>
</g>
</svg>
