<?xml version="1.0" encoding="utf-8"?>
<!-- Generator: Adobe Illustrator 25.4.1, SVG Export Plug-In . SVG Version: 6.00 Build 0)  -->
<svg version="1.1" id="圖層_1" xmlns="http://www.w3.org/2000/svg" xmlns:xlink="http://www.w3.org/1999/xlink" x="0px" y="0px"
	 viewBox="0 0 60 60" style="enable-background:new 0 0 60 60;" xml:space="preserve">
<style type="text/css">
	.st0{fill:#FFFFFF;}
</style>
<g>
	<path class="st0" d="M26.1,46.7c-0.6,0-1-0.4-1-1v-7.6l-9.2-9.2c-0.6-0.6-1.7-0.6-2.4,0l-0.2,0.2c-0.7,0.7-0.7,1.7,0,2.4l6.2,6.2
		c0.4,0.4,0.4,1,0,1.4s-1,0.4-1.4,0l-6.2-6.2c-0.7-0.7-1.1-1.6-1.1-2.6s0.4-1.9,1.1-2.6l0.2-0.2c1.4-1.4,3.8-1.4,5.2,0l9.5,9.5
		c0.2,0.2,0.3,0.4,0.3,0.7v8.1C27.1,46.3,26.6,46.7,26.1,46.7z"/>
	<path class="st0" d="M15.3,46.7c-0.6,0-1-0.4-1-1v-0.9l-6.9-6.9c-2.5-2.5-3.8-5.8-3.8-9.3V13.5c0-2,1.7-3.7,3.7-3.7
		s3.7,1.7,3.7,3.7v12.1c0,0.6-0.4,1-1,1s-1-0.4-1-1V13.5c0-0.9-0.8-1.7-1.7-1.7c-0.9,0-1.7,0.8-1.7,1.7v15.1c0,3,1.2,5.8,3.3,7.9
		l7.2,7.2c0.2,0.2,0.3,0.4,0.3,0.7v1.3C16.3,46.3,15.9,46.7,15.3,46.7z"/>
	<path class="st0" d="M34.1,46.7c-0.6,0-1-0.4-1-1v-8.1c0-0.3,0.1-0.5,0.3-0.7l9.5-9.5c1.4-1.4,3.8-1.4,5.2,0l0.2,0.2
		c0.7,0.7,1.1,1.6,1.1,2.6s-0.4,1.9-1.1,2.6l-6.2,6.2c-0.4,0.4-1,0.4-1.4,0s-0.4-1,0-1.4l6.2-6.2c0.7-0.7,0.7-1.7,0-2.4l-0.2-0.2
		c-0.6-0.6-1.7-0.6-2.4,0l-9.2,9.2v7.6C35.1,46.3,34.7,46.7,34.1,46.7z"/>
	<path class="st0" d="M44.9,46.7c-0.6,0-1-0.4-1-1v-1.3c0-0.3,0.1-0.5,0.3-0.7l7.2-7.2c2.1-2.1,3.3-4.9,3.3-7.9V13.5
		c0-0.9-0.8-1.7-1.7-1.7s-1.7,0.8-1.7,1.7v12.1c0,0.6-0.4,1-1,1s-1-0.4-1-1V13.5c0-2,1.7-3.7,3.7-3.7c2,0,3.7,1.7,3.7,3.7v15.1
		c0,3.5-1.4,6.8-3.8,9.3l-6.9,6.9v0.9C45.9,46.3,45.4,46.7,44.9,46.7z"/>
	<path class="st0" d="M30.1,30.6c-7.2,0-13.1-5.9-13.1-13.1S22.9,4.5,30.1,4.5s13.1,5.9,13.1,13.1S37.3,30.6,30.1,30.6z M30.1,6.5
		C24,6.5,19,11.4,19,17.5c0,6.1,5,11.1,11.1,11.1s11.1-5,11.1-11.1C41.2,11.4,36.2,6.5,30.1,6.5z"/>
	<path class="st0" d="M31.4,23.9h-5.4c-0.6,0-1-0.4-1-1s0.4-1,1-1h5.4c0.9,0,1.7-0.8,1.7-1.7s-0.8-1.7-1.7-1.7h-2.7
		c-2,0-3.7-1.7-3.7-3.7s1.7-3.7,3.7-3.7h5.4c0.6,0,1,0.4,1,1s-0.4,1-1,1h-5.4c-0.9,0-1.7,0.8-1.7,1.7c0,0.9,0.8,1.7,1.7,1.7h2.7
		c2,0,3.7,1.7,3.7,3.7S33.5,23.9,31.4,23.9z"/>
	<path class="st0" d="M30.1,13.2c-0.6,0-1-0.4-1-1V9.5c0-0.6,0.4-1,1-1s1,0.4,1,1v2.7C31.1,12.7,30.6,13.2,30.1,13.2z"/>
	<path class="st0" d="M30.1,26.6c-0.6,0-1-0.4-1-1v-2.7c0-0.6,0.4-1,1-1s1,0.4,1,1v2.7C31.1,26.2,30.6,26.6,30.1,26.6z"/>
	<path class="st0" d="M27.4,52.1c-0.6,0-1-0.4-1-1v-1.7H15v1.7c0,0.6-0.4,1-1,1s-1-0.4-1-1v-2.7c0-0.6,0.4-1,1-1h13.4
		c0.6,0,1,0.4,1,1v2.7C28.4,51.7,28,52.1,27.4,52.1z"/>
	<path class="st0" d="M46.2,52.1c-0.6,0-1-0.4-1-1v-1.7H33.8v1.7c0,0.6-0.4,1-1,1s-1-0.4-1-1v-2.7c0-0.6,0.4-1,1-1h13.4
		c0.6,0,1,0.4,1,1v2.7C47.2,51.7,46.8,52.1,46.2,52.1z"/>
</g>
</svg>
