<?xml version="1.0" encoding="utf-8"?>
<!-- Generator: Adobe Illustrator 25.4.1, SVG Export Plug-In . SVG Version: 6.00 Build 0)  -->
<svg version="1.1" id="圖層_1" xmlns="http://www.w3.org/2000/svg" xmlns:xlink="http://www.w3.org/1999/xlink" x="0px" y="0px"
	 viewBox="0 0 60 60" style="enable-background:new 0 0 60 60;" xml:space="preserve">
<style type="text/css">
	.st0{fill:none;stroke:#FFFFFF;stroke-width:2;stroke-linecap:round;stroke-linejoin:round;stroke-miterlimit:10;}
</style>
<g>
	<path class="st0" d="M25.3,49V40L14.8,29.5c-1.2-1.2-3.1-1.2-4.2,0l-0.3,0.3c-1.2,1.2-1.2,3.1,0,4.2l6.8,6.8"/>
	<path class="st0" d="M7.4,26.6L7.4,26.6V13.2c0-1.6-1.3-3-3-3l0,0c-1.6,0-3,1.3-3,3V30c0,3.6,1.4,7,3.9,9.5l8,8V49"/>
	<path class="st0" d="M34.3,49V40l10.6-10.6c1.2-1.2,3.1-1.2,4.2,0l0.3,0.3c1.2,1.2,1.2,3.1,0,4.2l-6.8,6.8"/>
	<path class="st0" d="M52.2,26.6L52.2,26.6V13.2c0-1.6,1.3-3,3-3l0,0c1.6,0,3,1.3,3,3V30c0,3.6-1.4,7-3.9,9.5l-8,8V49"/>
	<circle class="st0" cx="29.8" cy="17.7" r="13.4"/>
	<path class="st0" d="M25.3,23.6h6c1.6,0,3-1.3,3-3l0,0c0-1.6-1.3-3-3-3h-3c-1.6,0-3-1.3-3-3l0,0c0-1.6,1.3-3,3-3h6"/>
	<line class="st0" x1="29.8" y1="8.7" x2="29.8" y2="11.7"/>
	<line class="st0" x1="29.8" y1="23.6" x2="29.8" y2="26.6"/>
	<polyline class="st0" points="11.9,54.9 11.9,51.9 26.8,51.9 26.8,54.9 	"/>
	<polyline class="st0" points="32.8,54.9 32.8,51.9 47.7,51.9 47.7,54.9 	"/>
</g>
</svg>
