<?xml version="1.0" encoding="utf-8"?>
<!-- Generator: Adobe Illustrator 25.4.1, SVG Export Plug-In . SVG Version: 6.00 Build 0)  -->
<svg version="1.1" id="圖層_1" xmlns="http://www.w3.org/2000/svg" xmlns:xlink="http://www.w3.org/1999/xlink" x="0px" y="0px"
	 viewBox="0 0 60 60" style="enable-background:new 0 0 60 60;" xml:space="preserve">
<style type="text/css">
	.st0{fill:#FFFFFF;}
</style>
<g>
	<path class="st0" d="M44.8,38.1c-0.4,0-0.8-0.2-0.9-0.6c-0.2-0.5,0-1.1,0.6-1.3c1.8-0.7,3.3-1.9,4.5-3.4c0.3-0.4,1-0.5,1.4-0.2
		c0.4,0.3,0.5,1,0.2,1.4c-1.4,1.8-3.3,3.1-5.4,4C45,38.1,44.9,38.1,44.8,38.1z"/>
	<path class="st0" d="M27.8,18.8c-0.2,0-0.4-0.1-0.6-0.2l-0.6-0.4c-1.7-1.1-3.6-1.8-5.6-1.9c-0.6,0-1-0.5-0.9-1.1
		c0-0.6,0.5-1,1.1-0.9c2.4,0.2,4.6,1,6.6,2.3l0.6,0.4c0.5,0.3,0.6,0.9,0.3,1.4C28.4,18.7,28.1,18.8,27.8,18.8z"/>
	<path class="st0" d="M43.6,38.6c-0.5,0-0.9-0.4-1-0.9c0-0.5,0.4-1,0.9-1.1c0.4,0,0.8-0.3,1-0.6c0.3-0.4,0.3-0.8,0.3-1.1
		c-0.1-0.4-0.3-0.7-0.6-0.9c0,0-0.1-0.1-0.1-0.1L38.9,29c-0.4-0.4-0.4-1,0-1.4c0.4-0.4,1-0.4,1.4,0l5.2,4.9c0.7,0.5,1.2,1.2,1.4,2.1
		c0.2,0.9,0,1.8-0.5,2.5l-0.1,0.1C45.7,38,44.7,38.5,43.6,38.6C43.7,38.6,43.7,38.6,43.6,38.6z"/>
	<path class="st0" d="M11.9,37.2c-0.2,0-0.5-0.1-0.7-0.3c-1.2-1.1-2.1-2.4-2.8-3.8c-0.2-0.5,0-1.1,0.5-1.3c0.5-0.2,1.1,0,1.3,0.5
		c0.6,1.2,1.4,2.3,2.4,3.2c0.4,0.4,0.4,1,0,1.4C12.4,37.1,12.2,37.2,11.9,37.2z"/>
	<path class="st0" d="M41.6,43.2c-0.7,0-1.3-0.2-1.9-0.6l-10.8-7.3c-0.5-0.3-0.6-0.9-0.3-1.4c0.3-0.5,0.9-0.6,1.4-0.3L40.8,41
		c0.3,0.2,0.7,0.3,1,0.2c0.4-0.1,0.7-0.3,0.9-0.6l0.1-0.1c0.4-0.6,0.3-1.5-0.4-1.9l-10.7-7.2c-0.5-0.3-0.6-0.9-0.3-1.4
		c0.3-0.5,0.9-0.6,1.4-0.3l10.7,7.2c1.5,1,1.9,3.1,0.9,4.7l-0.1,0.1c-0.5,0.7-1.3,1.2-2.1,1.4C42,43.2,41.8,43.2,41.6,43.2z"/>
	<path class="st0" d="M38,46.7c-0.7,0-1.3-0.2-1.9-0.6l-8.9-6c-0.5-0.3-0.6-0.9-0.3-1.4c0.3-0.5,0.9-0.6,1.4-0.3l8.9,6
		c0.3,0.2,0.7,0.3,1,0.2c0.4-0.1,0.7-0.3,0.9-0.6l0.1-0.1c0.2-0.3,0.3-0.7,0.2-1c-0.1-0.4-0.3-0.7-0.6-0.9l-9.9-6.7
		c-0.5-0.3-0.6-0.9-0.3-1.4c0.3-0.5,0.9-0.6,1.4-0.3l10,6.7c0.7,0.5,1.3,1.3,1.4,2.2c0.2,0.9,0,1.8-0.5,2.5l-0.1,0.1
		c-0.5,0.7-1.3,1.2-2.1,1.4C38.4,46.6,38.2,46.7,38,46.7z"/>
	<path class="st0" d="M32.3,48.6c-0.7,0-1.3-0.2-1.9-0.6l-1.8-1.2c-0.5-0.3-0.6-0.9-0.3-1.4c0.3-0.5,0.9-0.6,1.4-0.3l1.8,1.2
		c0.3,0.2,0.7,0.3,1,0.2c0.4-0.1,0.7-0.3,0.9-0.6c0.3-0.4,0.3-0.8,0.3-1.1c-0.1-0.4-0.3-0.7-0.6-0.9l-5.9-4
		c-0.5-0.3-0.6-0.9-0.3-1.4c0.3-0.5,0.9-0.6,1.4-0.3l5.9,4c0.7,0.5,1.3,1.3,1.4,2.2c0.2,0.9,0,1.8-0.5,2.5c-0.6,0.8-1.3,1.3-2.2,1.5
		C32.7,48.6,32.5,48.6,32.3,48.6z"/>
	<path class="st0" d="M39.6,29.1c-0.6,0-1.1-0.1-1.7-0.2c-2-0.5-3.6-1.6-4.7-3.4l-1.8-2.9l-3.1,1.2c-3,1.2-6.4-0.3-7.6-3.3
		c-0.2-0.5,0-1.1,0.6-1.3l13.8-5.5c2.1-0.8,4.4-1.2,6.7-0.9c0.5,0.1,0.9,0.6,0.9,1.1c-0.1,0.5-0.6,0.9-1.1,0.9
		c-1.9-0.2-3.9,0-5.7,0.7l-12.7,5.1c1,1.4,2.9,1.9,4.5,1.3l3.9-1.5c0.4-0.2,1,0,1.2,0.4l2.2,3.6c0.8,1.3,2,2.1,3.5,2.5
		s2.9,0.1,4.2-0.7c0.5-0.3,1.1-0.2,1.4,0.3c0.3,0.5,0.2,1.1-0.3,1.4C42.4,28.7,41,29.1,39.6,29.1z"/>
	<path class="st0" d="M14.2,40.7c-0.7,0-1.4-0.2-2-0.7c-1.5-1.1-1.9-3.3-0.8-4.8l3.3-4.5c1.1-1.5,3.3-1.9,4.8-0.8
		c1.5,1.1,1.9,3.3,0.8,4.8L17,39.3l0,0C16.3,40.2,15.3,40.7,14.2,40.7z M16.2,38.7L16.2,38.7L16.2,38.7z M17.5,31.3
		c-0.1,0-0.1,0-0.2,0c-0.4,0.1-0.7,0.3-0.9,0.6l-3.3,4.5c-0.5,0.6-0.3,1.5,0.3,2c0.6,0.5,1.5,0.3,2-0.3l3.3-4.5
		c0.5-0.6,0.3-1.5-0.3-2C18.1,31.4,17.8,31.3,17.5,31.3z"/>
	<path class="st0" d="M18.1,43.5c-0.7,0-1.4-0.2-2-0.7c-0.7-0.5-1.2-1.3-1.4-2.2c-0.1-0.9,0.1-1.8,0.6-2.5l4.6-6.4
		c1.1-1.5,3.3-1.9,4.8-0.8c1.5,1.1,1.9,3.3,0.8,4.8l-4.6,6.4c-0.5,0.7-1.3,1.2-2.2,1.4C18.5,43.5,18.3,43.5,18.1,43.5z M22.8,32.3
		c-0.4,0-0.9,0.2-1.2,0.6L17,39.3c-0.2,0.3-0.3,0.7-0.3,1.1s0.3,0.7,0.6,0.9c0.3,0.2,0.7,0.3,1.1,0.3c0.4-0.1,0.7-0.3,0.9-0.6h0
		l4.6-6.4c0.5-0.6,0.3-1.5-0.3-2C23.4,32.4,23.1,32.3,22.8,32.3z"/>
	<path class="st0" d="M22,46.4c-0.7,0-1.4-0.2-2-0.7c-1.5-1.1-1.9-3.3-0.8-4.8l3.3-4.5c1.1-1.5,3.3-1.9,4.8-0.8
		c1.5,1.1,1.9,3.3,0.8,4.8L24.8,45c-0.5,0.7-1.3,1.2-2.2,1.4C22.4,46.4,22.2,46.4,22,46.4z M25.3,37c-0.4,0-0.9,0.2-1.2,0.6
		l-3.3,4.5c-0.2,0.3-0.3,0.7-0.3,1.1c0.1,0.4,0.3,0.7,0.6,0.9c0.3,0.2,0.7,0.3,1.1,0.3c0.4-0.1,0.7-0.3,0.9-0.6l0,0l3.3-4.5
		c0.5-0.6,0.3-1.5-0.3-2C25.9,37.1,25.6,37,25.3,37z"/>
	<path class="st0" d="M25.9,49.2c-0.7,0-1.4-0.2-2-0.7c-1.5-1.1-1.9-3.3-0.8-4.8l2-2.7c0.5-0.7,1.3-1.2,2.2-1.4
		c0.9-0.1,1.8,0.1,2.5,0.6c0.7,0.5,1.2,1.3,1.4,2.2c0.1,0.9-0.1,1.8-0.6,2.5l-2,2.7c0,0,0,0,0,0C28.1,48.7,27,49.2,25.9,49.2z
		 M27.9,47.2L27.9,47.2L27.9,47.2z M27.9,41.7c-0.1,0-0.1,0-0.2,0c-0.4,0.1-0.7,0.3-0.9,0.6l-2,2.7c-0.5,0.6-0.3,1.5,0.3,2
		c0.6,0.5,1.5,0.3,2-0.3l2-2.7c0.2-0.3,0.3-0.7,0.3-1.1c-0.1-0.4-0.3-0.7-0.6-0.9C28.5,41.8,28.2,41.7,27.9,41.7z"/>
	<path class="st0" d="M8.9,34.2c-0.2,0-0.4-0.1-0.6-0.2l-6.3-4.9c-0.4-0.3-0.5-1-0.2-1.4c0.3-0.4,1-0.5,1.4-0.2l5.4,4.3l11.1-16.4
		l-5.3-3.7c-0.5-0.3-0.6-0.9-0.2-1.4c0.3-0.5,0.9-0.6,1.4-0.2l6.1,4.2c0.4,0.3,0.6,0.9,0.3,1.4L9.8,33.8c-0.2,0.2-0.4,0.4-0.7,0.4
		C9.1,34.2,9,34.2,8.9,34.2z"/>
	<path class="st0" d="M49.9,34.9c-0.1,0-0.3,0-0.4-0.1c-0.2-0.1-0.4-0.3-0.5-0.5l-8.1-20.3c-0.1-0.2-0.1-0.5,0-0.8s0.3-0.4,0.6-0.5
		l7.1-2.7c0.5-0.2,1.1,0.1,1.3,0.6c0.2,0.5-0.1,1.1-0.6,1.3L43,14.1l7.4,18.4l6.7-2.7c0.5-0.2,1.1,0,1.3,0.6c0.2,0.5,0,1.1-0.6,1.3
		l-7.7,3.1C50.1,34.8,50,34.9,49.9,34.9z"/>
</g>
</svg>
