<?xml version="1.0" encoding="utf-8"?>
<!-- Generator: Adobe Illustrator 25.4.1, SVG Export Plug-In . SVG Version: 6.00 Build 0)  -->
<svg version="1.1" id="圖層_1" xmlns="http://www.w3.org/2000/svg" xmlns:xlink="http://www.w3.org/1999/xlink" x="0px" y="0px"
	 viewBox="0 0 60 60" style="enable-background:new 0 0 60 60;" xml:space="preserve">
<style type="text/css">
	.st0{fill:#FFFFFF;}
</style>
<g>
	<rect x="6.2" y="52.8" class="st0" width="47.7" height="2.5"/>
	<polygon class="st0" points="43.7,54.2 41.2,53.8 43.1,40.7 19.7,40.7 17.8,54.2 15.3,53.8 17.5,38.2 45.9,38.2 	"/>
	<path class="st0" d="M11.3,51.1h-1.1c-2.9,0-5.4-2.4-5.4-5.4V35.3c0-4.5,7.4-6.4,12.7-6.4s12.7,2,12.7,6.4v4.2h-2.5v-4.2
		c0-2-5-3.9-10.2-3.9c-5.1,0-10.2,2-10.2,3.9v10.3c0,1.6,1.3,2.9,2.9,2.9h1.1L11.3,51.1L11.3,51.1z"/>
	<path class="st0" d="M48.6,36.7l-1.6-2c3.6-2.9,5.6-7.2,5.6-11.9c0-8.5-6.9-15.3-15.3-15.3c-3.7,0-7.4,1.4-10.3,3.9l-1.7-1.9
		c3.3-2.9,7.5-4.5,11.9-4.5c9.8,0,17.8,8,17.8,17.8C55.1,28.3,52.7,33.3,48.6,36.7z"/>
	<polygon class="st0" points="38.5,30.1 36,30.1 36,20 35.2,20 35.2,17.5 38.5,17.5 	"/>
	<path class="st0" d="M37.3,15.9h-1.1c-0.7,0-1.2-0.5-1.2-1.2c0-0.7,0.5-1.2,1.2-1.2h1.1c0.7,0,1.2,0.5,1.2,1.2S38,15.9,37.3,15.9z"
		/>
	<rect x="35.2" y="28.9" class="st0" width="4.2" height="2.5"/>
	<path class="st0" d="M17.6,27.3c-4.1,0-7.5-3.4-7.5-7.5v-3.1c0-4.1,3.4-7.5,7.5-7.5s7.5,3.4,7.5,7.5v3.1
		C25.1,24,21.8,27.3,17.6,27.3z M17.6,11.7c-2.8,0-5,2.2-5,5v3.1c0,2.8,2.1,5,5,5s5-2.1,5-5v-3.1C22.5,13.9,20.3,11.7,17.6,11.7z"/>
	<rect x="10.1" y="39.5" class="st0" width="2.5" height="14.5"/>
</g>
</svg>
