<?xml version="1.0" encoding="utf-8"?>
<!-- Generator: Adobe Illustrator 25.4.1, SVG Export Plug-In . SVG Version: 6.00 Build 0)  -->
<svg version="1.1" id="圖層_1" xmlns="http://www.w3.org/2000/svg" xmlns:xlink="http://www.w3.org/1999/xlink" x="0px" y="0px"
	 viewBox="0 0 60 60" style="enable-background:new 0 0 60 60;" xml:space="preserve">
<style type="text/css">
	.st0{fill:#FFFFFF;}
</style>
<path class="st0" d="M25.5,49.4c-0.8,0-1.4-0.6-1.4-1.4v-8l-9.8-9.8c-0.5-0.5-1.5-0.5-2,0L12,30.4c-0.3,0.3-0.4,0.6-0.4,1
	c0,0.4,0.1,0.7,0.4,1l6.6,6.6c0.6,0.6,0.6,1.5,0,2c-0.6,0.6-1.5,0.6-2,0L10,34.5c-0.8-0.8-1.3-1.9-1.3-3.1c0-1.2,0.4-2.2,1.3-3.1
	l0.2-0.2c1.6-1.6,4.5-1.6,6.1,0l10.2,10.2c0.3,0.3,0.4,0.6,0.4,1V48C26.9,48.8,26.3,49.4,25.5,49.4z"/>
<path class="st0" d="M14,49.4c-0.8,0-1.4-0.6-1.4-1.4v-0.8l-7.3-7.3C2.6,37.2,1,33.4,1,29.7V13.5C1,11.1,3,9.1,5.4,9.1
	s4.3,1.9,4.3,4.3v12.9c0,0.8-0.6,1.4-1.4,1.4s-1.4-0.6-1.4-1.4V13.5c0-0.8-0.6-1.4-1.4-1.4s-1.4,0.6-1.4,1.4v16.2c0,3,1.2,6,3.4,8.2
	l7.7,7.7c0.3,0.3,0.4,0.6,0.4,1V48C15.4,48.8,14.8,49.4,14,49.4z"/>
<path class="st0" d="M34.1,49.4c-0.8,0-1.4-0.6-1.4-1.4v-8.6c0-0.4,0.2-0.7,0.4-1l10.2-10.2c1.6-1.6,4.5-1.6,6.1,0l0.2,0.2
	c0.8,0.8,1.3,1.9,1.3,3c0,1.2-0.4,2.2-1.3,3.1L43,41.1c-0.6,0.6-1.5,0.6-2,0c-0.6-0.6-0.6-1.5,0-2l6.6-6.6c0.3-0.3,0.4-0.6,0.4-1
	c0-0.4-0.1-0.7-0.4-1l-0.2-0.2c-0.5-0.5-1.5-0.5-2,0l-9.8,9.8v8C35.6,48.8,34.9,49.4,34.1,49.4z"/>
<path class="st0" d="M45.6,49.4c-0.8,0-1.4-0.6-1.4-1.4v-1.4c0-0.4,0.2-0.7,0.4-1l7.7-7.7c2.1-2.1,3.4-5.1,3.4-8.2V13.5
	c0-0.8-0.6-1.4-1.4-1.4c-0.8,0-1.4,0.6-1.4,1.4v12.9c0,0.8-0.6,1.4-1.4,1.4c-0.8,0-1.4-0.6-1.4-1.4V13.5c0-2.4,1.9-4.3,4.3-4.3
	c2.4,0,4.3,1.9,4.3,4.3v16.2c0,3.8-1.5,7.5-4.2,10.2l-7.3,7.3V48C47.1,48.8,46.4,49.4,45.6,49.4z"/>
<path class="st0" d="M29.8,32.2c-7.9,0-14.4-6.5-14.4-14.4S21.9,3.4,29.8,3.4s14.4,6.5,14.4,14.4S37.7,32.2,29.8,32.2z M29.8,6.3
	c-6.3,0-11.5,5.2-11.5,11.5s5.2,11.5,11.5,11.5s11.5-5.2,11.5-11.5S36.1,6.3,29.8,6.3z"/>
<path class="st0" d="M31.2,25h-5.8c-0.8,0-1.4-0.6-1.4-1.4c0-0.8,0.6-1.4,1.4-1.4h5.8c0.8,0,1.4-0.6,1.4-1.4s-0.6-1.4-1.4-1.4h-2.9
	c-2.4,0-4.3-1.9-4.3-4.3s1.9-4.3,4.3-4.3h5.8c0.8,0,1.4,0.6,1.4,1.4c0,0.8-0.6,1.4-1.4,1.4h-5.8c-0.8,0-1.4,0.6-1.4,1.4
	s0.6,1.4,1.4,1.4h2.9c2.4,0,4.3,1.9,4.3,4.3S33.6,25,31.2,25z"/>
<path class="st0" d="M29.8,13.5c-0.8,0-1.4-0.6-1.4-1.4V9.1c0-0.8,0.6-1.4,1.4-1.4s1.4,0.6,1.4,1.4V12
	C31.2,12.8,30.6,13.5,29.8,13.5z"/>
<path class="st0" d="M29.8,27.8c-0.8,0-1.4-0.6-1.4-1.4v-2.9c0-0.8,0.6-1.4,1.4-1.4s1.4,0.6,1.4,1.4v2.9
	C31.2,27.2,30.6,27.8,29.8,27.8z"/>
<path class="st0" d="M26.9,55.2c-0.8,0-1.4-0.6-1.4-1.4v-1.4H14v1.4c0,0.8-0.6,1.4-1.4,1.4s-1.4-0.6-1.4-1.4v-2.9
	c0-0.8,0.6-1.4,1.4-1.4h14.4c0.8,0,1.4,0.6,1.4,1.4v2.9C28.4,54.5,27.7,55.2,26.9,55.2z"/>
<path class="st0" d="M47.1,55.2c-0.8,0-1.4-0.6-1.4-1.4v-1.4H34.1v1.4c0,0.8-0.6,1.4-1.4,1.4c-0.8,0-1.4-0.6-1.4-1.4v-2.9
	c0-0.8,0.6-1.4,1.4-1.4h14.4c0.8,0,1.4,0.6,1.4,1.4v2.9C48.5,54.5,47.8,55.2,47.1,55.2z"/>
</svg>
