<?xml version="1.0" encoding="utf-8"?>
<!-- Generator: Adobe Illustrator 25.4.1, SVG Export Plug-In . SVG Version: 6.00 Build 0)  -->
<svg version="1.1" id="圖層_1" xmlns="http://www.w3.org/2000/svg" xmlns:xlink="http://www.w3.org/1999/xlink" x="0px" y="0px"
	 viewBox="0 0 60 60" style="enable-background:new 0 0 60 60;" xml:space="preserve">
<style type="text/css">
	.st0{fill:#FFFFFF;}
</style>
<g>
	<path class="st0" d="M21.5,11.9c-1.7,0-16.6-0.1-16.6-5.3s14.9-5.3,16.6-5.3s16.6,0.1,16.6,5.3S23.2,11.9,21.5,11.9z M8.1,6.6
		c1.1,0.9,6,2.3,13.4,2.3s12.3-1.4,13.4-2.3c-1.1-0.9-6-2.3-13.4-2.3S9.2,5.7,8.1,6.6z M35.1,6.8L35.1,6.8L35.1,6.8z"/>
	<path class="st0" d="M21.5,19c-8,0-16.6-1.9-16.6-6V7.4c0-0.8,0.7-1.5,1.5-1.5S8,6.6,8,7.4V13c0.2,0.8,4.8,3,13.6,3
		c8.8,0,13.3-2.2,13.6-3l0-5.6c0-0.8,0.7-1.5,1.5-1.5s1.5,0.7,1.5,1.5V13C38.1,17.1,29.5,19,21.5,19z"/>
	<path class="st0" d="M21.5,26.5c-8,0-16.6-1.9-16.6-6v-7.1c0-0.8,0.7-1.5,1.5-1.5S8,12.6,8,13.4v7.1c0.2,0.8,4.8,3,13.6,3
		c8.8,0,13.3-2.2,13.6-3l0-7.1c0-0.8,0.7-1.5,1.5-1.5s1.5,0.7,1.5,1.5v7.1C38.1,24.7,29.5,26.5,21.5,26.5z"/>
	<path class="st0" d="M21.5,33.5c-8,0-16.5-1.9-16.5-6v-8.1c0-0.8,0.7-1.5,1.5-1.5S8,18.6,8,19.5v8.1c0.2,0.8,4.8,3,13.5,3
		c1.8,0,3.6-0.1,5.3-0.3c0.8-0.1,1.6,0.5,1.7,1.3c0.1,0.8-0.5,1.6-1.3,1.7C25.3,33.4,23.4,33.5,21.5,33.5z"/>
	<path class="st0" d="M36.6,27c-0.8,0-1.5-0.7-1.5-1.5V21c0-0.8,0.7-1.5,1.5-1.5s1.5,0.7,1.5,1.5v4.5C38.1,26.3,37.4,27,36.6,27z"/>
	<path class="st0" d="M21.5,41.1c-8,0-16.5-1.9-16.5-6v-9.6c0-0.8,0.7-1.5,1.5-1.5S8,24.7,8,25.5v9.6c0.2,0.8,4.8,3,13.5,3l0.7,0
		c0,0,0,0,0,0c0.8,0,1.5,0.7,1.5,1.5c0,0.8-0.7,1.5-1.5,1.5L21.5,41.1z"/>
	<path class="st0" d="M21.5,48.1c-8,0-16.5-1.9-16.5-6v-7.6c0-0.8,0.7-1.5,1.5-1.5S8,33.7,8,34.5v7.6c0.2,0.8,4.8,3,13.5,3
		c0.5,0,1,0,1.6,0c0.9-0.1,1.5,0.6,1.6,1.5c0,0.8-0.6,1.5-1.5,1.6C22.6,48.1,22,48.1,21.5,48.1z"/>
	<path class="st0" d="M41.1,58.7c-8.3,0-15.1-6.8-15.1-15.1s6.8-15.1,15.1-15.1s15.1,6.8,15.1,15.1S49.4,58.7,41.1,58.7z M41.1,31.5
		c-6.7,0-12.1,5.4-12.1,12.1s5.4,12.1,12.1,12.1s12.1-5.4,12.1-12.1S47.8,31.5,41.1,31.5z"/>
	<path class="st0" d="M42.6,51.1h-6c-0.8,0-1.5-0.7-1.5-1.5s0.7-1.5,1.5-1.5h6c0.8,0,1.5-0.7,1.5-1.5c0-0.8-0.7-1.5-1.5-1.5h-3
		c-2.5,0-4.5-2-4.5-4.5c0-2.5,2-4.5,4.5-4.5h6c0.8,0,1.5,0.7,1.5,1.5s-0.7,1.5-1.5,1.5h-6c-0.8,0-1.5,0.7-1.5,1.5s0.7,1.5,1.5,1.5h3
		c2.5,0,4.5,2,4.5,4.5C47.2,49.1,45.1,51.1,42.6,51.1z"/>
	<path class="st0" d="M41.1,39.1c-0.8,0-1.5-0.7-1.5-1.5v-3c0-0.8,0.7-1.5,1.5-1.5s1.5,0.7,1.5,1.5v3C42.6,38.4,42,39.1,41.1,39.1z"
		/>
	<path class="st0" d="M41.1,54.1c-0.8,0-1.5-0.7-1.5-1.5v-3c0-0.8,0.7-1.5,1.5-1.5s1.5,0.7,1.5,1.5v3C42.6,53.5,42,54.1,41.1,54.1z"
		/>
</g>
</svg>
