<?xml version="1.0" encoding="utf-8"?>
<!-- Generator: Adobe Illustrator 25.4.1, SVG Export Plug-In . SVG Version: 6.00 Build 0)  -->
<svg version="1.1" id="圖層_1" xmlns="http://www.w3.org/2000/svg" xmlns:xlink="http://www.w3.org/1999/xlink" x="0px" y="0px"
	 viewBox="0 0 60 60" style="enable-background:new 0 0 60 60;" xml:space="preserve">
<style type="text/css">
	.st0{fill:#FFFFFF;}
	.st1{fill:#FFFFFF;stroke:#434343;stroke-width:2;stroke-linecap:round;stroke-linejoin:round;}
</style>
<g>
	<path class="st0" d="M46.1,53.7H31.5c-0.8,0-1.5-0.7-1.5-1.5c0-0.8,0.7-1.5,1.5-1.5h13.1V8.4H11v42.3h2.9c0.8,0,1.5,0.7,1.5,1.5
		c0,0.8-0.7,1.5-1.5,1.5H9.6c-0.8,0-1.5-0.7-1.5-1.5V6.9c0-0.8,0.7-1.5,1.5-1.5h36.5c0.8,0,1.5,0.7,1.5,1.5v45.2
		C47.5,53,46.9,53.7,46.1,53.7z"/>
	<path class="st1" d="M35.8,47.8"/>
	<path class="st0" d="M50.4,50.7c-0.8,0-1.5-0.7-1.5-1.5V2.6c0-0.8,0.7-1.5,1.5-1.5c0.8,0,1.5,0.7,1.5,1.5v46.7
		C51.9,50.1,51.2,50.7,50.4,50.7z"/>
	<path class="st0" d="M50.4,4H13.9c-0.8,0-1.5-0.7-1.5-1.5s0.7-1.5,1.5-1.5h36.5c0.8,0,1.5,0.7,1.5,1.5S51.2,4,50.4,4z"/>
	<path class="st0" d="M38.8,21.5H16.9c-0.8,0-1.5-0.7-1.5-1.5c0-0.8,0.7-1.5,1.5-1.5h21.9c0.8,0,1.5,0.7,1.5,1.5
		C40.2,20.9,39.6,21.5,38.8,21.5z"/>
	<path class="st0" d="M28.5,15.7H16.9c-0.8,0-1.5-0.7-1.5-1.5c0-0.8,0.7-1.5,1.5-1.5h11.7c0.8,0,1.5,0.7,1.5,1.5
		C30,15.1,29.3,15.7,28.5,15.7z"/>
	<path class="st0" d="M38.8,27.4H16.9c-0.8,0-1.5-0.7-1.5-1.5s0.7-1.5,1.5-1.5h21.9c0.8,0,1.5,0.7,1.5,1.5S39.6,27.4,38.8,27.4z"/>
	<path class="st0" d="M22.7,49.3c-4,0-7.3-3.3-7.3-7.3s3.3-7.3,7.3-7.3S30,38,30,42S26.7,49.3,22.7,49.3z M22.7,37.6
		c-2.4,0-4.4,2-4.4,4.4s2,4.4,4.4,4.4s4.4-2,4.4-4.4S25.1,37.6,22.7,37.6z"/>
	<path class="st0" d="M27.1,59.5c-0.8,0-1.5-0.7-1.5-1.5v-7.3c0-0.8,0.7-1.5,1.5-1.5s1.5,0.7,1.5,1.5V58
		C28.5,58.8,27.9,59.5,27.1,59.5z"/>
	<path class="st0" d="M22.7,58c-0.8,0-1.5-0.7-1.5-1.5v-4.4c0-0.8,0.7-1.5,1.5-1.5s1.5,0.7,1.5,1.5v4.4C24.2,57.4,23.5,58,22.7,58z"
		/>
	<path class="st0" d="M18.3,59.5c-0.8,0-1.5-0.7-1.5-1.5v-7.3c0-0.8,0.7-1.5,1.5-1.5s1.5,0.7,1.5,1.5V58
		C19.8,58.8,19.1,59.5,18.3,59.5z"/>
</g>
</svg>
