<?xml version="1.0" encoding="utf-8"?>
<!-- Generator: Adobe Illustrator 25.4.1, SVG Export Plug-In . SVG Version: 6.00 Build 0)  -->
<svg version="1.1" id="圖層_1" xmlns="http://www.w3.org/2000/svg" xmlns:xlink="http://www.w3.org/1999/xlink" x="0px" y="0px"
	 viewBox="0 0 51 49.1" style="enable-background:new 0 0 51 49.1;" xml:space="preserve">
<style type="text/css">
	.st0{fill:#FFFFFF;}
</style>
<g id="_x39_">
	<path class="st0" d="M48.7,16H28.6c0-0.3,0-0.6,0-0.9c0-0.8-0.1-1.5-0.3-2.3c0,0,0,0,0,0V9l6.7-2.4c0.3-0.1,0.6-0.5,0.6-0.8
		c0-0.4-0.2-0.7-0.6-0.8L20,0C19.9,0,19.7,0,19.5,0l-15,4.8C4.1,5,3.9,5.3,3.9,5.7c0,0.2,0.1,0.4,0.2,0.6v9.2l-2,3.4
		c-0.2,0.3-0.2,0.6,0,0.9c0.2,0.3,0.4,0.4,0.8,0.4h4.3c0.3,0,0.6-0.2,0.8-0.4c0.2-0.3,0.2-0.6,0-0.9l-2-3.4V7l5.7,2.1v3.7
		c0,0.1,0,0.1,0,0.2c-0.2,0.7-0.2,1.4-0.2,2.1c0,2.3,0.8,4.8,2.2,6.8c-6,0.7-11.1,5.2-12.3,11.2c-0.6,2.9-1,6-1.2,9.2
		c-0.1,1.8,0.5,3.4,1.7,4.7c1.2,1.3,2.9,2,4.7,2h12c2.6,0,4.6-2.1,4.6-4.6c0-2.6-2.1-4.6-4.6-4.6h-7.8c0.5-1.9,0.8-4.1,0.9-6.6
		c0-0.5-0.4-0.9-0.8-0.9c0,0,0,0,0,0c-0.5,0-0.9,0.4-0.9,0.8c-0.1,2.9-0.5,5.2-1.1,7.3c-0.1,0.3,0,0.6,0.1,0.8
		c0.2,0.2,0.4,0.4,0.7,0.4h9c1.6,0,2.9,1.3,2.9,2.9c0,1.6-1.3,2.9-2.9,2.9h-12c-1.3,0-2.5-0.5-3.4-1.5c-0.9-0.9-1.3-2.2-1.3-3.4
		c0.2-3.1,0.6-6.1,1.2-9c1.2-5.7,6.2-9.8,12-9.9c1.4,1.3,3.1,2.2,5.1,2.2c0.7,0,1.3-0.1,2-0.3v13.9c0,1.3,1,2.3,2.3,2.3h9.3v2.3
		h-6.7c-1.4,0-2.6,1.2-2.6,2.6v1.7c0,0.5,0.4,0.9,0.9,0.9h22.6c0.5,0,0.9-0.4,0.9-0.9v-1.7c0-1.4-1.2-2.6-2.6-2.6h-2.6v-2.3h5.3
		c1.3,0,2.3-1,2.3-2.3v-21C51,17,50,16,48.7,16z M4.3,18.4l0.6-1l0.6,1H4.3z M19.8,1.8l12.3,4l-3.8,1.4c-0.6-2.7-7-2.9-8.4-2.9
		c-1.4,0-7.9,0.2-8.4,3L7.4,5.8L19.8,1.8z M19.9,10c-1.7,0-4.7,0.1-6.7,0.9V7.6C13.3,7,15.6,6,19.9,6c1.9,0,3.7,0.2,4.9,0.6
		c1.3,0.4,1.7,0.8,1.7,1v3.3C24.7,10.1,21.6,10,19.9,10z M20,24c-3.9,0-6.9-4.8-6.9-8.9c0-0.7,0.1-1.3,0.2-1.9c0-0.1,0-0.3,0-0.4
		c0.4-0.4,2.6-1.1,6.7-1.1c4.2,0,6.4,0.7,6.7,1.1c0,0,0,0,0,0c0,0.1,0,0.2,0,0.3c0.2,0.6,0.2,1.3,0.2,2c0,0.3,0,0.6,0,0.9h-2.6
		C23,16,22,17,22,18.3v5.3C21.3,23.8,20.6,24,20,24z M23.7,39.3v-21c0-0.3,0.2-0.5,0.5-0.5h1.2v22h-1.2
		C23.9,39.8,23.7,39.6,23.7,39.3z M26,46.5c0-0.5,0.4-0.9,0.9-0.9h1c-0.1,0.3-0.2,0.6-0.2,0.9v0.9H26V46.5z M46.9,46.5v0.9H29.5
		v-0.9c0-0.5,0.4-0.9,0.9-0.9h4.1h8.1H46C46.5,45.6,46.9,46,46.9,46.5z M35.3,43.9V33.4h6.4v10.4H35.3z M49.2,39.3
		c0,0.3-0.2,0.5-0.5,0.5h-5.3v-7.3c0-0.5-0.4-0.9-0.9-0.9h-8.1c-0.5,0-0.9,0.4-0.9,0.9v7.3h-6.4v-22h21.5c0.3,0,0.5,0.2,0.5,0.5
		V39.3z"/>
	<path class="st0" d="M42.6,25.9h-8.1c-0.5,0-0.9,0.4-0.9,0.9c0,0.5,0.4,0.9,0.9,0.9h8.1c0.5,0,0.9-0.4,0.9-0.9
		C43.4,26.3,43,25.9,42.6,25.9z"/>
	<path class="st0" d="M42.6,23h-8.1c-0.5,0-0.9,0.4-0.9,0.9c0,0.5,0.4,0.9,0.9,0.9h8.1c0.5,0,0.9-0.4,0.9-0.9
		C43.4,23.4,43,23,42.6,23z"/>
</g>
</svg>
