<?xml version="1.0" encoding="utf-8"?>
<!-- Generator: Adobe Illustrator 25.4.1, SVG Export Plug-In . SVG Version: 6.00 Build 0)  -->
<svg version="1.1" id="圖層_1" xmlns="http://www.w3.org/2000/svg" xmlns:xlink="http://www.w3.org/1999/xlink" x="0px" y="0px"
	 viewBox="0 0 60 60" style="enable-background:new 0 0 60 60;" xml:space="preserve">
<style type="text/css">
	.st0{fill:#FFFFFF;}
</style>
<g>
	<rect x="3.7" y="55.1" class="st0" width="53.5" height="2.8"/>
	<polygon class="st0" points="45.8,56.7 43,56.3 45.1,41.6 18.9,41.6 16.7,56.7 13.9,56.3 16.4,38.8 48.3,38.8 	"/>
	<path class="st0" d="M9.5,53.2H8.3c-3.3,0-6.1-2.7-6.1-6.1V35.5c0-5,8.3-7.2,14.2-7.2s14.2,2.2,14.2,7.2v4.7h-2.8v-4.7
		c0-2.2-5.6-4.4-11.4-4.4c-5.7,0-11.4,2.2-11.4,4.4v11.6c0,1.8,1.5,3.2,3.2,3.2h1.2V53.2z"/>
	<path class="st0" d="M51.3,37.1l-1.8-2.2c4-3.3,6.3-8.1,6.3-13.3c0-9.5-7.7-17.2-17.2-17.2c-4.2,0-8.3,1.6-11.5,4.4l-1.9-2.1
		c3.7-3.3,8.4-5.1,13.3-5.1c11,0,20,9,20,20C58.6,27.6,55.9,33.3,51.3,37.1z"/>
	<polygon class="st0" points="40,29.7 37.2,29.7 37.2,18.3 36.3,18.3 36.3,15.5 40,15.5 	"/>
	<path class="st0" d="M38.6,13.7h-1.2c-0.8,0-1.4-0.6-1.4-1.4c0-0.8,0.6-1.4,1.4-1.4h1.2c0.8,0,1.4,0.6,1.4,1.4
		C40,13.1,39.4,13.7,38.6,13.7z"/>
	<rect x="36.3" y="28.3" class="st0" width="4.7" height="2.8"/>
	<path class="st0" d="M16.5,26.5c-4.6,0-8.4-3.8-8.4-8.4v-3.5c0-4.6,3.8-8.4,8.4-8.4c4.6,0,8.4,3.8,8.4,8.4v3.5
		C24.9,22.8,21.2,26.5,16.5,26.5z M16.5,9c-3.1,0-5.6,2.5-5.6,5.6v3.5c0,3.1,2.4,5.6,5.6,5.6s5.6-2.4,5.6-5.6v-3.5
		C22,11.5,19.5,9,16.5,9z"/>
	<rect x="8.1" y="40.2" class="st0" width="2.8" height="16.3"/>
</g>
</svg>
