<?xml version="1.0" encoding="utf-8"?>
<!-- Generator: Adobe Illustrator 25.4.1, SVG Export Plug-In . SVG Version: 6.00 Build 0)  -->
<svg version="1.1" id="圖層_1" xmlns="http://www.w3.org/2000/svg" xmlns:xlink="http://www.w3.org/1999/xlink" x="0px" y="0px"
	 viewBox="0 0 60 60" style="enable-background:new 0 0 60 60;" xml:space="preserve">
<style type="text/css">
	.st0{fill:#FFFFFF;}
</style>
<g>
	<path class="st0" d="M31.8,24.5c-0.7,0-1.3-0.2-1.8-0.7c-0.7-0.6-1.1-1.5-1.1-2.4c0-1,0.5-2,1.4-2.9c0.8-0.8,2-1.3,3.2-1.3h5.1
		c1.2,0,2.4,0.4,3.2,1.3c0.9,0.9,1.4,1.9,1.4,2.9c0,0.9-0.3,1.7-0.9,2.3c-0.4,0.4-1,0.4-1.4,0c-0.4-0.4-0.4-1,0-1.4
		c0.2-0.3,0.4-0.6,0.4-0.9c0-0.5-0.3-1-0.8-1.5c-0.5-0.4-1.1-0.7-1.8-0.7h-5.1c-0.7,0-1.4,0.3-1.8,0.7c-0.5,0.5-0.8,1-0.8,1.5
		c0,0.4,0.2,0.7,0.4,0.9c0.1,0.1,0.4,0.3,0.8,0.2c0.1,0,0.1,0,0.2,0h4.5c0.5,0,1,0.4,1,1c0,0.5-0.4,1-1,1h-4.4
		C32.1,24.4,32,24.5,31.8,24.5z"/>
	<path class="st0" d="M30.1,44.1c-0.3,0-0.5-0.1-0.7-0.3c-0.4-0.4-0.4-1,0-1.4c1.8-1.8,1.9-4.8,0.2-6.7l-3.6-4c-0.4-0.4-0.3-1,0-1.4
		l2.9-2.9c1.2-1.2,1.4-3,0.6-4.4l-6.1,6.1c-1.2,1.2-3.4,3.8-3.8,4.9c-0.7,1.5-1.2,2.6-2.2,4c-0.3,0.4-0.9,0.5-1.4,0.2
		c-0.4-0.3-0.5-0.9-0.2-1.4c0.9-1.2,1.4-2.2,2-3.6c0.7-1.6,3.3-4.5,4.2-5.5l6.9-6.9c0.4-0.4,1-0.4,1.4,0c1.1,1.1,1.7,2.5,1.7,4
		c0,1.5-0.6,2.9-1.7,4L28,31.1l3,3.3c2.4,2.7,2.3,6.8-0.2,9.4C30.6,44,30.3,44.1,30.1,44.1z"/>
	<path class="st0" d="M37.7,34.1c-0.3,0-0.5-0.1-0.7-0.3c-0.4-0.4-0.4-1,0-1.4l13-13c0.3-0.3,0.4-0.6,0.4-0.9c0-0.4-0.1-0.7-0.4-0.9
		c-0.5-0.5-1.4-0.5-1.9,0l-13,13c-0.4,0.4-1,0.4-1.4,0c-0.4-0.4-0.4-1,0-1.4l13-13c1.3-1.3,3.4-1.3,4.7,0c1.3,1.3,1.3,3.4,0,4.7
		l-13,13C38.2,34,38,34.1,37.7,34.1z"/>
	<path class="st0" d="M41,37.4c-0.3,0-0.5-0.1-0.7-0.3c-0.4-0.4-0.4-1,0-1.4l10.1-10.1c0.5-0.5,0.5-1.4,0-1.9
		c-0.5-0.5-1.4-0.5-1.9,0L38.5,33.8c-0.4,0.4-1,0.4-1.4,0c-0.4-0.4-0.4-1,0-1.4l10.1-10.1c1.3-1.3,3.4-1.3,4.7,0
		c0.6,0.6,1,1.5,1,2.3s-0.3,1.7-1,2.3L41.7,37.1C41.6,37.3,41.3,37.4,41,37.4z"/>
	<path class="st0" d="M30.5,52.2c-0.3,0-0.6-0.1-0.8-0.4c-0.3-0.4-0.3-1,0.1-1.4c1.1-0.9,2.5-1.8,3.9-2.5c1.1-0.5,2-1.2,2.9-2
		L51,31.6c0.5-0.5,0.5-1.4,0-1.9c-0.5-0.5-1.4-0.5-1.9,0l-7.4,7.4c-0.4,0.4-1,0.4-1.4,0c-0.4-0.4-0.4-1,0-1.4l7.4-7.4
		c1.3-1.3,3.4-1.3,4.7,0c1.3,1.3,1.3,3.4,0,4.7L38.1,47.3c-1,1-2.1,1.8-3.4,2.4c-1.3,0.7-2.5,1.4-3.5,2.2
		C31,52.1,30.7,52.2,30.5,52.2z"/>
	<path class="st0" d="M29.6,21.8c-0.2,0-0.5-0.1-0.7-0.3c-1.1-1-6.7-6.1-8.3-7.7c-1.8-1.9-3.6-3.9-3-6.9c0.6-3.2,3.5-5.5,6.7-5.5
		c2.4,0,4.4,1.3,5.6,3.2c1.2-1.9,3.2-3.2,5.6-3.2c0,0,0.1,0,0.1,0c3.2,0,6,2.4,6.6,5.5c0.5,2.9-1.3,5.1-3.1,6.8
		c-1,0.9-2.6,2.5-4.2,4c-0.4,0.4-1,0.3-1.4-0.1c-0.4-0.4-0.3-1,0.1-1.4c1.6-1.5,3.2-3,4.2-3.9c1.7-1.7,2.8-3.2,2.5-5.1
		c-0.4-2.2-2.4-3.9-4.7-3.9c0,0,0,0-0.1,0c-2.6,0-4.7,2.2-4.7,4.7c0,0.5-0.4,1-1,1s-1-0.4-1-1c0-2.6-2.1-4.7-4.6-4.7
		C22,3.4,19.9,5,19.5,7.3c-0.4,2,0.9,3.5,2.5,5.1c1.6,1.6,7.2,6.7,8.3,7.7c0.4,0.4,0.4,1,0.1,1.4C30.1,21.7,29.9,21.8,29.6,21.8z"/>
	<path class="st0" d="M26.6,58.6c-0.3,0-0.5-0.1-0.7-0.3L9.7,42.1c-0.2-0.2-0.3-0.4-0.3-0.7c0-0.3,0.1-0.5,0.3-0.7l5.1-5.1
		c0.4-0.4,1-0.4,1.4,0l16.2,16.2c0.2,0.2,0.3,0.4,0.3,0.7c0,0.3-0.1,0.5-0.3,0.7l-5.1,5.1C27.1,58.5,26.8,58.6,26.6,58.6z
		 M11.8,41.4l14.8,14.8l3.7-3.7L15.5,37.7L11.8,41.4z"/>
</g>
</svg>
