<?xml version="1.0" encoding="utf-8"?>
<!-- Generator: Adobe Illustrator 25.4.1, SVG Export Plug-In . SVG Version: 6.00 Build 0)  -->
<svg version="1.1" id="圖層_1" xmlns="http://www.w3.org/2000/svg" xmlns:xlink="http://www.w3.org/1999/xlink" x="0px" y="0px"
	 viewBox="0 0 60 60" style="enable-background:new 0 0 60 60;" xml:space="preserve">
<style type="text/css">
	.st0{fill:#FFFFFF;}
</style>
<g>
	<g>
		<path class="st0" d="M24.9,51.8c-2.4,0-4.3-0.2-6.6-0.8l-2.2-0.7c-0.7-0.2-1-0.9-0.8-1.6c0.2-0.7,0.9-1,1.6-0.8l2.2,0.7
			c2,0.5,3.7,0.7,5.9,0.7c3.5,0,7-0.6,9.8-1.6l19.1-8c0.5-0.3,1-0.8,0.8-1.3c-0.2-0.4-0.8-0.7-1.4-0.6l-11.1,2.4
			c-0.7,0.1-1.3-0.3-1.5-1c-0.1-0.7,0.3-1.3,1-1.5l11-2.3c1.7-0.4,3.6,0.5,4.2,2.1c0.8,1.8-0.4,3.6-2,4.5c0,0-0.1,0-0.1,0.1L35.6,50
			C32.5,51.2,28.7,51.8,24.9,51.8z"/>
		<path class="st0" d="M12.2,54.7c-0.1,0-0.2,0-0.3,0c-0.3-0.1-0.6-0.3-0.8-0.6L1.3,35.7c-0.3-0.6-0.1-1.3,0.4-1.6l4.2-2.8
			c0.3-0.2,0.7-0.3,1-0.2c0.3,0.1,0.6,0.3,0.8,0.6L17.6,50c0.3,0.6,0.1,1.3-0.4,1.6l-4.2,2.8C12.7,54.6,12.5,54.7,12.2,54.7z
			 M4,35.5l8.7,16.1l2.1-1.4L6.2,34.1L4,35.5z"/>
		<path class="st0" d="M38.3,43.4H24.9c-0.7,0-1.2-0.6-1.2-1.2s0.6-1.2,1.2-1.2h13.4c1.3,0,2.3-1,2.3-2.3s-1-2.3-2.3-2.3h-9.2
			c-0.3,0-0.5-0.1-0.8-0.2l-1.2-0.9c-2.6-2-5.9-3.1-9.2-3.1c-2.1,0-4.2,0.4-6.1,1.3l-3.4,1.4c-0.6,0.3-1.4,0-1.6-0.7
			c-0.3-0.6,0-1.4,0.7-1.6l3.4-1.4c2.3-1,4.6-1.5,7.1-1.5c3.8,0,7.6,1.3,10.7,3.6l0.9,0.7h8.7c2.6,0,4.8,2.1,4.8,4.8
			S40.9,43.4,38.3,43.4z"/>
	</g>
	<path class="st0" d="M39,18.1c-3.4,0-6.2-2.8-6.2-6.2s2.8-6.2,6.2-6.2s6.2,2.8,6.2,6.2S42.4,18.1,39,18.1z M39,8.2
		c-2,0-3.7,1.6-3.7,3.7s1.6,3.7,3.7,3.7c2,0,3.7-1.6,3.7-3.7S41,8.2,39,8.2z"/>
	<path class="st0" d="M46,33.5c-0.7,0-1.2-0.6-1.2-1.2v-7c0-1.6-1.3-3-3-3h-5.6c-1.6,0-3,1.3-3,3V30c0,0.7-0.6,1.2-1.2,1.2
		s-1.2-0.6-1.2-1.2v-4.8c0-3,2.5-5.5,5.5-5.5h5.6c3,0,5.5,2.5,5.5,5.5v7C47.3,33,46.7,33.5,46,33.5z"/>
	<path class="st0" d="M24.9,16.6c-3.4,0-6.2-2.8-6.2-6.2s2.8-6.2,6.2-6.2s6.2,2.8,6.2,6.2S28.3,16.6,24.9,16.6z M24.9,6.8
		c-2,0-3.7,1.6-3.7,3.7s1.6,3.7,3.7,3.7s3.7-1.6,3.7-3.7S26.9,6.8,24.9,6.8z"/>
	<path class="st0" d="M17.9,28.5c-0.7,0-1.2-0.6-1.2-1.2v-3.4c0-3,2.5-5.5,5.5-5.5h7c0.7,0,1.3,0.6,1.3,1.2s-0.6,1.2-1.3,1.2h-7
		c-1.6,0-3,1.3-3,3v3.4C19.1,27.9,18.6,28.5,17.9,28.5z"/>
</g>
</svg>
