<?xml version="1.0" encoding="utf-8"?>
<!-- Generator: Adobe Illustrator 25.4.1, SVG Export Plug-In . SVG Version: 6.00 Build 0)  -->
<svg version="1.1" id="圖層_1" xmlns="http://www.w3.org/2000/svg" xmlns:xlink="http://www.w3.org/1999/xlink" x="0px" y="0px"
	 viewBox="0 0 60 60" style="enable-background:new 0 0 60 60;" xml:space="preserve">
<style type="text/css">
	.st0{fill:#FFFFFF;}
</style>
<g>
	<path class="st0" d="M42.4,41.3c-0.9-0.9-2.1-1.4-3.2-1.4c-1.2,0-2.4,0.5-3.2,1.4l-4.6,4.6c-4.8,0.5-9.4-1.2-12.7-4.5
		s-5-7.9-4.6-12.7l4.6-4.6c0.9-0.9,1.4-2.1,1.4-3.2c0-1.3-0.5-2.4-1.4-3.2l-3.2-3.2c-1-1-2.3-1.4-3.7-1.4c-1.4,0-2.6,0.7-3.3,1.8
		c-7.6,10.4-6.4,24.7,2.7,33.8c5,5,11.5,7.7,18.5,7.7c5.5,0,10.8-1.7,15.3-5c1.1-0.8,1.8-2,1.9-3.3s-0.4-2.7-1.4-3.7L42.4,41.3z
		 M12.2,15.3c0.6,0,1.3,0.3,1.7,0.7l3.2,3.2c0.9,0.9,0.9,2.4,0,3.3l-0.9,0.9L9.7,17c0.2-0.3,0.4-0.5,0.5-0.8c0.4-0.5,1-0.9,1.7-1
		C12.1,15.3,12.1,15.3,12.2,15.3z M8.6,19.1l5.9,5.9l-2.3,2.3c-0.2,0.2-0.3,0.5-0.4,0.6C11.2,33.6,13,39,16.9,43s9.4,5.9,14.9,5.1
		c0.3,0,0.5-0.2,0.6-0.4l2.4-2.4l5.9,5.9c-9.2,4.9-20.6,3.3-28.2-4.2C5.2,39.6,3.7,28.3,8.6,19.1z M43,50.3l-6.4-6.4l0.9-0.9
		c0.9-0.9,2.4-0.9,3.3,0l3.2,3.2c0.5,0.5,0.7,1.2,0.7,1.9c-0.1,0.7-0.5,1.4-1,1.7C43.4,49.9,43.2,50.1,43,50.3z"/>
	<path class="st0" d="M48.3,11.7C39.4,2.8,25.4,1.6,15,8.6c-0.3,0.2-0.5,0.5-0.5,0.7c0,0.3,0,0.6,0.2,0.8c0.2,0.3,0.5,0.5,0.7,0.5
		c0.3,0.1,0.6,0,0.8-0.2c9.5-6.5,22.2-5.2,30.4,2.9c8.1,8.1,9.4,20.9,2.9,30.4c-0.4,0.5-0.2,1.2,0.3,1.5c0.2,0.1,0.5,0.2,0.6,0.2
		c0.4,0,0.7-0.2,0.9-0.5C58.4,34.6,57.2,20.6,48.3,11.7z"/>
	<path class="st0" d="M35.3,18.9h7c0.6,0,1.1-0.5,1.1-1.1c0-0.5-0.5-1.1-1.1-1.1h-6.9c-0.6,0-1.1,0.5-1.1,1.1
		C34.3,18.4,34.8,18.9,35.3,18.9z"/>
	<path class="st0" d="M46.5,22.3H35.3c-0.6,0-1.1,0.5-1.1,1.1c0,0.5,0.5,1.1,1.1,1.1h11.2c0.6,0,1.1-0.5,1.1-1.1
		C47.6,22.8,47.1,22.3,46.5,22.3z"/>
	<path class="st0" d="M24.2,24.5h6.9c0.6,0,1.1-0.5,1.1-1.1v-5.6c0-0.6-0.5-1.1-1.1-1.1h-6.9c-0.6,0-1.1,0.5-1.1,1.1v5.6
		C23.1,24,23.6,24.5,24.2,24.5z M25.3,22.3v-3.3H30v3.3H25.3z"/>
	<path class="st0" d="M46.5,27.8H24.2c-0.6,0-1.1,0.5-1.1,1.1c0,0.5,0.5,1.1,1.1,1.1h22.3c0.6,0,1.1-0.5,1.1-1.1
		C47.6,28.4,47.1,27.8,46.5,27.8z"/>
	<path class="st0" d="M42.3,35.6c0.6,0,1.1-0.5,1.1-1.1s-0.5-1.1-1.1-1.1H24.2c-0.6,0-1.1,0.5-1.1,1.1s0.5,1.1,1.1,1.1H42.3z"/>
</g>
</svg>
