<?xml version="1.0" encoding="utf-8"?>
<!-- Generator: Adobe Illustrator 25.4.1, SVG Export Plug-In . SVG Version: 6.00 Build 0)  -->
<svg version="1.1" id="圖層_1" xmlns="http://www.w3.org/2000/svg" xmlns:xlink="http://www.w3.org/1999/xlink" x="0px" y="0px"
	 viewBox="0 0 60 60" style="enable-background:new 0 0 60 60;" xml:space="preserve">
<style type="text/css">
	.st0{fill:#FFFFFF;}
</style>
<g>
	<path class="st0" d="M21.9,12.2c-5.7,0-15.4-1-15.4-4.6S16.2,3,21.9,3s15.4,1,15.4,4.6S27.6,12.2,21.9,12.2z M21.9,5
		C13.7,5,8.9,6.7,8.6,7.6c0.3,0.9,5.1,2.6,13.3,2.6c8.2,0,13-1.7,13.3-2.6C34.9,6.7,30.1,5,21.9,5z M35.3,7.6L35.3,7.6L35.3,7.6z"/>
	<path class="st0" d="M21.9,18.9c-7.6,0-15.4-1.8-15.4-5.3V8.3c0-0.6,0.5-1,1-1s1,0.5,1,1v5.3c0,1.1,4.7,3.3,13.3,3.3
		c8.6,0,13.3-2.2,13.3-3.3V8.3c0-0.6,0.5-1,1-1c0.6,0,1,0.5,1,1v5.3C37.3,17.1,29.6,18.9,21.9,18.9z"/>
	<path class="st0" d="M21.9,26.1c-7.6,0-15.4-1.8-15.4-5.3V14c0-0.6,0.5-1,1-1s1,0.5,1,1v6.8c0,1.1,4.7,3.3,13.3,3.3
		c8.6,0,13.3-2.2,13.3-3.3V14c0-0.6,0.5-1,1-1c0.6,0,1,0.5,1,1v6.8C37.3,24.3,29.6,26.1,21.9,26.1z"/>
	<path class="st0" d="M21.9,32.8c-7.6,0-15.3-1.8-15.3-5.3v-7.7c0-0.6,0.5-1,1-1s1,0.5,1,1v7.7c0,1.1,4.7,3.3,13.3,3.3
		c1.8,0,3.5-0.1,5.1-0.3c0.6-0.1,1.1,0.3,1.1,0.9c0.1,0.6-0.3,1.1-0.9,1.1C25.5,32.7,23.7,32.8,21.9,32.8z"/>
	<path class="st0" d="M36.3,26.5c-0.6,0-1-0.5-1-1v-4.3c0-0.6,0.5-1,1-1c0.6,0,1,0.5,1,1v4.3C37.3,26.1,36.9,26.5,36.3,26.5z"/>
	<path class="st0" d="M21.9,39.9c-7.6,0-15.3-1.8-15.3-5.3v-9.1c0-0.6,0.5-1,1-1s1,0.5,1,1v9.1c0,1.1,4.7,3.3,13.3,3.3l0.7,0
		c0.6,0,1,0.4,1,1c0,0.6-0.4,1-1,1L21.9,39.9z"/>
	<path class="st0" d="M21.9,46.7c-7.6,0-15.3-1.8-15.3-5.3v-7.2c0-0.6,0.5-1,1-1s1,0.5,1,1v7.2c0,1.1,4.7,3.3,13.3,3.3
		c0.5,0,1,0,1.5,0c0.6,0,1,0.4,1,1c0,0.6-0.4,1-1,1C22.9,46.6,22.4,46.7,21.9,46.7z"/>
	<path class="st0" d="M40.6,56.7c-7.7,0-13.9-6.3-13.9-13.9s6.3-13.9,13.9-13.9s13.9,6.3,13.9,13.9S48.3,56.7,40.6,56.7z M40.6,30.9
		c-6.6,0-11.9,5.3-11.9,11.9S34,54.7,40.6,54.7s11.9-5.3,11.9-11.9S47.2,30.9,40.6,30.9z"/>
	<path class="st0" d="M42,49.5h-5.7c-0.6,0-1-0.5-1-1c0-0.6,0.5-1,1-1H42c1,0,1.9-0.8,1.9-1.9s-0.8-1.9-1.9-1.9h-2.9
		c-2.1,0-3.9-1.7-3.9-3.9c0-2.1,1.7-3.9,3.9-3.9h5.7c0.6,0,1,0.5,1,1c0,0.6-0.5,1-1,1h-5.7c-1,0-1.9,0.8-1.9,1.9
		c0,1,0.8,1.9,1.9,1.9H42c2.1,0,3.9,1.7,3.9,3.9C45.9,47.8,44.2,49.5,42,49.5z"/>
	<path class="st0" d="M40.6,38c-0.6,0-1-0.5-1-1v-2.9c0-0.6,0.5-1,1-1s1,0.5,1,1V37C41.6,37.6,41.2,38,40.6,38z"/>
	<path class="st0" d="M40.6,52.4c-0.6,0-1-0.5-1-1v-2.9c0-0.6,0.5-1,1-1s1,0.5,1,1v2.9C41.6,51.9,41.2,52.4,40.6,52.4z"/>
</g>
</svg>
