<?xml version="1.0" encoding="utf-8"?>
<!-- Generator: Adobe Illustrator 25.4.1, SVG Export Plug-In . SVG Version: 6.00 Build 0)  -->
<svg version="1.1" id="圖層_1" xmlns="http://www.w3.org/2000/svg" xmlns:xlink="http://www.w3.org/1999/xlink" x="0px" y="0px"
	 viewBox="0 0 60 60" style="enable-background:new 0 0 60 60;" xml:space="preserve">
<style type="text/css">
	.st0{fill:#FFFFFF;}
</style>
<g>
	<g>
		<path class="st0" d="M12.8,56.8c-0.6,0-1-0.4-1-1V43.5c0-0.6,0.4-1,1-1s1,0.4,1,1v12.3C13.8,56.4,13.4,56.8,12.8,56.8z"/>
		<path class="st0" d="M8.3,56.8c-0.6,0-1-0.4-1-1V33.4c0-0.6,0.4-1,1-1s1,0.4,1,1v22.4C9.3,56.4,8.9,56.8,8.3,56.8z"/>
		<path class="st0" d="M8.3,42.2H6.1c-1.8,0-3.2-1.5-3.2-3.2v-5.6c0-4.3,2.7-6.6,7.7-6.6h4.3c6.7-2.2,14.5-4.4,14.5-4.4
			c0.5-0.2,1.1,0.2,1.2,0.7c0.2,0.5-0.2,1.1-0.7,1.2c-0.1,0-7.9,2.3-14.6,4.5c-0.1,0-0.2,0.1-0.3,0.1h-4.4c-5.7,0-5.7,3.5-5.7,4.6
			V39c0,0.7,0.6,1.2,1.2,1.2h2.2c0.6,0,1,0.4,1,1S8.9,42.2,8.3,42.2z"/>
		<path class="st0" d="M17.3,56.8c-0.6,0-1-0.4-1-1V33.4c0-0.4,0.2-0.7,0.6-0.9l12.3-5.6c0.5-0.2,1.1,0,1.3,0.5
			c0.2,0.5,0,1.1-0.5,1.3L18.3,34v21.8C18.3,56.4,17.9,56.8,17.3,56.8z"/>
	</g>
	<g>
		<path class="st0" d="M46.5,56.8c-0.6,0-1-0.4-1-1V43.5c0-0.6,0.4-1,1-1s1,0.4,1,1v12.3C47.5,56.4,47,56.8,46.5,56.8z"/>
		<path class="st0" d="M51,56.8c-0.6,0-1-0.4-1-1V33.4c0-0.6,0.4-1,1-1s1,0.4,1,1v22.4C52,56.4,51.5,56.8,51,56.8z"/>
		<path class="st0" d="M53.2,42.2H51c-0.6,0-1-0.4-1-1s0.4-1,1-1h2.2c0.7,0,1.2-0.6,1.2-1.2v-5.6c0-1.1,0-4.6-5.7-4.6h-4.4
			c-0.1,0-0.2,0-0.3-0.1c-6.7-2.2-14.5-4.5-14.6-4.5c-0.5-0.2-0.8-0.7-0.7-1.2c0.2-0.5,0.7-0.8,1.2-0.7c0.1,0,7.8,2.2,14.5,4.4h4.3
			c5,0,7.7,2.3,7.7,6.6V39C56.5,40.8,55,42.2,53.2,42.2z"/>
		<path class="st0" d="M42,56.8c-0.6,0-1-0.4-1-1V34l-11.8-5.3c-0.5-0.2-0.7-0.8-0.5-1.3c0.2-0.5,0.8-0.7,1.3-0.5l12.3,5.6
			c0.4,0.2,0.6,0.5,0.6,0.9v22.4C43,56.4,42.5,56.8,42,56.8z"/>
	</g>
	<path class="st0" d="M29.7,24.3c-0.6,0-1-0.4-1-1V4.2c0-0.6,0.4-1,1-1s1,0.4,1,1v19.1C30.7,23.8,30.2,24.3,29.7,24.3z"/>
	<path class="st0" d="M29.7,35.5c-0.6,0-1-0.4-1-1v-6.7c0-0.6,0.4-1,1-1s1,0.4,1,1v6.7C30.7,35,30.2,35.5,29.7,35.5z"/>
	<path class="st0" d="M34,14.7c-1.4,0-3-0.1-4.6-0.5c-0.5-0.1-0.9-0.7-0.7-1.2c0.1-0.5,0.7-0.9,1.2-0.7c3.5,0.9,7.1,0.3,8.1,0.1
		c0.2-0.4,0.7-1.5,0.7-3.6c0-1.8-0.3-2.8-0.6-3.4c-1.5,0.3-5.1,0.8-8.7-0.2C28.9,5,28.5,4.5,28.7,4c0.1-0.5,0.7-0.9,1.2-0.7
		c4.2,1,8.4,0,8.5,0c0.3-0.1,0.7,0,0.9,0.3c0.1,0.1,1.4,1.5,1.4,5.2s-1.3,5.1-1.4,5.2c-0.1,0.1-0.3,0.2-0.5,0.3
		C38.7,14.2,36.7,14.7,34,14.7z"/>
	<path class="st0" d="M11.7,24.3c-2.4,0-4.4-2-4.4-4.4v-1.1c0-2.4,2-4.4,4.4-4.4c2.4,0,4.4,2,4.4,4.4v1.1
		C16.1,22.3,14.1,24.3,11.7,24.3z M11.7,16.4c-1.3,0-2.4,1.1-2.4,2.4v1.1c0,1.3,1.1,2.4,2.4,2.4s2.4-1.1,2.4-2.4v-1.1
		C14.1,17.5,13,16.4,11.7,16.4z"/>
	<path class="st0" d="M47.6,24.3c-2.4,0-4.4-2-4.4-4.4v-1.1c0-2.4,2-4.4,4.4-4.4s4.4,2,4.4,4.4v1.1C52,22.3,50,24.3,47.6,24.3z
		 M47.6,16.4c-1.3,0-2.4,1.1-2.4,2.4v1.1c0,1.3,1.1,2.4,2.4,2.4s2.4-1.1,2.4-2.4v-1.1C50,17.5,48.9,16.4,47.6,16.4z"/>
</g>
</svg>
