<?xml version="1.0" encoding="utf-8"?>
<!-- Generator: Adobe Illustrator 25.4.1, SVG Export Plug-In . SVG Version: 6.00 Build 0)  -->
<svg version="1.1" id="圖層_1" xmlns="http://www.w3.org/2000/svg" xmlns:xlink="http://www.w3.org/1999/xlink" x="0px" y="0px"
	 viewBox="0 0 60 60" style="enable-background:new 0 0 60 60;" xml:space="preserve">
<style type="text/css">
	.st0{fill:none;stroke:#FFFFFF;stroke-width:2;stroke-linecap:round;stroke-linejoin:round;}
</style>
<g>
	<g>
		<line class="st0" x1="11.5" y1="44.9" x2="11.5" y2="58.5"/>
		<line class="st0" x1="6.6" y1="33.8" x2="6.6" y2="58.5"/>
		<path class="st0" d="M30,22.8c0,0-8.6,2.5-16.1,4.9H9.1c-3.7,0-7.4,1.2-7.4,6.2V40c0,1.4,1.1,2.5,2.5,2.5h2.5"/>
		<polyline class="st0" points="16.5,58.5 16.5,33.8 30,27.7 		"/>
	</g>
	<g>
		<line class="st0" x1="48.5" y1="44.9" x2="48.5" y2="58.5"/>
		<line class="st0" x1="53.4" y1="33.8" x2="53.4" y2="58.5"/>
		<path class="st0" d="M30,22.8c0,0,8.6,2.5,16.1,4.9H51c3.7,0,7.4,1.2,7.4,6.2V40c0,1.4-1.1,2.5-2.5,2.5h-2.5"/>
		<polyline class="st0" points="43.6,58.5 43.6,33.8 30,27.7 		"/>
	</g>
	<line class="st0" x1="30" y1="22.8" x2="30" y2="1.8"/>
	<line class="st0" x1="30" y1="35.1" x2="30" y2="27.7"/>
	<path class="st0" d="M30,1.8c4.9,1.2,9.9,0,9.9,0s1.2,1.2,1.2,4.9s-1.2,4.9-1.2,4.9s-4.9,1.2-9.9,0"/>
	<path class="st0" d="M14,17.8c0-2-1.7-3.7-3.7-3.7s-3.7,1.7-3.7,3.7v1.2c0,2,1.7,3.7,3.7,3.7s3.7-1.7,3.7-3.7V17.8z"/>
	<path class="st0" d="M53.4,17.8c0-2-1.7-3.7-3.7-3.7c-2,0-3.7,1.7-3.7,3.7v1.2c0,2,1.7,3.7,3.7,3.7c2,0,3.7-1.7,3.7-3.7V17.8z"/>
</g>
</svg>
