<?xml version="1.0" encoding="utf-8"?>
<!-- Generator: Adobe Illustrator 25.4.1, SVG Export Plug-In . SVG Version: 6.00 Build 0)  -->
<svg version="1.1" id="Layer_1" xmlns="http://www.w3.org/2000/svg" xmlns:xlink="http://www.w3.org/1999/xlink" x="0px" y="0px"
	 viewBox="0 0 56.7 56.7" style="enable-background:new 0 0 56.7 56.7;" xml:space="preserve">
<style type="text/css">
	.st0{fill-rule:evenodd;clip-rule:evenodd;fill:#FFFFFF;}
</style>
<path class="st0" d="M52.3,26.2l-0.4-0.8l-0.7-0.5c-0.9-0.7-5.4,0-6.6-1.1c-0.9-0.8-1-2.2-1.2-4.1c-0.5-3.7-0.8-3.9-1.4-5.2
	c-2.1-4.5-7.8-7.9-11.8-8.3H19.5C11.1,6.1,4.3,13,4.3,21.3v17.8c0,8.4,6.9,15.2,15.3,15.2h17.5c8.4,0,15.2-6.9,15.3-15.2l0.1-12.3
	L52.3,26.2z M19.7,18.6h8.5c1.6,0,2.9,1.3,2.9,2.9c0,1.6-1.3,2.9-2.9,2.9h-8.5c-1.6,0-2.9-1.3-2.9-2.9
	C16.8,19.9,18.1,18.6,19.7,18.6z M36.9,41.8H19.7c-1.6,0-2.9-1.3-2.9-2.9c0-1.6,1.3-2.9,2.9-2.9h17.2c1.6,0,2.9,1.3,2.9,2.9
	C39.8,40.5,38.5,41.8,36.9,41.8z"/>
</svg>
