<?xml version="1.0" encoding="utf-8"?>
<!-- Generator: Adobe Illustrator 25.4.1, SVG Export Plug-In . SVG Version: 6.00 Build 0)  -->
<svg version="1.1" id="Layer_1" xmlns="http://www.w3.org/2000/svg" xmlns:xlink="http://www.w3.org/1999/xlink" x="0px" y="0px"
	 viewBox="0 0 32 32" style="enable-background:new 0 0 32 32;" xml:space="preserve">
<style type="text/css">
	.st0{fill:#8C00EF;}
</style>
<g>
	<g>
		<path class="st0" d="M16.4,23.7C9.3,23.7,3.6,18,3.6,10.9c0-0.7,0.6-1.3,1.3-1.3s1.3,0.6,1.3,1.3c0,5.6,4.6,10.2,10.2,10.2
			s10.2-4.6,10.2-10.2c0-0.7,0.6-1.3,1.3-1.3s1.3,0.6,1.3,1.3C29.2,17.9,23.5,23.7,16.4,23.7z"/>
	</g>
	<g>
		<path class="st0" d="M16.4,0C14.5,0,13,1.5,13,3.4v9.9c0,1.9,1.5,3.4,3.4,3.4s3.4-1.5,3.4-3.4V3.4C19.8,1.5,18.3,0,16.4,0z"/>
	</g>
	<g>
		<path class="st0" d="M16.4,32c-0.7,0-1.3-0.6-1.3-1.3v-8.3c0-0.7,0.6-1.3,1.3-1.3c0.7,0,1.3,0.6,1.3,1.3v8.3
			C17.7,31.4,17.1,32,16.4,32z"/>
	</g>
	<g>
		<path class="st0" d="M20.6,32h-8.3c-0.7,0-1.3-0.6-1.3-1.3s0.6-1.3,1.3-1.3h8.3c0.7,0,1.3,0.6,1.3,1.3S21.3,32,20.6,32z"/>
	</g>
</g>
</svg>
