<?xml version="1.0" encoding="utf-8"?>
<!-- Generator: Adobe Illustrator 25.4.1, SVG Export Plug-In . SVG Version: 6.00 Build 0)  -->
<svg version="1.1" id="圖層_1" xmlns="http://www.w3.org/2000/svg" xmlns:xlink="http://www.w3.org/1999/xlink" x="0px" y="0px"
	 viewBox="0 0 24 24" style="enable-background:new 0 0 24 24;" xml:space="preserve">
<style type="text/css">
	.st0{fill:#4B7BC2;}
</style>
<g>
	<path class="st0" d="M2.3,9.4c0,1.2,0,2.3,0,3.4c-0.7,0-1.3,0-1.9,0c0-0.1-0.1-0.3-0.1-0.4c0-2.1,0-4.2,0-6.4
		c0-2.1,1.4-3.5,3.4-3.8C5.4,2,7.1,3.1,7.6,4.8C8,6.2,7.7,7.4,6.8,8.4c-1,1.1-2.3,1.4-3.7,1.1C2.9,9.6,2.6,9.5,2.3,9.4z M5.9,6
		c0-1-0.8-1.8-1.8-1.8S2.3,5,2.3,6s0.8,1.9,1.9,1.8C5.1,7.8,5.9,7,5.9,6z"/>
	<path class="st0" d="M4.9,18.8c0,1.2,0,2.3,0,3.4c-0.7,0-1.3,0-2,0c0-0.7,0-1.3,0-2c0-1.8-0.1-3.6,0.1-5.3c0.2-2.1,2.2-3.5,4.3-3.1
		c2.1,0.4,3.4,2.3,3,4.4c-0.4,2-2.5,3.3-4.6,2.8C5.5,19,5.2,18.9,4.9,18.8z M6.6,13.6c-1,0-1.8,0.8-1.8,1.8s0.8,1.8,1.8,1.8
		s1.9-0.9,1.8-1.9C8.4,14.4,7.6,13.6,6.6,13.6z"/>
	<path class="st0" d="M15.6,9.4c-1.8,0-3.5,0-5.2,0c0.5,1.3,1.5,1.6,3.1,0.8c0.3,0.4,0.7,0.8,1,1.2c-1.1,1.2-3,1.4-4.5,0.4
		c-1.6-1-2.1-3-1.3-4.7s2.7-2.5,4.5-2C14.9,5.6,15.9,7.3,15.6,9.4z M13.8,7.8c-1.1-1.5-2.7-1.4-3.4,0C11.5,7.8,12.6,7.8,13.8,7.8z"
		/>
	<path class="st0" d="M23.7,8.7c0,2.1-1.7,3.7-3.8,3.6c-2.1,0-3.7-1.7-3.6-3.8c0-2,1.7-3.7,3.7-3.7C22.1,4.9,23.7,6.6,23.7,8.7z
		 M19.9,10.5c1,0,1.8-0.8,1.9-1.7c0-1-0.7-1.8-1.7-1.9c-1.1,0-1.9,0.7-1.9,1.8C18.2,9.7,19,10.5,19.9,10.5z"/>
	<path class="st0" d="M14.7,21c-2.1,0-3.7-1.6-3.7-3.7s1.7-3.8,3.8-3.8s3.7,1.7,3.7,3.8C18.4,19.4,16.8,21,14.7,21z M16.6,17.3
		c0-1-0.8-1.8-1.8-1.8s-1.9,0.8-1.9,1.8s0.8,1.8,1.8,1.8C15.7,19.1,16.5,18.3,16.6,17.3z"/>
</g>
</svg>
