<?xml version="1.0" encoding="utf-8"?>
<!-- Generator: Adobe Illustrator 25.4.1, SVG Export Plug-In . SVG Version: 6.00 Build 0)  -->
<svg version="1.1" id="圖層_1" xmlns:serif="http://www.serif.com/"
	 xmlns="http://www.w3.org/2000/svg" xmlns:xlink="http://www.w3.org/1999/xlink" x="0px" y="0px" viewBox="0 0 170.7 170.7"
	 style="enable-background:new 0 0 170.7 170.7;" xml:space="preserve">
<style type="text/css">
	.st0{fill:url(#SVGID_1_);}
	.st1{fill:url(#SVGID_00000031903003600746402580000007240998415013877646_);}
	.st2{fill:url(#SVGID_00000161599427691001339020000000509728338135314084_);}
</style>
<g transform="matrix(1.01619,0,0,1.01619,44,43.8384)">
	<linearGradient id="SVGID_1_" gradientUnits="userSpaceOnUse" x1="-29.175" y1="110.725" x2="112.8884" y2="-31.3384">
		<stop  offset="4.570532e-02" style="stop-color:#E40027"/>
		<stop  offset="1" style="stop-color:#B700AE"/>
	</linearGradient>
	<path class="st0" d="M40.7-43.1C17.9-43.1,15-43,6.1-42.6s-15,1.8-20.4,3.9c-5.5,2.1-10.2,5-14.9,9.7s-7.5,9.4-9.7,14.9
		C-41-8.8-42.4-2.7-42.8,6.2c-0.4,9-0.5,11.8-0.5,34.6s0.1,25.7,0.5,34.6c0.4,8.9,1.8,15,3.9,20.4c2.1,5.5,5,10.2,9.7,14.9
		c4.7,4.7,9.4,7.5,14.9,9.7c5.3,2.1,11.4,3.5,20.4,3.9s11.8,0.5,34.6,0.5s25.7-0.1,34.6-0.5s15-1.8,20.4-3.9
		c5.5-2.1,10.2-5,14.9-9.7c4.7-4.7,7.5-9.4,9.7-14.9c2.1-5.3,3.5-11.4,3.9-20.4s0.5-11.8,0.5-34.6s-0.1-25.7-0.5-34.6
		s-1.8-15-3.9-20.4c-2.1-5.5-5-10.2-9.7-14.9s-9.4-7.5-14.9-9.7c-5.3-2.1-11.4-3.5-20.4-3.9C66.3-43,63.5-43.1,40.7-43.1z M40.7-28
		c22.4,0,25.1,0.1,33.9,0.5c8.2,0.4,12.6,1.7,15.6,2.9c3.9,1.5,6.7,3.3,9.7,6.3c2.9,2.9,4.8,5.7,6.3,9.7c1.1,3,2.5,7.4,2.9,15.6
		c0.4,8.9,0.5,11.5,0.5,33.9s-0.1,25.1-0.5,33.9c-0.4,8.2-1.7,12.6-2.9,15.6c-1.5,3.9-3.3,6.7-6.3,9.7c-2.9,2.9-5.7,4.8-9.7,6.3
		c-3,1.1-7.4,2.5-15.6,2.9c-8.9,0.4-11.5,0.5-33.9,0.5s-25.1-0.1-33.9-0.5c-8.2-0.4-12.6-1.7-15.6-2.9c-3.9-1.5-6.7-3.3-9.7-6.3
		c-2.9-2.9-4.8-5.7-6.3-9.7c-1.1-3-2.5-7.4-2.9-15.6c-0.4-8.9-0.5-11.5-0.5-33.9s0.1-25.1,0.5-33.9c0.4-8.2,1.7-12.6,2.9-15.6
		c1.5-3.9,3.3-6.7,6.3-9.7c2.9-2.9,5.7-4.8,9.7-6.3c3-1.1,7.4-2.5,15.6-2.9C15.6-27.9,18.3-28,40.7-28z"/>
	
		<linearGradient id="SVGID_00000050652986803837160710000005939334941427982493_" gradientUnits="userSpaceOnUse" x1="10.225" y1="71.325" x2="72.1808" y2="9.3692">
		<stop  offset="4.570532e-02" style="stop-color:#E40027"/>
		<stop  offset="1" style="stop-color:#B700AE"/>
	</linearGradient>
	<path style="fill:url(#SVGID_00000050652986803837160710000005939334941427982493_);" d="M40.7,68.8c-15.5,0-28-12.5-28-28
		s12.5-28,28-28s28,12.5,28,28S56.1,68.8,40.7,68.8z M40.7-2.3C16.9-2.3-2.4,17-2.4,40.8S16.9,84,40.7,84s43.1-19.3,43.1-43.1
		C83.8,17,64.5-2.3,40.7-2.3z"/>
	
		<linearGradient id="SVGID_00000103250784962713471820000011740114421347934879_" gradientUnits="userSpaceOnUse" x1="78.35" y1="3.15" x2="92.8815" y2="-11.3815">
		<stop  offset="4.570532e-02" style="stop-color:#E40027"/>
		<stop  offset="1" style="stop-color:#B700AE"/>
	</linearGradient>
	<path style="fill:url(#SVGID_00000103250784962713471820000011740114421347934879_);" d="M95.6-4c0,5.6-4.5,10.1-10.1,10.1
		C79.9,6.1,75.4,1.6,75.4-4s4.5-10.1,10.1-10.1S95.6-9.6,95.6-4z"/>
</g>
</svg>
